M48
; DRILL file {KiCad 8.0.8-8.0.8-0~ubuntu22.04.1} date 2025-01-26T03:04:00-0600
; FORMAT={-:-/ absolute / inch / decimal}
; #@! TF.CreationDate,2025-01-26T03:04:00-06:00
; #@! TF.GenerationSoftware,Kicad,Pcbnew,8.0.8-8.0.8-0~ubuntu22.04.1
; #@! TF.FileFunction,Plated,1,2,PTH
FMAT,2
INCH
; #@! TA.AperFunction,Plated,PTH,ViaDrill
T1C0.0118
; #@! TA.AperFunction,Plated,PTH,ComponentDrill
T2C0.0118
; #@! TA.AperFunction,Plated,PTH,ComponentDrill
T3C0.0315
; #@! TA.AperFunction,Plated,PTH,ComponentDrill
T4C0.0590
%
G90
G05
T1
X2.1772Y-3.3543
X2.2283Y-2.5709
X2.2283Y-3.3209
X2.2283Y-4.0709
X2.2283Y-4.8209
X2.2677Y-2.5709
X2.2677Y-3.3209
X2.2677Y-4.0709
X2.2677Y-4.8209
X2.4567Y-2.5709
X2.4567Y-3.3209
X2.4567Y-4.0709
X2.4567Y-4.8209
X2.4961Y-2.5709
X2.4961Y-3.3209
X2.4961Y-4.0709
X2.4961Y-4.8209
X2.5862Y-4.9193
X2.9783Y-2.5709
X2.9783Y-3.3209
X2.9783Y-4.0709
X2.9783Y-4.8209
X3.0177Y-2.5709
X3.0177Y-3.3209
X3.0177Y-4.0709
X3.0177Y-4.8209
X3.2067Y-2.5709
X3.2067Y-3.3209
X3.2067Y-4.0709
X3.2067Y-4.8209
X3.2461Y-2.5709
X3.2461Y-3.3209
X3.2461Y-4.0709
X3.2461Y-4.8209
X3.6496Y-4.6339
X3.7283Y-2.2165
X3.7283Y-2.9665
X3.7283Y-3.7165
X3.7283Y-4.4665
X3.7677Y-2.2165
X3.7677Y-2.9665
X3.7677Y-3.7165
X3.7677Y-4.4665
X3.9567Y-2.2165
X3.9567Y-2.9665
X3.9567Y-3.7165
X3.9567Y-4.4665
X3.9961Y-2.2165
X3.9961Y-2.9665
X3.9961Y-3.7165
X3.9961Y-4.4665
X4.0559Y-4.6063
X4.4783Y-2.1181
X4.4783Y-2.8681
X4.4783Y-3.6181
X4.4783Y-4.3681
X4.5177Y-2.1181
X4.5177Y-2.8681
X4.5177Y-3.6181
X4.5177Y-4.3681
X4.7067Y-2.1181
X4.7067Y-2.8681
X4.7067Y-3.6181
X4.7067Y-4.3681
X4.7461Y-2.1181
X4.7461Y-2.8681
X4.7461Y-3.6181
X4.7461Y-4.3681
X4.7953Y-4.3858
X4.7963Y-4.7047
X4.8463Y-4.7047
X4.8463Y-4.9016
X4.8963Y-4.7047
X4.8963Y-4.9016
X4.9463Y-4.7047
X4.9463Y-4.9016
X4.9963Y-3.9663
X4.9963Y-4.7047
X4.9963Y-4.9016
X5.0463Y-4.9016
X5.0963Y-4.7047
X5.0963Y-4.9016
X5.2283Y-2.2165
X5.2283Y-2.9665
X5.2283Y-3.7165
X5.2283Y-4.4665
X5.2677Y-2.2165
X5.2677Y-2.9665
X5.2677Y-3.7165
X5.2677Y-4.4665
X5.4567Y-2.2165
X5.4567Y-2.9665
X5.4567Y-3.7165
X5.4567Y-4.4665
X5.4961Y-2.2165
X5.4961Y-2.9665
X5.4961Y-3.7165
X5.4961Y-4.4665
X5.5699Y-4.4567
X5.5699Y-4.7047
X5.6299Y-4.4882
X5.6299Y-4.8583
X5.7402Y-4.6732
X5.8346Y-4.8386
X5.9606Y-4.7205
X5.9613Y-5.3014
X5.9783Y-2.315
X5.9783Y-3.065
X5.9783Y-3.815
X5.9783Y-4.565
X5.9909Y-5.3122
X6.0177Y-2.315
X6.0177Y-3.065
X6.0177Y-3.815
X6.0177Y-4.565
X6.2067Y-2.315
X6.2067Y-3.065
X6.2067Y-3.815
X6.2067Y-4.565
X6.2461Y-2.315
X6.2461Y-3.065
X6.2461Y-3.815
X6.2461Y-4.565
X6.2756Y-4.7205
X6.3154Y-5.4567
X6.3504Y-4.3898
X6.3543Y-4.6398
X6.3559Y-5.4583
X6.3858Y-2.0669
X6.3937Y-4.7874
X6.3947Y-4.5866
X6.4173Y-4.626
X6.4398Y-4.6693
X6.4634Y-4.702
X6.4636Y-3.3268
X6.498Y-4.7559
X6.5719Y-4.4557
X6.6102Y-4.8976
X6.6112Y-4.5472
X6.6378Y-4.5079
X6.6693Y-4.811
X7.137Y-5.6279
X7.1701Y-5.593
X7.1929Y-4.3898
X7.1929Y-4.4291
X7.1929Y-4.4685
X7.1929Y-4.5079
X7.1929Y-4.5472
X7.1929Y-4.5866
X7.1929Y-4.626
X7.1929Y-4.6654
X7.1929Y-4.7047
X7.1929Y-4.7441
X7.2445Y-2.1453
X7.2598Y-5.2303
X7.2913Y-5.3937
T2
X2.6998Y-2.2662
X2.6998Y-3.0162
X2.6998Y-3.7662
X2.6998Y-4.5162
X2.7372Y-2.3401
X2.7372Y-3.0901
X2.7372Y-3.8401
X2.7372Y-4.5901
X2.7746Y-2.2662
X2.7746Y-3.0162
X2.7746Y-3.7662
X2.7746Y-4.5162
X4.1998Y-1.8627
X4.1998Y-2.6127
X4.1998Y-3.3627
X4.1998Y-4.1127
X4.2372Y-1.9365
X4.2372Y-2.6865
X4.2372Y-3.4365
X4.2372Y-4.1865
X4.2746Y-1.8627
X4.2746Y-2.6127
X4.2746Y-3.3627
X4.2746Y-4.1127
X5.6998Y-1.9611
X5.6998Y-2.7111
X5.6998Y-3.4611
X5.6998Y-4.2111
X5.7372Y-2.0349
X5.7372Y-2.7849
X5.7372Y-3.5349
X5.7372Y-4.2849
X5.7746Y-1.9611
X5.7746Y-2.7111
X5.7746Y-3.4611
X5.7746Y-4.2111
X6.6004Y-5.1973
X6.6378Y-5.2712
X6.6752Y-5.1973
T3
X4.5069Y-5.2559
X4.6069Y-5.2559
X4.7069Y-5.2559
X4.8069Y-5.2559
X4.9069Y-5.2559
X5.0069Y-5.2559
X5.1069Y-5.2559
X5.2069Y-5.2559
X5.3069Y-5.2559
X6.9045Y-1.7827
X6.9045Y-1.8827
X6.9045Y-1.9827
X6.9045Y-2.0827
X6.9045Y-2.1827
X6.9045Y-2.2827
X6.9045Y-2.3827
X6.9045Y-2.4827
X6.9045Y-2.5827
X6.9045Y-2.6827
X6.9045Y-2.7827
X6.9045Y-2.8827
X7.5045Y-1.7827
X7.5045Y-1.8827
X7.5045Y-1.9827
X7.5045Y-2.0827
X7.5045Y-2.1827
X7.5045Y-2.2827
X7.5045Y-2.3827
X7.5045Y-2.4827
X7.5045Y-2.5827
X7.5045Y-2.6827
X7.5045Y-2.7827
X7.5045Y-2.8827
T4
X2.2122Y-2.2622
X2.2122Y-3.0122
X2.2122Y-3.7622
X2.2122Y-4.5122
X2.2622Y-2.1622
X2.2622Y-2.9122
X2.2622Y-3.6622
X2.2622Y-4.4122
X2.4622Y-2.1622
X2.4622Y-2.9122
X2.4622Y-3.6622
X2.4622Y-4.4122
X2.5122Y-2.2622
X2.5122Y-3.0122
X2.5122Y-3.7622
X2.5122Y-4.5122
X2.9622Y-2.2622
X2.9622Y-3.0122
X2.9622Y-3.7622
X2.9622Y-4.5122
X3.0122Y-2.1622
X3.0122Y-2.9122
X3.0122Y-3.6622
X3.0122Y-4.4122
X3.2122Y-2.1622
X3.2122Y-2.9122
X3.2122Y-3.6622
X3.2122Y-4.4122
X3.2622Y-2.2622
X3.2622Y-3.0122
X3.2622Y-3.7622
X3.2622Y-4.5122
X3.7122Y-1.9079
X3.7122Y-2.6579
X3.7122Y-3.4079
X3.7122Y-4.1579
X3.7622Y-1.8079
X3.7622Y-2.5579
X3.7622Y-3.3079
X3.7622Y-4.0579
X3.9622Y-1.8079
X3.9622Y-2.5579
X3.9622Y-3.3079
X3.9622Y-4.0579
X4.0122Y-1.9079
X4.0122Y-2.6579
X4.0122Y-3.4079
X4.0122Y-4.1579
X4.4622Y-1.8094
X4.4622Y-2.5594
X4.4622Y-3.3094
X4.4622Y-4.0594
X4.5122Y-1.7094
X4.5122Y-2.4594
X4.5122Y-3.2094
X4.5122Y-3.9594
X4.7122Y-1.7094
X4.7122Y-2.4594
X4.7122Y-3.2094
X4.7122Y-3.9594
X4.7622Y-1.8094
X4.7622Y-2.5594
X4.7622Y-3.3094
X4.7622Y-4.0594
X5.2122Y-1.9079
X5.2122Y-2.6579
X5.2122Y-3.4079
X5.2122Y-4.1579
X5.2622Y-1.8079
X5.2622Y-2.5579
X5.2622Y-3.3079
X5.2622Y-4.0579
X5.4622Y-1.8079
X5.4622Y-2.5579
X5.4622Y-3.3079
X5.4622Y-4.0579
X5.5122Y-1.9079
X5.5122Y-2.6579
X5.5122Y-3.4079
X5.5122Y-4.1579
X5.9622Y-2.0063
X5.9622Y-2.7563
X5.9622Y-3.5063
X5.9622Y-4.2563
X6.0122Y-1.9063
X6.0122Y-2.6563
X6.0122Y-3.4063
X6.0122Y-4.1563
X6.1274Y-5.0442
X6.2122Y-1.9063
X6.2122Y-2.6563
X6.2122Y-3.4063
X6.2122Y-4.1563
X6.2125Y-4.9717
X6.2622Y-2.0063
X6.2622Y-2.7563
X6.2622Y-3.5063
X6.2622Y-4.2563
X6.3966Y-5.0499
X6.4035Y-5.1614
X6.826Y-5.3783
X6.8876Y-5.4716
X6.926Y-5.2051
X7.0376Y-5.2118
M30
