%TF.GenerationSoftware,KiCad,Pcbnew,8.0.8-8.0.8-0~ubuntu22.04.1*%
%TF.CreationDate,2025-02-16T14:39:09-06:00*%
%TF.ProjectId,choc_v1_socket_reversible,63686f63-5f76-4315-9f73-6f636b65745f,rev?*%
%TF.SameCoordinates,Original*%
%TF.FileFunction,Paste,Top*%
%TF.FilePolarity,Positive*%
%FSLAX46Y46*%
G04 Gerber Fmt 4.6, Leading zero omitted, Abs format (unit mm)*
G04 Created by KiCad (PCBNEW 8.0.8-8.0.8-0~ubuntu22.04.1) date 2025-02-16 14:39:09*
%MOMM*%
%LPD*%
G01*
G04 APERTURE LIST*
G04 Aperture macros list*
%AMRoundRect*
0 Rectangle with rounded corners*
0 $1 Rounding radius*
0 $2 $3 $4 $5 $6 $7 $8 $9 X,Y pos of 4 corners*
0 Add a 4 corners polygon primitive as box body*
4,1,4,$2,$3,$4,$5,$6,$7,$8,$9,$2,$3,0*
0 Add four circle primitives for the rounded corners*
1,1,$1+$1,$2,$3*
1,1,$1+$1,$4,$5*
1,1,$1+$1,$6,$7*
1,1,$1+$1,$8,$9*
0 Add four rect primitives between the rounded corners*
20,1,$1+$1,$2,$3,$4,$5,0*
20,1,$1+$1,$4,$5,$6,$7,0*
20,1,$1+$1,$6,$7,$8,$9,0*
20,1,$1+$1,$8,$9,$2,$3,0*%
%AMRotRect*
0 Rectangle, with rotation*
0 The origin of the aperture is its center*
0 $1 length*
0 $2 width*
0 $3 Rotation angle, in degrees counterclockwise*
0 Add horizontal line*
21,1,$1,$2,0,0,$3*%
G04 Aperture macros list end*
%ADD10R,2.600000X2.600000*%
%ADD11RoundRect,0.082000X-0.818000X-0.328000X0.818000X-0.328000X0.818000X0.328000X-0.818000X0.328000X0*%
%ADD12RoundRect,0.082000X0.872409X-0.124944X-0.544409X0.693056X-0.872409X0.124944X0.544409X-0.693056X0*%
%ADD13RoundRect,0.082000X0.818000X0.328000X-0.818000X0.328000X-0.818000X-0.328000X0.818000X-0.328000X0*%
%ADD14RoundRect,0.150000X0.850000X0.150000X-0.850000X0.150000X-0.850000X-0.150000X0.850000X-0.150000X0*%
%ADD15RotRect,0.300000X1.300000X135.000000*%
%ADD16RotRect,2.000000X3.000000X135.000000*%
%ADD17R,0.800000X0.300000*%
%ADD18RoundRect,0.082000X0.881133X-0.017692X-0.624813X0.621544X-0.881133X0.017692X0.624813X-0.621544X0*%
%ADD19RotRect,2.600000X2.600000X337.000000*%
%ADD20RotRect,2.600000X2.600000X330.000000*%
G04 APERTURE END LIST*
D10*
%TO.C,SW13*%
X113725000Y-71450000D03*
X125275000Y-69250000D03*
%TD*%
D11*
%TO.C,LED30*%
X56700000Y-107090000D03*
X56700000Y-105510000D03*
X63300000Y-105510000D03*
X63300000Y-107090000D03*
%TD*%
D10*
%TO.C,SW32*%
X94725000Y-107950000D03*
X106275000Y-105750000D03*
%TD*%
D12*
%TO.C,LED37*%
X184402884Y-127682161D03*
X183612884Y-129050481D03*
X177897116Y-125750481D03*
X178687116Y-124382161D03*
%TD*%
D10*
%TO.C,SW33*%
X113725000Y-105450000D03*
X125275000Y-103250000D03*
%TD*%
D13*
%TO.C,LED21*%
X82300000Y-88510000D03*
X82300000Y-90090000D03*
X75700000Y-90090000D03*
X75700000Y-88510000D03*
%TD*%
D10*
%TO.C,SW01*%
X75725000Y-65950000D03*
X87275000Y-63750000D03*
%TD*%
D13*
%TO.C,LED31*%
X82300000Y-105510000D03*
X82300000Y-107090000D03*
X75700000Y-107090000D03*
X75700000Y-105510000D03*
%TD*%
%TO.C,LED14*%
X139300000Y-62510000D03*
X139300000Y-64090000D03*
X132700000Y-64090000D03*
X132700000Y-62510000D03*
%TD*%
%TO.C,LED11*%
X82300000Y-71510000D03*
X82300000Y-73090000D03*
X75700000Y-73090000D03*
X75700000Y-71510000D03*
%TD*%
D10*
%TO.C,SW35*%
X151725000Y-110450000D03*
X163275000Y-108250000D03*
%TD*%
%TO.C,SW23*%
X113725000Y-88450000D03*
X125275000Y-86250000D03*
%TD*%
%TO.C,SW14*%
X132725000Y-73950000D03*
X144275000Y-71750000D03*
%TD*%
D11*
%TO.C,LED33*%
X113700000Y-95590000D03*
X113700000Y-94010000D03*
X120300000Y-94010000D03*
X120300000Y-95590000D03*
%TD*%
D14*
%TO.C,SR_RIGHT1*%
X176500000Y-116445000D03*
X176500000Y-115175000D03*
X176500000Y-113905000D03*
X176500000Y-112635000D03*
X176500000Y-111365000D03*
X176500000Y-110095000D03*
X176500000Y-108825000D03*
X176500000Y-107555000D03*
X171500000Y-107555000D03*
X171500000Y-108825000D03*
X171500000Y-110095000D03*
X171500000Y-111365000D03*
X171500000Y-112635000D03*
X171500000Y-113905000D03*
X171500000Y-115175000D03*
X171500000Y-116445000D03*
%TD*%
D10*
%TO.C,SW30*%
X56725000Y-116950000D03*
X68275000Y-114750000D03*
%TD*%
D15*
%TO.C,J_RIGHT1*%
X178671728Y-100121728D03*
X178318175Y-99768174D03*
X177964621Y-99414621D03*
X177611068Y-99061068D03*
X177257515Y-98707514D03*
X176903961Y-98353961D03*
X176550408Y-98000407D03*
X176196854Y-97646854D03*
X175843301Y-97293301D03*
X175489748Y-96939747D03*
X175136194Y-96586194D03*
X174782641Y-96232641D03*
X174429087Y-95879087D03*
X174075534Y-95525534D03*
X173721981Y-95171980D03*
X173368427Y-94818427D03*
X173014874Y-94464874D03*
X172661321Y-94111320D03*
X172307767Y-93757767D03*
X171954214Y-93404213D03*
X171600660Y-93050660D03*
X171247107Y-92697107D03*
X170893554Y-92343553D03*
X170540000Y-91990000D03*
D16*
X181500155Y-99626753D03*
X171034975Y-89161573D03*
%TD*%
D10*
%TO.C,SW20*%
X56725000Y-99950000D03*
X68275000Y-97750000D03*
%TD*%
%TO.C,SW31*%
X75725000Y-116950000D03*
X87275000Y-114750000D03*
%TD*%
%TO.C,SW02*%
X94725000Y-56950000D03*
X106275000Y-54750000D03*
%TD*%
D17*
%TO.C,RN_RIGHT1*%
X186900000Y-113750000D03*
X186900000Y-113250000D03*
X186900000Y-112750000D03*
X186900000Y-112250000D03*
X186900000Y-111750000D03*
X186900000Y-111250000D03*
X186900000Y-110750000D03*
X186900000Y-110250000D03*
X185100000Y-110250000D03*
X185100000Y-110750000D03*
X185100000Y-111250000D03*
X185100000Y-111750000D03*
X185100000Y-112250000D03*
X185100000Y-112750000D03*
X185100000Y-113250000D03*
X185100000Y-113750000D03*
%TD*%
D11*
%TO.C,LED13*%
X113700000Y-61590000D03*
X113700000Y-60010000D03*
X120300000Y-60010000D03*
X120300000Y-61590000D03*
%TD*%
D10*
%TO.C,SW25*%
X151725000Y-93450000D03*
X163275000Y-91250000D03*
%TD*%
%TO.C,SW10*%
X56725000Y-82950000D03*
X68275000Y-80750000D03*
%TD*%
%TO.C,SW11*%
X75725000Y-82950000D03*
X87275000Y-80750000D03*
%TD*%
%TO.C,SW12*%
X94725000Y-73950000D03*
X106275000Y-71750000D03*
%TD*%
D13*
%TO.C,LED22*%
X101300000Y-79510000D03*
X101300000Y-81090000D03*
X94700000Y-81090000D03*
X94700000Y-79510000D03*
%TD*%
D11*
%TO.C,LED03*%
X113700000Y-44590000D03*
X113700000Y-43010000D03*
X120300000Y-43010000D03*
X120300000Y-44590000D03*
%TD*%
D10*
%TO.C,SW00*%
X56725000Y-65950000D03*
X68275000Y-63750000D03*
%TD*%
D11*
%TO.C,LED35*%
X151700000Y-100590000D03*
X151700000Y-99010000D03*
X158300000Y-99010000D03*
X158300000Y-100590000D03*
%TD*%
%TO.C,LED25*%
X151700000Y-83590000D03*
X151700000Y-82010000D03*
X158300000Y-82010000D03*
X158300000Y-83590000D03*
%TD*%
%TO.C,LED20*%
X56700000Y-90090000D03*
X56700000Y-88510000D03*
X63300000Y-88510000D03*
X63300000Y-90090000D03*
%TD*%
D10*
%TO.C,SW15*%
X151725000Y-76450000D03*
X163275000Y-74250000D03*
%TD*%
%TO.C,SW34*%
X132725000Y-107950000D03*
X144275000Y-105750000D03*
%TD*%
D13*
%TO.C,LED34*%
X139300000Y-96510000D03*
X139300000Y-98090000D03*
X132700000Y-98090000D03*
X132700000Y-96510000D03*
%TD*%
D18*
%TO.C,LED36*%
X163196344Y-122071814D03*
X162578988Y-123526212D03*
X156503656Y-120947386D03*
X157121012Y-119492988D03*
%TD*%
D10*
%TO.C,SW04*%
X132725000Y-56950000D03*
X144275000Y-54750000D03*
%TD*%
D13*
%TO.C,LED02*%
X101300000Y-45510000D03*
X101300000Y-47090000D03*
X94700000Y-47090000D03*
X94700000Y-45510000D03*
%TD*%
%TO.C,LED01*%
X82300000Y-54510000D03*
X82300000Y-56090000D03*
X75700000Y-56090000D03*
X75700000Y-54510000D03*
%TD*%
D11*
%TO.C,LED05*%
X151700000Y-49590000D03*
X151700000Y-48010000D03*
X158300000Y-48010000D03*
X158300000Y-49590000D03*
%TD*%
%TO.C,LED00*%
X56700000Y-56090000D03*
X56700000Y-54510000D03*
X63300000Y-54510000D03*
X63300000Y-56090000D03*
%TD*%
%TO.C,LED23*%
X113700000Y-78590000D03*
X113700000Y-77010000D03*
X120300000Y-77010000D03*
X120300000Y-78590000D03*
%TD*%
D10*
%TO.C,SW22*%
X94725000Y-90950000D03*
X106275000Y-88750000D03*
%TD*%
D13*
%TO.C,LED24*%
X139300000Y-79510000D03*
X139300000Y-81090000D03*
X132700000Y-81090000D03*
X132700000Y-79510000D03*
%TD*%
%TO.C,LED04*%
X139300000Y-45510000D03*
X139300000Y-47090000D03*
X132700000Y-47090000D03*
X132700000Y-45510000D03*
%TD*%
D10*
%TO.C,SW05*%
X151725000Y-59450000D03*
X163275000Y-57250000D03*
%TD*%
D11*
%TO.C,LED10*%
X56700000Y-73090000D03*
X56700000Y-71510000D03*
X63300000Y-71510000D03*
X63300000Y-73090000D03*
%TD*%
D13*
%TO.C,LED32*%
X101300000Y-96510000D03*
X101300000Y-98090000D03*
X94700000Y-98090000D03*
X94700000Y-96510000D03*
%TD*%
D19*
%TO.C,SW36*%
X152560495Y-129997359D03*
X164051936Y-132485193D03*
%TD*%
D13*
%TO.C,LED12*%
X101300000Y-62510000D03*
X101300000Y-64090000D03*
X94700000Y-64090000D03*
X94700000Y-62510000D03*
%TD*%
D11*
%TO.C,LED15*%
X151700000Y-66590000D03*
X151700000Y-65010000D03*
X158300000Y-65010000D03*
X158300000Y-66590000D03*
%TD*%
D10*
%TO.C,SW24*%
X132725000Y-90950000D03*
X144275000Y-88750000D03*
%TD*%
%TO.C,SW21*%
X75725000Y-99950000D03*
X87275000Y-97750000D03*
%TD*%
D20*
%TO.C,SW37*%
X172988767Y-134315351D03*
X184091360Y-138185095D03*
%TD*%
D10*
%TO.C,SW03*%
X113725000Y-54450000D03*
X125275000Y-52250000D03*
%TD*%
M02*
