M48
; DRILL file {KiCad 8.0.8-8.0.8-0~ubuntu22.04.1} date 2025-02-14T18:00:21-0600
; FORMAT={-:-/ absolute / inch / decimal}
; #@! TF.CreationDate,2025-02-14T18:00:21-06:00
; #@! TF.GenerationSoftware,Kicad,Pcbnew,8.0.8-8.0.8-0~ubuntu22.04.1
; #@! TF.FileFunction,NonPlated,1,2,NPTH
FMAT,2
INCH
; #@! TA.AperFunction,NonPlated,NPTH,ComponentDrill
T1C0.0390
; #@! TA.AperFunction,NonPlated,NPTH,ComponentDrill
T2C0.0670
; #@! TA.AperFunction,NonPlated,NPTH,ComponentDrill
T3C0.1181
; #@! TA.AperFunction,NonPlated,NPTH,ComponentDrill
T4C0.1350
%
G90
G05
T1
X2.1567Y-2.1969
X2.1567Y-2.8661
X2.1567Y-3.5354
X2.1567Y-4.2047
X2.5677Y-2.1969
X2.5677Y-2.8661
X2.5677Y-3.5354
X2.5677Y-4.2047
X2.9047Y-2.1969
X2.9047Y-2.8661
X2.9047Y-3.5354
X2.9047Y-4.2047
X3.3157Y-2.1969
X3.3157Y-2.8661
X3.3157Y-3.5354
X3.3157Y-4.2047
X3.6528Y-1.8425
X3.6528Y-2.5118
X3.6528Y-3.1811
X3.6528Y-3.8504
X4.0638Y-1.8425
X4.0638Y-2.5118
X4.0638Y-3.1811
X4.0638Y-3.8504
X4.4008Y-1.7441
X4.4008Y-2.4134
X4.4008Y-3.0827
X4.4008Y-3.752
X4.8118Y-1.7441
X4.8118Y-2.4134
X4.8118Y-3.0827
X4.8118Y-3.752
X5.1488Y-1.8425
X5.1488Y-2.5118
X5.1488Y-3.1811
X5.1488Y-3.8504
X5.5598Y-1.8425
X5.5598Y-2.5118
X5.5598Y-3.1811
X5.5598Y-3.8504
X5.8969Y-1.9409
X5.8969Y-2.6102
X5.8969Y-3.2795
X5.8969Y-3.9488
X6.092Y-4.7202
X6.3079Y-1.9409
X6.3079Y-2.6102
X6.3079Y-3.2795
X6.3079Y-3.9488
X6.4703Y-4.8808
X6.9441Y-4.9036
X7.3Y-5.1092
T2
X2.1457Y-2.3622
X2.1457Y-3.0315
X2.1457Y-3.7008
X2.1457Y-4.3701
X2.5787Y-2.3622
X2.5787Y-3.0315
X2.5787Y-3.7008
X2.5787Y-4.3701
X2.8937Y-2.3622
X2.8937Y-3.0315
X2.8937Y-3.7008
X2.8937Y-4.3701
X3.3268Y-2.3622
X3.3268Y-3.0315
X3.3268Y-3.7008
X3.3268Y-4.3701
X3.6417Y-2.0079
X3.6417Y-2.6772
X3.6417Y-3.3465
X3.6417Y-4.0157
X4.0748Y-2.0079
X4.0748Y-2.6772
X4.0748Y-3.3465
X4.0748Y-4.0157
X4.3898Y-1.9094
X4.3898Y-2.5787
X4.3898Y-3.248
X4.3898Y-3.9173
X4.8228Y-1.9094
X4.8228Y-2.5787
X4.8228Y-3.248
X4.8228Y-3.9173
X5.1378Y-2.0079
X5.1378Y-2.6772
X5.1378Y-3.3465
X5.1378Y-4.0157
X5.5709Y-2.0079
X5.5709Y-2.6772
X5.5709Y-3.3465
X5.5709Y-4.0157
X5.8858Y-2.1063
X5.8858Y-2.7756
X5.8858Y-3.4449
X5.8858Y-4.1142
X6.0172Y-4.8681
X6.3189Y-2.1063
X6.3189Y-2.7756
X6.3189Y-3.4449
X6.3189Y-4.1142
X6.4159Y-5.0374
X6.8518Y-5.0413
X7.2269Y-5.2579
T3
X2.1654Y-2.5098
X2.1654Y-3.1791
X2.1654Y-3.8484
X2.1654Y-4.5177
X2.3622Y-2.5965
X2.3622Y-3.2657
X2.3622Y-3.935
X2.3622Y-4.6043
X2.5591Y-2.5098
X2.5591Y-3.1791
X2.5591Y-3.8484
X2.5591Y-4.5177
X2.9134Y-2.5098
X2.9134Y-3.1791
X2.9134Y-3.8484
X2.9134Y-4.5177
X3.1102Y-2.5965
X3.1102Y-3.2657
X3.1102Y-3.935
X3.1102Y-4.6043
X3.3071Y-2.5098
X3.3071Y-3.1791
X3.3071Y-3.8484
X3.3071Y-4.5177
X3.6614Y-2.1555
X3.6614Y-2.8248
X3.6614Y-3.4941
X3.6614Y-4.1634
X3.8583Y-2.2421
X3.8583Y-2.9114
X3.8583Y-3.5807
X3.8583Y-4.25
X4.0551Y-2.1555
X4.0551Y-2.8248
X4.0551Y-3.4941
X4.0551Y-4.1634
X4.4094Y-2.0571
X4.4094Y-2.7264
X4.4094Y-3.3957
X4.4094Y-4.065
X4.6063Y-2.1437
X4.6063Y-2.813
X4.6063Y-3.4823
X4.6063Y-4.1516
X4.8031Y-2.0571
X4.8031Y-2.7264
X4.8031Y-3.3957
X4.8031Y-4.065
X5.1575Y-2.1555
X5.1575Y-2.8248
X5.1575Y-3.4941
X5.1575Y-4.1634
X5.3543Y-2.2421
X5.3543Y-2.9114
X5.3543Y-3.5807
X5.3543Y-4.25
X5.5512Y-2.1555
X5.5512Y-2.8248
X5.5512Y-3.4941
X5.5512Y-4.1634
X5.9055Y-2.2539
X5.9055Y-2.9232
X5.9055Y-3.5925
X5.9055Y-4.2618
X5.9776Y-5.0117
X6.1024Y-2.3406
X6.1024Y-3.0098
X6.1024Y-3.6791
X6.1024Y-4.3484
X6.125Y-5.1684
X6.2992Y-2.2539
X6.2992Y-2.9232
X6.2992Y-3.5925
X6.2992Y-4.2618
X6.3401Y-5.1656
X6.7951Y-5.179
X6.9222Y-5.3525
X7.136Y-5.3759
T4
X2.3622Y-2.3622
X2.3622Y-3.0315
X2.3622Y-3.7008
X2.3622Y-4.3701
X3.1102Y-2.3622
X3.1102Y-3.0315
X3.1102Y-3.7008
X3.1102Y-4.3701
X3.8583Y-2.0079
X3.8583Y-2.6772
X3.8583Y-3.3465
X3.8583Y-4.0157
X4.6063Y-1.9094
X4.6063Y-2.5787
X4.6063Y-3.248
X4.6063Y-3.9173
X5.3543Y-2.0079
X5.3543Y-2.6772
X5.3543Y-3.3465
X5.3543Y-4.0157
X6.1024Y-2.1063
X6.1024Y-2.7756
X6.1024Y-3.4449
X6.1024Y-4.1142
X6.2165Y-4.9528
X7.0394Y-5.1496
M30
