%TF.GenerationSoftware,KiCad,Pcbnew,8.0.8-8.0.8-0~ubuntu22.04.1*%
%TF.CreationDate,2025-02-14T18:00:16-06:00*%
%TF.ProjectId,choc_v1_socket_reversible,63686f63-5f76-4315-9f73-6f636b65745f,rev?*%
%TF.SameCoordinates,Original*%
%TF.FileFunction,Legend,Bot*%
%TF.FilePolarity,Positive*%
%FSLAX46Y46*%
G04 Gerber Fmt 4.6, Leading zero omitted, Abs format (unit mm)*
G04 Created by KiCad (PCBNEW 8.0.8-8.0.8-0~ubuntu22.04.1) date 2025-02-14 18:00:16*
%MOMM*%
%LPD*%
G01*
G04 APERTURE LIST*
%ADD10C,0.150000*%
%ADD11C,0.100000*%
%ADD12C,0.120000*%
G04 APERTURE END LIST*
D10*
X114409523Y-73007200D02*
X114266666Y-73054819D01*
X114266666Y-73054819D02*
X114028571Y-73054819D01*
X114028571Y-73054819D02*
X113933333Y-73007200D01*
X113933333Y-73007200D02*
X113885714Y-72959580D01*
X113885714Y-72959580D02*
X113838095Y-72864342D01*
X113838095Y-72864342D02*
X113838095Y-72769104D01*
X113838095Y-72769104D02*
X113885714Y-72673866D01*
X113885714Y-72673866D02*
X113933333Y-72626247D01*
X113933333Y-72626247D02*
X114028571Y-72578628D01*
X114028571Y-72578628D02*
X114219047Y-72531009D01*
X114219047Y-72531009D02*
X114314285Y-72483390D01*
X114314285Y-72483390D02*
X114361904Y-72435771D01*
X114361904Y-72435771D02*
X114409523Y-72340533D01*
X114409523Y-72340533D02*
X114409523Y-72245295D01*
X114409523Y-72245295D02*
X114361904Y-72150057D01*
X114361904Y-72150057D02*
X114314285Y-72102438D01*
X114314285Y-72102438D02*
X114219047Y-72054819D01*
X114219047Y-72054819D02*
X113980952Y-72054819D01*
X113980952Y-72054819D02*
X113838095Y-72102438D01*
X113504761Y-72054819D02*
X113266666Y-73054819D01*
X113266666Y-73054819D02*
X113076190Y-72340533D01*
X113076190Y-72340533D02*
X112885714Y-73054819D01*
X112885714Y-73054819D02*
X112647619Y-72054819D01*
X111742857Y-73054819D02*
X112314285Y-73054819D01*
X112028571Y-73054819D02*
X112028571Y-72054819D01*
X112028571Y-72054819D02*
X112123809Y-72197676D01*
X112123809Y-72197676D02*
X112219047Y-72292914D01*
X112219047Y-72292914D02*
X112314285Y-72340533D01*
X111409523Y-72054819D02*
X110790476Y-72054819D01*
X110790476Y-72054819D02*
X111123809Y-72435771D01*
X111123809Y-72435771D02*
X110980952Y-72435771D01*
X110980952Y-72435771D02*
X110885714Y-72483390D01*
X110885714Y-72483390D02*
X110838095Y-72531009D01*
X110838095Y-72531009D02*
X110790476Y-72626247D01*
X110790476Y-72626247D02*
X110790476Y-72864342D01*
X110790476Y-72864342D02*
X110838095Y-72959580D01*
X110838095Y-72959580D02*
X110885714Y-73007200D01*
X110885714Y-73007200D02*
X110980952Y-73054819D01*
X110980952Y-73054819D02*
X111266666Y-73054819D01*
X111266666Y-73054819D02*
X111361904Y-73007200D01*
X111361904Y-73007200D02*
X111409523Y-72959580D01*
X95409523Y-109507200D02*
X95266666Y-109554819D01*
X95266666Y-109554819D02*
X95028571Y-109554819D01*
X95028571Y-109554819D02*
X94933333Y-109507200D01*
X94933333Y-109507200D02*
X94885714Y-109459580D01*
X94885714Y-109459580D02*
X94838095Y-109364342D01*
X94838095Y-109364342D02*
X94838095Y-109269104D01*
X94838095Y-109269104D02*
X94885714Y-109173866D01*
X94885714Y-109173866D02*
X94933333Y-109126247D01*
X94933333Y-109126247D02*
X95028571Y-109078628D01*
X95028571Y-109078628D02*
X95219047Y-109031009D01*
X95219047Y-109031009D02*
X95314285Y-108983390D01*
X95314285Y-108983390D02*
X95361904Y-108935771D01*
X95361904Y-108935771D02*
X95409523Y-108840533D01*
X95409523Y-108840533D02*
X95409523Y-108745295D01*
X95409523Y-108745295D02*
X95361904Y-108650057D01*
X95361904Y-108650057D02*
X95314285Y-108602438D01*
X95314285Y-108602438D02*
X95219047Y-108554819D01*
X95219047Y-108554819D02*
X94980952Y-108554819D01*
X94980952Y-108554819D02*
X94838095Y-108602438D01*
X94504761Y-108554819D02*
X94266666Y-109554819D01*
X94266666Y-109554819D02*
X94076190Y-108840533D01*
X94076190Y-108840533D02*
X93885714Y-109554819D01*
X93885714Y-109554819D02*
X93647619Y-108554819D01*
X93361904Y-108554819D02*
X92742857Y-108554819D01*
X92742857Y-108554819D02*
X93076190Y-108935771D01*
X93076190Y-108935771D02*
X92933333Y-108935771D01*
X92933333Y-108935771D02*
X92838095Y-108983390D01*
X92838095Y-108983390D02*
X92790476Y-109031009D01*
X92790476Y-109031009D02*
X92742857Y-109126247D01*
X92742857Y-109126247D02*
X92742857Y-109364342D01*
X92742857Y-109364342D02*
X92790476Y-109459580D01*
X92790476Y-109459580D02*
X92838095Y-109507200D01*
X92838095Y-109507200D02*
X92933333Y-109554819D01*
X92933333Y-109554819D02*
X93219047Y-109554819D01*
X93219047Y-109554819D02*
X93314285Y-109507200D01*
X93314285Y-109507200D02*
X93361904Y-109459580D01*
X92361904Y-108650057D02*
X92314285Y-108602438D01*
X92314285Y-108602438D02*
X92219047Y-108554819D01*
X92219047Y-108554819D02*
X91980952Y-108554819D01*
X91980952Y-108554819D02*
X91885714Y-108602438D01*
X91885714Y-108602438D02*
X91838095Y-108650057D01*
X91838095Y-108650057D02*
X91790476Y-108745295D01*
X91790476Y-108745295D02*
X91790476Y-108840533D01*
X91790476Y-108840533D02*
X91838095Y-108983390D01*
X91838095Y-108983390D02*
X92409523Y-109554819D01*
X92409523Y-109554819D02*
X91790476Y-109554819D01*
X114409523Y-107007200D02*
X114266666Y-107054819D01*
X114266666Y-107054819D02*
X114028571Y-107054819D01*
X114028571Y-107054819D02*
X113933333Y-107007200D01*
X113933333Y-107007200D02*
X113885714Y-106959580D01*
X113885714Y-106959580D02*
X113838095Y-106864342D01*
X113838095Y-106864342D02*
X113838095Y-106769104D01*
X113838095Y-106769104D02*
X113885714Y-106673866D01*
X113885714Y-106673866D02*
X113933333Y-106626247D01*
X113933333Y-106626247D02*
X114028571Y-106578628D01*
X114028571Y-106578628D02*
X114219047Y-106531009D01*
X114219047Y-106531009D02*
X114314285Y-106483390D01*
X114314285Y-106483390D02*
X114361904Y-106435771D01*
X114361904Y-106435771D02*
X114409523Y-106340533D01*
X114409523Y-106340533D02*
X114409523Y-106245295D01*
X114409523Y-106245295D02*
X114361904Y-106150057D01*
X114361904Y-106150057D02*
X114314285Y-106102438D01*
X114314285Y-106102438D02*
X114219047Y-106054819D01*
X114219047Y-106054819D02*
X113980952Y-106054819D01*
X113980952Y-106054819D02*
X113838095Y-106102438D01*
X113504761Y-106054819D02*
X113266666Y-107054819D01*
X113266666Y-107054819D02*
X113076190Y-106340533D01*
X113076190Y-106340533D02*
X112885714Y-107054819D01*
X112885714Y-107054819D02*
X112647619Y-106054819D01*
X112361904Y-106054819D02*
X111742857Y-106054819D01*
X111742857Y-106054819D02*
X112076190Y-106435771D01*
X112076190Y-106435771D02*
X111933333Y-106435771D01*
X111933333Y-106435771D02*
X111838095Y-106483390D01*
X111838095Y-106483390D02*
X111790476Y-106531009D01*
X111790476Y-106531009D02*
X111742857Y-106626247D01*
X111742857Y-106626247D02*
X111742857Y-106864342D01*
X111742857Y-106864342D02*
X111790476Y-106959580D01*
X111790476Y-106959580D02*
X111838095Y-107007200D01*
X111838095Y-107007200D02*
X111933333Y-107054819D01*
X111933333Y-107054819D02*
X112219047Y-107054819D01*
X112219047Y-107054819D02*
X112314285Y-107007200D01*
X112314285Y-107007200D02*
X112361904Y-106959580D01*
X111409523Y-106054819D02*
X110790476Y-106054819D01*
X110790476Y-106054819D02*
X111123809Y-106435771D01*
X111123809Y-106435771D02*
X110980952Y-106435771D01*
X110980952Y-106435771D02*
X110885714Y-106483390D01*
X110885714Y-106483390D02*
X110838095Y-106531009D01*
X110838095Y-106531009D02*
X110790476Y-106626247D01*
X110790476Y-106626247D02*
X110790476Y-106864342D01*
X110790476Y-106864342D02*
X110838095Y-106959580D01*
X110838095Y-106959580D02*
X110885714Y-107007200D01*
X110885714Y-107007200D02*
X110980952Y-107054819D01*
X110980952Y-107054819D02*
X111266666Y-107054819D01*
X111266666Y-107054819D02*
X111361904Y-107007200D01*
X111361904Y-107007200D02*
X111409523Y-106959580D01*
X76409523Y-67507200D02*
X76266666Y-67554819D01*
X76266666Y-67554819D02*
X76028571Y-67554819D01*
X76028571Y-67554819D02*
X75933333Y-67507200D01*
X75933333Y-67507200D02*
X75885714Y-67459580D01*
X75885714Y-67459580D02*
X75838095Y-67364342D01*
X75838095Y-67364342D02*
X75838095Y-67269104D01*
X75838095Y-67269104D02*
X75885714Y-67173866D01*
X75885714Y-67173866D02*
X75933333Y-67126247D01*
X75933333Y-67126247D02*
X76028571Y-67078628D01*
X76028571Y-67078628D02*
X76219047Y-67031009D01*
X76219047Y-67031009D02*
X76314285Y-66983390D01*
X76314285Y-66983390D02*
X76361904Y-66935771D01*
X76361904Y-66935771D02*
X76409523Y-66840533D01*
X76409523Y-66840533D02*
X76409523Y-66745295D01*
X76409523Y-66745295D02*
X76361904Y-66650057D01*
X76361904Y-66650057D02*
X76314285Y-66602438D01*
X76314285Y-66602438D02*
X76219047Y-66554819D01*
X76219047Y-66554819D02*
X75980952Y-66554819D01*
X75980952Y-66554819D02*
X75838095Y-66602438D01*
X75504761Y-66554819D02*
X75266666Y-67554819D01*
X75266666Y-67554819D02*
X75076190Y-66840533D01*
X75076190Y-66840533D02*
X74885714Y-67554819D01*
X74885714Y-67554819D02*
X74647619Y-66554819D01*
X74076190Y-66554819D02*
X73980952Y-66554819D01*
X73980952Y-66554819D02*
X73885714Y-66602438D01*
X73885714Y-66602438D02*
X73838095Y-66650057D01*
X73838095Y-66650057D02*
X73790476Y-66745295D01*
X73790476Y-66745295D02*
X73742857Y-66935771D01*
X73742857Y-66935771D02*
X73742857Y-67173866D01*
X73742857Y-67173866D02*
X73790476Y-67364342D01*
X73790476Y-67364342D02*
X73838095Y-67459580D01*
X73838095Y-67459580D02*
X73885714Y-67507200D01*
X73885714Y-67507200D02*
X73980952Y-67554819D01*
X73980952Y-67554819D02*
X74076190Y-67554819D01*
X74076190Y-67554819D02*
X74171428Y-67507200D01*
X74171428Y-67507200D02*
X74219047Y-67459580D01*
X74219047Y-67459580D02*
X74266666Y-67364342D01*
X74266666Y-67364342D02*
X74314285Y-67173866D01*
X74314285Y-67173866D02*
X74314285Y-66935771D01*
X74314285Y-66935771D02*
X74266666Y-66745295D01*
X74266666Y-66745295D02*
X74219047Y-66650057D01*
X74219047Y-66650057D02*
X74171428Y-66602438D01*
X74171428Y-66602438D02*
X74076190Y-66554819D01*
X72790476Y-67554819D02*
X73361904Y-67554819D01*
X73076190Y-67554819D02*
X73076190Y-66554819D01*
X73076190Y-66554819D02*
X73171428Y-66697676D01*
X73171428Y-66697676D02*
X73266666Y-66792914D01*
X73266666Y-66792914D02*
X73361904Y-66840533D01*
X152409523Y-112007200D02*
X152266666Y-112054819D01*
X152266666Y-112054819D02*
X152028571Y-112054819D01*
X152028571Y-112054819D02*
X151933333Y-112007200D01*
X151933333Y-112007200D02*
X151885714Y-111959580D01*
X151885714Y-111959580D02*
X151838095Y-111864342D01*
X151838095Y-111864342D02*
X151838095Y-111769104D01*
X151838095Y-111769104D02*
X151885714Y-111673866D01*
X151885714Y-111673866D02*
X151933333Y-111626247D01*
X151933333Y-111626247D02*
X152028571Y-111578628D01*
X152028571Y-111578628D02*
X152219047Y-111531009D01*
X152219047Y-111531009D02*
X152314285Y-111483390D01*
X152314285Y-111483390D02*
X152361904Y-111435771D01*
X152361904Y-111435771D02*
X152409523Y-111340533D01*
X152409523Y-111340533D02*
X152409523Y-111245295D01*
X152409523Y-111245295D02*
X152361904Y-111150057D01*
X152361904Y-111150057D02*
X152314285Y-111102438D01*
X152314285Y-111102438D02*
X152219047Y-111054819D01*
X152219047Y-111054819D02*
X151980952Y-111054819D01*
X151980952Y-111054819D02*
X151838095Y-111102438D01*
X151504761Y-111054819D02*
X151266666Y-112054819D01*
X151266666Y-112054819D02*
X151076190Y-111340533D01*
X151076190Y-111340533D02*
X150885714Y-112054819D01*
X150885714Y-112054819D02*
X150647619Y-111054819D01*
X150361904Y-111054819D02*
X149742857Y-111054819D01*
X149742857Y-111054819D02*
X150076190Y-111435771D01*
X150076190Y-111435771D02*
X149933333Y-111435771D01*
X149933333Y-111435771D02*
X149838095Y-111483390D01*
X149838095Y-111483390D02*
X149790476Y-111531009D01*
X149790476Y-111531009D02*
X149742857Y-111626247D01*
X149742857Y-111626247D02*
X149742857Y-111864342D01*
X149742857Y-111864342D02*
X149790476Y-111959580D01*
X149790476Y-111959580D02*
X149838095Y-112007200D01*
X149838095Y-112007200D02*
X149933333Y-112054819D01*
X149933333Y-112054819D02*
X150219047Y-112054819D01*
X150219047Y-112054819D02*
X150314285Y-112007200D01*
X150314285Y-112007200D02*
X150361904Y-111959580D01*
X148838095Y-111054819D02*
X149314285Y-111054819D01*
X149314285Y-111054819D02*
X149361904Y-111531009D01*
X149361904Y-111531009D02*
X149314285Y-111483390D01*
X149314285Y-111483390D02*
X149219047Y-111435771D01*
X149219047Y-111435771D02*
X148980952Y-111435771D01*
X148980952Y-111435771D02*
X148885714Y-111483390D01*
X148885714Y-111483390D02*
X148838095Y-111531009D01*
X148838095Y-111531009D02*
X148790476Y-111626247D01*
X148790476Y-111626247D02*
X148790476Y-111864342D01*
X148790476Y-111864342D02*
X148838095Y-111959580D01*
X148838095Y-111959580D02*
X148885714Y-112007200D01*
X148885714Y-112007200D02*
X148980952Y-112054819D01*
X148980952Y-112054819D02*
X149219047Y-112054819D01*
X149219047Y-112054819D02*
X149314285Y-112007200D01*
X149314285Y-112007200D02*
X149361904Y-111959580D01*
X114409523Y-90007200D02*
X114266666Y-90054819D01*
X114266666Y-90054819D02*
X114028571Y-90054819D01*
X114028571Y-90054819D02*
X113933333Y-90007200D01*
X113933333Y-90007200D02*
X113885714Y-89959580D01*
X113885714Y-89959580D02*
X113838095Y-89864342D01*
X113838095Y-89864342D02*
X113838095Y-89769104D01*
X113838095Y-89769104D02*
X113885714Y-89673866D01*
X113885714Y-89673866D02*
X113933333Y-89626247D01*
X113933333Y-89626247D02*
X114028571Y-89578628D01*
X114028571Y-89578628D02*
X114219047Y-89531009D01*
X114219047Y-89531009D02*
X114314285Y-89483390D01*
X114314285Y-89483390D02*
X114361904Y-89435771D01*
X114361904Y-89435771D02*
X114409523Y-89340533D01*
X114409523Y-89340533D02*
X114409523Y-89245295D01*
X114409523Y-89245295D02*
X114361904Y-89150057D01*
X114361904Y-89150057D02*
X114314285Y-89102438D01*
X114314285Y-89102438D02*
X114219047Y-89054819D01*
X114219047Y-89054819D02*
X113980952Y-89054819D01*
X113980952Y-89054819D02*
X113838095Y-89102438D01*
X113504761Y-89054819D02*
X113266666Y-90054819D01*
X113266666Y-90054819D02*
X113076190Y-89340533D01*
X113076190Y-89340533D02*
X112885714Y-90054819D01*
X112885714Y-90054819D02*
X112647619Y-89054819D01*
X112314285Y-89150057D02*
X112266666Y-89102438D01*
X112266666Y-89102438D02*
X112171428Y-89054819D01*
X112171428Y-89054819D02*
X111933333Y-89054819D01*
X111933333Y-89054819D02*
X111838095Y-89102438D01*
X111838095Y-89102438D02*
X111790476Y-89150057D01*
X111790476Y-89150057D02*
X111742857Y-89245295D01*
X111742857Y-89245295D02*
X111742857Y-89340533D01*
X111742857Y-89340533D02*
X111790476Y-89483390D01*
X111790476Y-89483390D02*
X112361904Y-90054819D01*
X112361904Y-90054819D02*
X111742857Y-90054819D01*
X111409523Y-89054819D02*
X110790476Y-89054819D01*
X110790476Y-89054819D02*
X111123809Y-89435771D01*
X111123809Y-89435771D02*
X110980952Y-89435771D01*
X110980952Y-89435771D02*
X110885714Y-89483390D01*
X110885714Y-89483390D02*
X110838095Y-89531009D01*
X110838095Y-89531009D02*
X110790476Y-89626247D01*
X110790476Y-89626247D02*
X110790476Y-89864342D01*
X110790476Y-89864342D02*
X110838095Y-89959580D01*
X110838095Y-89959580D02*
X110885714Y-90007200D01*
X110885714Y-90007200D02*
X110980952Y-90054819D01*
X110980952Y-90054819D02*
X111266666Y-90054819D01*
X111266666Y-90054819D02*
X111361904Y-90007200D01*
X111361904Y-90007200D02*
X111409523Y-89959580D01*
X133409523Y-75507200D02*
X133266666Y-75554819D01*
X133266666Y-75554819D02*
X133028571Y-75554819D01*
X133028571Y-75554819D02*
X132933333Y-75507200D01*
X132933333Y-75507200D02*
X132885714Y-75459580D01*
X132885714Y-75459580D02*
X132838095Y-75364342D01*
X132838095Y-75364342D02*
X132838095Y-75269104D01*
X132838095Y-75269104D02*
X132885714Y-75173866D01*
X132885714Y-75173866D02*
X132933333Y-75126247D01*
X132933333Y-75126247D02*
X133028571Y-75078628D01*
X133028571Y-75078628D02*
X133219047Y-75031009D01*
X133219047Y-75031009D02*
X133314285Y-74983390D01*
X133314285Y-74983390D02*
X133361904Y-74935771D01*
X133361904Y-74935771D02*
X133409523Y-74840533D01*
X133409523Y-74840533D02*
X133409523Y-74745295D01*
X133409523Y-74745295D02*
X133361904Y-74650057D01*
X133361904Y-74650057D02*
X133314285Y-74602438D01*
X133314285Y-74602438D02*
X133219047Y-74554819D01*
X133219047Y-74554819D02*
X132980952Y-74554819D01*
X132980952Y-74554819D02*
X132838095Y-74602438D01*
X132504761Y-74554819D02*
X132266666Y-75554819D01*
X132266666Y-75554819D02*
X132076190Y-74840533D01*
X132076190Y-74840533D02*
X131885714Y-75554819D01*
X131885714Y-75554819D02*
X131647619Y-74554819D01*
X130742857Y-75554819D02*
X131314285Y-75554819D01*
X131028571Y-75554819D02*
X131028571Y-74554819D01*
X131028571Y-74554819D02*
X131123809Y-74697676D01*
X131123809Y-74697676D02*
X131219047Y-74792914D01*
X131219047Y-74792914D02*
X131314285Y-74840533D01*
X129885714Y-74888152D02*
X129885714Y-75554819D01*
X130123809Y-74507200D02*
X130361904Y-75221485D01*
X130361904Y-75221485D02*
X129742857Y-75221485D01*
X57409523Y-118507200D02*
X57266666Y-118554819D01*
X57266666Y-118554819D02*
X57028571Y-118554819D01*
X57028571Y-118554819D02*
X56933333Y-118507200D01*
X56933333Y-118507200D02*
X56885714Y-118459580D01*
X56885714Y-118459580D02*
X56838095Y-118364342D01*
X56838095Y-118364342D02*
X56838095Y-118269104D01*
X56838095Y-118269104D02*
X56885714Y-118173866D01*
X56885714Y-118173866D02*
X56933333Y-118126247D01*
X56933333Y-118126247D02*
X57028571Y-118078628D01*
X57028571Y-118078628D02*
X57219047Y-118031009D01*
X57219047Y-118031009D02*
X57314285Y-117983390D01*
X57314285Y-117983390D02*
X57361904Y-117935771D01*
X57361904Y-117935771D02*
X57409523Y-117840533D01*
X57409523Y-117840533D02*
X57409523Y-117745295D01*
X57409523Y-117745295D02*
X57361904Y-117650057D01*
X57361904Y-117650057D02*
X57314285Y-117602438D01*
X57314285Y-117602438D02*
X57219047Y-117554819D01*
X57219047Y-117554819D02*
X56980952Y-117554819D01*
X56980952Y-117554819D02*
X56838095Y-117602438D01*
X56504761Y-117554819D02*
X56266666Y-118554819D01*
X56266666Y-118554819D02*
X56076190Y-117840533D01*
X56076190Y-117840533D02*
X55885714Y-118554819D01*
X55885714Y-118554819D02*
X55647619Y-117554819D01*
X55361904Y-117554819D02*
X54742857Y-117554819D01*
X54742857Y-117554819D02*
X55076190Y-117935771D01*
X55076190Y-117935771D02*
X54933333Y-117935771D01*
X54933333Y-117935771D02*
X54838095Y-117983390D01*
X54838095Y-117983390D02*
X54790476Y-118031009D01*
X54790476Y-118031009D02*
X54742857Y-118126247D01*
X54742857Y-118126247D02*
X54742857Y-118364342D01*
X54742857Y-118364342D02*
X54790476Y-118459580D01*
X54790476Y-118459580D02*
X54838095Y-118507200D01*
X54838095Y-118507200D02*
X54933333Y-118554819D01*
X54933333Y-118554819D02*
X55219047Y-118554819D01*
X55219047Y-118554819D02*
X55314285Y-118507200D01*
X55314285Y-118507200D02*
X55361904Y-118459580D01*
X54123809Y-117554819D02*
X54028571Y-117554819D01*
X54028571Y-117554819D02*
X53933333Y-117602438D01*
X53933333Y-117602438D02*
X53885714Y-117650057D01*
X53885714Y-117650057D02*
X53838095Y-117745295D01*
X53838095Y-117745295D02*
X53790476Y-117935771D01*
X53790476Y-117935771D02*
X53790476Y-118173866D01*
X53790476Y-118173866D02*
X53838095Y-118364342D01*
X53838095Y-118364342D02*
X53885714Y-118459580D01*
X53885714Y-118459580D02*
X53933333Y-118507200D01*
X53933333Y-118507200D02*
X54028571Y-118554819D01*
X54028571Y-118554819D02*
X54123809Y-118554819D01*
X54123809Y-118554819D02*
X54219047Y-118507200D01*
X54219047Y-118507200D02*
X54266666Y-118459580D01*
X54266666Y-118459580D02*
X54314285Y-118364342D01*
X54314285Y-118364342D02*
X54361904Y-118173866D01*
X54361904Y-118173866D02*
X54361904Y-117935771D01*
X54361904Y-117935771D02*
X54314285Y-117745295D01*
X54314285Y-117745295D02*
X54266666Y-117650057D01*
X54266666Y-117650057D02*
X54219047Y-117602438D01*
X54219047Y-117602438D02*
X54123809Y-117554819D01*
X57409523Y-101507200D02*
X57266666Y-101554819D01*
X57266666Y-101554819D02*
X57028571Y-101554819D01*
X57028571Y-101554819D02*
X56933333Y-101507200D01*
X56933333Y-101507200D02*
X56885714Y-101459580D01*
X56885714Y-101459580D02*
X56838095Y-101364342D01*
X56838095Y-101364342D02*
X56838095Y-101269104D01*
X56838095Y-101269104D02*
X56885714Y-101173866D01*
X56885714Y-101173866D02*
X56933333Y-101126247D01*
X56933333Y-101126247D02*
X57028571Y-101078628D01*
X57028571Y-101078628D02*
X57219047Y-101031009D01*
X57219047Y-101031009D02*
X57314285Y-100983390D01*
X57314285Y-100983390D02*
X57361904Y-100935771D01*
X57361904Y-100935771D02*
X57409523Y-100840533D01*
X57409523Y-100840533D02*
X57409523Y-100745295D01*
X57409523Y-100745295D02*
X57361904Y-100650057D01*
X57361904Y-100650057D02*
X57314285Y-100602438D01*
X57314285Y-100602438D02*
X57219047Y-100554819D01*
X57219047Y-100554819D02*
X56980952Y-100554819D01*
X56980952Y-100554819D02*
X56838095Y-100602438D01*
X56504761Y-100554819D02*
X56266666Y-101554819D01*
X56266666Y-101554819D02*
X56076190Y-100840533D01*
X56076190Y-100840533D02*
X55885714Y-101554819D01*
X55885714Y-101554819D02*
X55647619Y-100554819D01*
X55314285Y-100650057D02*
X55266666Y-100602438D01*
X55266666Y-100602438D02*
X55171428Y-100554819D01*
X55171428Y-100554819D02*
X54933333Y-100554819D01*
X54933333Y-100554819D02*
X54838095Y-100602438D01*
X54838095Y-100602438D02*
X54790476Y-100650057D01*
X54790476Y-100650057D02*
X54742857Y-100745295D01*
X54742857Y-100745295D02*
X54742857Y-100840533D01*
X54742857Y-100840533D02*
X54790476Y-100983390D01*
X54790476Y-100983390D02*
X55361904Y-101554819D01*
X55361904Y-101554819D02*
X54742857Y-101554819D01*
X54123809Y-100554819D02*
X54028571Y-100554819D01*
X54028571Y-100554819D02*
X53933333Y-100602438D01*
X53933333Y-100602438D02*
X53885714Y-100650057D01*
X53885714Y-100650057D02*
X53838095Y-100745295D01*
X53838095Y-100745295D02*
X53790476Y-100935771D01*
X53790476Y-100935771D02*
X53790476Y-101173866D01*
X53790476Y-101173866D02*
X53838095Y-101364342D01*
X53838095Y-101364342D02*
X53885714Y-101459580D01*
X53885714Y-101459580D02*
X53933333Y-101507200D01*
X53933333Y-101507200D02*
X54028571Y-101554819D01*
X54028571Y-101554819D02*
X54123809Y-101554819D01*
X54123809Y-101554819D02*
X54219047Y-101507200D01*
X54219047Y-101507200D02*
X54266666Y-101459580D01*
X54266666Y-101459580D02*
X54314285Y-101364342D01*
X54314285Y-101364342D02*
X54361904Y-101173866D01*
X54361904Y-101173866D02*
X54361904Y-100935771D01*
X54361904Y-100935771D02*
X54314285Y-100745295D01*
X54314285Y-100745295D02*
X54266666Y-100650057D01*
X54266666Y-100650057D02*
X54219047Y-100602438D01*
X54219047Y-100602438D02*
X54123809Y-100554819D01*
X76409523Y-118507200D02*
X76266666Y-118554819D01*
X76266666Y-118554819D02*
X76028571Y-118554819D01*
X76028571Y-118554819D02*
X75933333Y-118507200D01*
X75933333Y-118507200D02*
X75885714Y-118459580D01*
X75885714Y-118459580D02*
X75838095Y-118364342D01*
X75838095Y-118364342D02*
X75838095Y-118269104D01*
X75838095Y-118269104D02*
X75885714Y-118173866D01*
X75885714Y-118173866D02*
X75933333Y-118126247D01*
X75933333Y-118126247D02*
X76028571Y-118078628D01*
X76028571Y-118078628D02*
X76219047Y-118031009D01*
X76219047Y-118031009D02*
X76314285Y-117983390D01*
X76314285Y-117983390D02*
X76361904Y-117935771D01*
X76361904Y-117935771D02*
X76409523Y-117840533D01*
X76409523Y-117840533D02*
X76409523Y-117745295D01*
X76409523Y-117745295D02*
X76361904Y-117650057D01*
X76361904Y-117650057D02*
X76314285Y-117602438D01*
X76314285Y-117602438D02*
X76219047Y-117554819D01*
X76219047Y-117554819D02*
X75980952Y-117554819D01*
X75980952Y-117554819D02*
X75838095Y-117602438D01*
X75504761Y-117554819D02*
X75266666Y-118554819D01*
X75266666Y-118554819D02*
X75076190Y-117840533D01*
X75076190Y-117840533D02*
X74885714Y-118554819D01*
X74885714Y-118554819D02*
X74647619Y-117554819D01*
X74361904Y-117554819D02*
X73742857Y-117554819D01*
X73742857Y-117554819D02*
X74076190Y-117935771D01*
X74076190Y-117935771D02*
X73933333Y-117935771D01*
X73933333Y-117935771D02*
X73838095Y-117983390D01*
X73838095Y-117983390D02*
X73790476Y-118031009D01*
X73790476Y-118031009D02*
X73742857Y-118126247D01*
X73742857Y-118126247D02*
X73742857Y-118364342D01*
X73742857Y-118364342D02*
X73790476Y-118459580D01*
X73790476Y-118459580D02*
X73838095Y-118507200D01*
X73838095Y-118507200D02*
X73933333Y-118554819D01*
X73933333Y-118554819D02*
X74219047Y-118554819D01*
X74219047Y-118554819D02*
X74314285Y-118507200D01*
X74314285Y-118507200D02*
X74361904Y-118459580D01*
X72790476Y-118554819D02*
X73361904Y-118554819D01*
X73076190Y-118554819D02*
X73076190Y-117554819D01*
X73076190Y-117554819D02*
X73171428Y-117697676D01*
X73171428Y-117697676D02*
X73266666Y-117792914D01*
X73266666Y-117792914D02*
X73361904Y-117840533D01*
X95409523Y-58507200D02*
X95266666Y-58554819D01*
X95266666Y-58554819D02*
X95028571Y-58554819D01*
X95028571Y-58554819D02*
X94933333Y-58507200D01*
X94933333Y-58507200D02*
X94885714Y-58459580D01*
X94885714Y-58459580D02*
X94838095Y-58364342D01*
X94838095Y-58364342D02*
X94838095Y-58269104D01*
X94838095Y-58269104D02*
X94885714Y-58173866D01*
X94885714Y-58173866D02*
X94933333Y-58126247D01*
X94933333Y-58126247D02*
X95028571Y-58078628D01*
X95028571Y-58078628D02*
X95219047Y-58031009D01*
X95219047Y-58031009D02*
X95314285Y-57983390D01*
X95314285Y-57983390D02*
X95361904Y-57935771D01*
X95361904Y-57935771D02*
X95409523Y-57840533D01*
X95409523Y-57840533D02*
X95409523Y-57745295D01*
X95409523Y-57745295D02*
X95361904Y-57650057D01*
X95361904Y-57650057D02*
X95314285Y-57602438D01*
X95314285Y-57602438D02*
X95219047Y-57554819D01*
X95219047Y-57554819D02*
X94980952Y-57554819D01*
X94980952Y-57554819D02*
X94838095Y-57602438D01*
X94504761Y-57554819D02*
X94266666Y-58554819D01*
X94266666Y-58554819D02*
X94076190Y-57840533D01*
X94076190Y-57840533D02*
X93885714Y-58554819D01*
X93885714Y-58554819D02*
X93647619Y-57554819D01*
X93076190Y-57554819D02*
X92980952Y-57554819D01*
X92980952Y-57554819D02*
X92885714Y-57602438D01*
X92885714Y-57602438D02*
X92838095Y-57650057D01*
X92838095Y-57650057D02*
X92790476Y-57745295D01*
X92790476Y-57745295D02*
X92742857Y-57935771D01*
X92742857Y-57935771D02*
X92742857Y-58173866D01*
X92742857Y-58173866D02*
X92790476Y-58364342D01*
X92790476Y-58364342D02*
X92838095Y-58459580D01*
X92838095Y-58459580D02*
X92885714Y-58507200D01*
X92885714Y-58507200D02*
X92980952Y-58554819D01*
X92980952Y-58554819D02*
X93076190Y-58554819D01*
X93076190Y-58554819D02*
X93171428Y-58507200D01*
X93171428Y-58507200D02*
X93219047Y-58459580D01*
X93219047Y-58459580D02*
X93266666Y-58364342D01*
X93266666Y-58364342D02*
X93314285Y-58173866D01*
X93314285Y-58173866D02*
X93314285Y-57935771D01*
X93314285Y-57935771D02*
X93266666Y-57745295D01*
X93266666Y-57745295D02*
X93219047Y-57650057D01*
X93219047Y-57650057D02*
X93171428Y-57602438D01*
X93171428Y-57602438D02*
X93076190Y-57554819D01*
X92361904Y-57650057D02*
X92314285Y-57602438D01*
X92314285Y-57602438D02*
X92219047Y-57554819D01*
X92219047Y-57554819D02*
X91980952Y-57554819D01*
X91980952Y-57554819D02*
X91885714Y-57602438D01*
X91885714Y-57602438D02*
X91838095Y-57650057D01*
X91838095Y-57650057D02*
X91790476Y-57745295D01*
X91790476Y-57745295D02*
X91790476Y-57840533D01*
X91790476Y-57840533D02*
X91838095Y-57983390D01*
X91838095Y-57983390D02*
X92409523Y-58554819D01*
X92409523Y-58554819D02*
X91790476Y-58554819D01*
X152409523Y-95007200D02*
X152266666Y-95054819D01*
X152266666Y-95054819D02*
X152028571Y-95054819D01*
X152028571Y-95054819D02*
X151933333Y-95007200D01*
X151933333Y-95007200D02*
X151885714Y-94959580D01*
X151885714Y-94959580D02*
X151838095Y-94864342D01*
X151838095Y-94864342D02*
X151838095Y-94769104D01*
X151838095Y-94769104D02*
X151885714Y-94673866D01*
X151885714Y-94673866D02*
X151933333Y-94626247D01*
X151933333Y-94626247D02*
X152028571Y-94578628D01*
X152028571Y-94578628D02*
X152219047Y-94531009D01*
X152219047Y-94531009D02*
X152314285Y-94483390D01*
X152314285Y-94483390D02*
X152361904Y-94435771D01*
X152361904Y-94435771D02*
X152409523Y-94340533D01*
X152409523Y-94340533D02*
X152409523Y-94245295D01*
X152409523Y-94245295D02*
X152361904Y-94150057D01*
X152361904Y-94150057D02*
X152314285Y-94102438D01*
X152314285Y-94102438D02*
X152219047Y-94054819D01*
X152219047Y-94054819D02*
X151980952Y-94054819D01*
X151980952Y-94054819D02*
X151838095Y-94102438D01*
X151504761Y-94054819D02*
X151266666Y-95054819D01*
X151266666Y-95054819D02*
X151076190Y-94340533D01*
X151076190Y-94340533D02*
X150885714Y-95054819D01*
X150885714Y-95054819D02*
X150647619Y-94054819D01*
X150314285Y-94150057D02*
X150266666Y-94102438D01*
X150266666Y-94102438D02*
X150171428Y-94054819D01*
X150171428Y-94054819D02*
X149933333Y-94054819D01*
X149933333Y-94054819D02*
X149838095Y-94102438D01*
X149838095Y-94102438D02*
X149790476Y-94150057D01*
X149790476Y-94150057D02*
X149742857Y-94245295D01*
X149742857Y-94245295D02*
X149742857Y-94340533D01*
X149742857Y-94340533D02*
X149790476Y-94483390D01*
X149790476Y-94483390D02*
X150361904Y-95054819D01*
X150361904Y-95054819D02*
X149742857Y-95054819D01*
X148838095Y-94054819D02*
X149314285Y-94054819D01*
X149314285Y-94054819D02*
X149361904Y-94531009D01*
X149361904Y-94531009D02*
X149314285Y-94483390D01*
X149314285Y-94483390D02*
X149219047Y-94435771D01*
X149219047Y-94435771D02*
X148980952Y-94435771D01*
X148980952Y-94435771D02*
X148885714Y-94483390D01*
X148885714Y-94483390D02*
X148838095Y-94531009D01*
X148838095Y-94531009D02*
X148790476Y-94626247D01*
X148790476Y-94626247D02*
X148790476Y-94864342D01*
X148790476Y-94864342D02*
X148838095Y-94959580D01*
X148838095Y-94959580D02*
X148885714Y-95007200D01*
X148885714Y-95007200D02*
X148980952Y-95054819D01*
X148980952Y-95054819D02*
X149219047Y-95054819D01*
X149219047Y-95054819D02*
X149314285Y-95007200D01*
X149314285Y-95007200D02*
X149361904Y-94959580D01*
X57409523Y-84507200D02*
X57266666Y-84554819D01*
X57266666Y-84554819D02*
X57028571Y-84554819D01*
X57028571Y-84554819D02*
X56933333Y-84507200D01*
X56933333Y-84507200D02*
X56885714Y-84459580D01*
X56885714Y-84459580D02*
X56838095Y-84364342D01*
X56838095Y-84364342D02*
X56838095Y-84269104D01*
X56838095Y-84269104D02*
X56885714Y-84173866D01*
X56885714Y-84173866D02*
X56933333Y-84126247D01*
X56933333Y-84126247D02*
X57028571Y-84078628D01*
X57028571Y-84078628D02*
X57219047Y-84031009D01*
X57219047Y-84031009D02*
X57314285Y-83983390D01*
X57314285Y-83983390D02*
X57361904Y-83935771D01*
X57361904Y-83935771D02*
X57409523Y-83840533D01*
X57409523Y-83840533D02*
X57409523Y-83745295D01*
X57409523Y-83745295D02*
X57361904Y-83650057D01*
X57361904Y-83650057D02*
X57314285Y-83602438D01*
X57314285Y-83602438D02*
X57219047Y-83554819D01*
X57219047Y-83554819D02*
X56980952Y-83554819D01*
X56980952Y-83554819D02*
X56838095Y-83602438D01*
X56504761Y-83554819D02*
X56266666Y-84554819D01*
X56266666Y-84554819D02*
X56076190Y-83840533D01*
X56076190Y-83840533D02*
X55885714Y-84554819D01*
X55885714Y-84554819D02*
X55647619Y-83554819D01*
X54742857Y-84554819D02*
X55314285Y-84554819D01*
X55028571Y-84554819D02*
X55028571Y-83554819D01*
X55028571Y-83554819D02*
X55123809Y-83697676D01*
X55123809Y-83697676D02*
X55219047Y-83792914D01*
X55219047Y-83792914D02*
X55314285Y-83840533D01*
X54123809Y-83554819D02*
X54028571Y-83554819D01*
X54028571Y-83554819D02*
X53933333Y-83602438D01*
X53933333Y-83602438D02*
X53885714Y-83650057D01*
X53885714Y-83650057D02*
X53838095Y-83745295D01*
X53838095Y-83745295D02*
X53790476Y-83935771D01*
X53790476Y-83935771D02*
X53790476Y-84173866D01*
X53790476Y-84173866D02*
X53838095Y-84364342D01*
X53838095Y-84364342D02*
X53885714Y-84459580D01*
X53885714Y-84459580D02*
X53933333Y-84507200D01*
X53933333Y-84507200D02*
X54028571Y-84554819D01*
X54028571Y-84554819D02*
X54123809Y-84554819D01*
X54123809Y-84554819D02*
X54219047Y-84507200D01*
X54219047Y-84507200D02*
X54266666Y-84459580D01*
X54266666Y-84459580D02*
X54314285Y-84364342D01*
X54314285Y-84364342D02*
X54361904Y-84173866D01*
X54361904Y-84173866D02*
X54361904Y-83935771D01*
X54361904Y-83935771D02*
X54314285Y-83745295D01*
X54314285Y-83745295D02*
X54266666Y-83650057D01*
X54266666Y-83650057D02*
X54219047Y-83602438D01*
X54219047Y-83602438D02*
X54123809Y-83554819D01*
X76409523Y-84507200D02*
X76266666Y-84554819D01*
X76266666Y-84554819D02*
X76028571Y-84554819D01*
X76028571Y-84554819D02*
X75933333Y-84507200D01*
X75933333Y-84507200D02*
X75885714Y-84459580D01*
X75885714Y-84459580D02*
X75838095Y-84364342D01*
X75838095Y-84364342D02*
X75838095Y-84269104D01*
X75838095Y-84269104D02*
X75885714Y-84173866D01*
X75885714Y-84173866D02*
X75933333Y-84126247D01*
X75933333Y-84126247D02*
X76028571Y-84078628D01*
X76028571Y-84078628D02*
X76219047Y-84031009D01*
X76219047Y-84031009D02*
X76314285Y-83983390D01*
X76314285Y-83983390D02*
X76361904Y-83935771D01*
X76361904Y-83935771D02*
X76409523Y-83840533D01*
X76409523Y-83840533D02*
X76409523Y-83745295D01*
X76409523Y-83745295D02*
X76361904Y-83650057D01*
X76361904Y-83650057D02*
X76314285Y-83602438D01*
X76314285Y-83602438D02*
X76219047Y-83554819D01*
X76219047Y-83554819D02*
X75980952Y-83554819D01*
X75980952Y-83554819D02*
X75838095Y-83602438D01*
X75504761Y-83554819D02*
X75266666Y-84554819D01*
X75266666Y-84554819D02*
X75076190Y-83840533D01*
X75076190Y-83840533D02*
X74885714Y-84554819D01*
X74885714Y-84554819D02*
X74647619Y-83554819D01*
X73742857Y-84554819D02*
X74314285Y-84554819D01*
X74028571Y-84554819D02*
X74028571Y-83554819D01*
X74028571Y-83554819D02*
X74123809Y-83697676D01*
X74123809Y-83697676D02*
X74219047Y-83792914D01*
X74219047Y-83792914D02*
X74314285Y-83840533D01*
X72790476Y-84554819D02*
X73361904Y-84554819D01*
X73076190Y-84554819D02*
X73076190Y-83554819D01*
X73076190Y-83554819D02*
X73171428Y-83697676D01*
X73171428Y-83697676D02*
X73266666Y-83792914D01*
X73266666Y-83792914D02*
X73361904Y-83840533D01*
X95409523Y-75507200D02*
X95266666Y-75554819D01*
X95266666Y-75554819D02*
X95028571Y-75554819D01*
X95028571Y-75554819D02*
X94933333Y-75507200D01*
X94933333Y-75507200D02*
X94885714Y-75459580D01*
X94885714Y-75459580D02*
X94838095Y-75364342D01*
X94838095Y-75364342D02*
X94838095Y-75269104D01*
X94838095Y-75269104D02*
X94885714Y-75173866D01*
X94885714Y-75173866D02*
X94933333Y-75126247D01*
X94933333Y-75126247D02*
X95028571Y-75078628D01*
X95028571Y-75078628D02*
X95219047Y-75031009D01*
X95219047Y-75031009D02*
X95314285Y-74983390D01*
X95314285Y-74983390D02*
X95361904Y-74935771D01*
X95361904Y-74935771D02*
X95409523Y-74840533D01*
X95409523Y-74840533D02*
X95409523Y-74745295D01*
X95409523Y-74745295D02*
X95361904Y-74650057D01*
X95361904Y-74650057D02*
X95314285Y-74602438D01*
X95314285Y-74602438D02*
X95219047Y-74554819D01*
X95219047Y-74554819D02*
X94980952Y-74554819D01*
X94980952Y-74554819D02*
X94838095Y-74602438D01*
X94504761Y-74554819D02*
X94266666Y-75554819D01*
X94266666Y-75554819D02*
X94076190Y-74840533D01*
X94076190Y-74840533D02*
X93885714Y-75554819D01*
X93885714Y-75554819D02*
X93647619Y-74554819D01*
X92742857Y-75554819D02*
X93314285Y-75554819D01*
X93028571Y-75554819D02*
X93028571Y-74554819D01*
X93028571Y-74554819D02*
X93123809Y-74697676D01*
X93123809Y-74697676D02*
X93219047Y-74792914D01*
X93219047Y-74792914D02*
X93314285Y-74840533D01*
X92361904Y-74650057D02*
X92314285Y-74602438D01*
X92314285Y-74602438D02*
X92219047Y-74554819D01*
X92219047Y-74554819D02*
X91980952Y-74554819D01*
X91980952Y-74554819D02*
X91885714Y-74602438D01*
X91885714Y-74602438D02*
X91838095Y-74650057D01*
X91838095Y-74650057D02*
X91790476Y-74745295D01*
X91790476Y-74745295D02*
X91790476Y-74840533D01*
X91790476Y-74840533D02*
X91838095Y-74983390D01*
X91838095Y-74983390D02*
X92409523Y-75554819D01*
X92409523Y-75554819D02*
X91790476Y-75554819D01*
X57409523Y-67507200D02*
X57266666Y-67554819D01*
X57266666Y-67554819D02*
X57028571Y-67554819D01*
X57028571Y-67554819D02*
X56933333Y-67507200D01*
X56933333Y-67507200D02*
X56885714Y-67459580D01*
X56885714Y-67459580D02*
X56838095Y-67364342D01*
X56838095Y-67364342D02*
X56838095Y-67269104D01*
X56838095Y-67269104D02*
X56885714Y-67173866D01*
X56885714Y-67173866D02*
X56933333Y-67126247D01*
X56933333Y-67126247D02*
X57028571Y-67078628D01*
X57028571Y-67078628D02*
X57219047Y-67031009D01*
X57219047Y-67031009D02*
X57314285Y-66983390D01*
X57314285Y-66983390D02*
X57361904Y-66935771D01*
X57361904Y-66935771D02*
X57409523Y-66840533D01*
X57409523Y-66840533D02*
X57409523Y-66745295D01*
X57409523Y-66745295D02*
X57361904Y-66650057D01*
X57361904Y-66650057D02*
X57314285Y-66602438D01*
X57314285Y-66602438D02*
X57219047Y-66554819D01*
X57219047Y-66554819D02*
X56980952Y-66554819D01*
X56980952Y-66554819D02*
X56838095Y-66602438D01*
X56504761Y-66554819D02*
X56266666Y-67554819D01*
X56266666Y-67554819D02*
X56076190Y-66840533D01*
X56076190Y-66840533D02*
X55885714Y-67554819D01*
X55885714Y-67554819D02*
X55647619Y-66554819D01*
X55076190Y-66554819D02*
X54980952Y-66554819D01*
X54980952Y-66554819D02*
X54885714Y-66602438D01*
X54885714Y-66602438D02*
X54838095Y-66650057D01*
X54838095Y-66650057D02*
X54790476Y-66745295D01*
X54790476Y-66745295D02*
X54742857Y-66935771D01*
X54742857Y-66935771D02*
X54742857Y-67173866D01*
X54742857Y-67173866D02*
X54790476Y-67364342D01*
X54790476Y-67364342D02*
X54838095Y-67459580D01*
X54838095Y-67459580D02*
X54885714Y-67507200D01*
X54885714Y-67507200D02*
X54980952Y-67554819D01*
X54980952Y-67554819D02*
X55076190Y-67554819D01*
X55076190Y-67554819D02*
X55171428Y-67507200D01*
X55171428Y-67507200D02*
X55219047Y-67459580D01*
X55219047Y-67459580D02*
X55266666Y-67364342D01*
X55266666Y-67364342D02*
X55314285Y-67173866D01*
X55314285Y-67173866D02*
X55314285Y-66935771D01*
X55314285Y-66935771D02*
X55266666Y-66745295D01*
X55266666Y-66745295D02*
X55219047Y-66650057D01*
X55219047Y-66650057D02*
X55171428Y-66602438D01*
X55171428Y-66602438D02*
X55076190Y-66554819D01*
X54123809Y-66554819D02*
X54028571Y-66554819D01*
X54028571Y-66554819D02*
X53933333Y-66602438D01*
X53933333Y-66602438D02*
X53885714Y-66650057D01*
X53885714Y-66650057D02*
X53838095Y-66745295D01*
X53838095Y-66745295D02*
X53790476Y-66935771D01*
X53790476Y-66935771D02*
X53790476Y-67173866D01*
X53790476Y-67173866D02*
X53838095Y-67364342D01*
X53838095Y-67364342D02*
X53885714Y-67459580D01*
X53885714Y-67459580D02*
X53933333Y-67507200D01*
X53933333Y-67507200D02*
X54028571Y-67554819D01*
X54028571Y-67554819D02*
X54123809Y-67554819D01*
X54123809Y-67554819D02*
X54219047Y-67507200D01*
X54219047Y-67507200D02*
X54266666Y-67459580D01*
X54266666Y-67459580D02*
X54314285Y-67364342D01*
X54314285Y-67364342D02*
X54361904Y-67173866D01*
X54361904Y-67173866D02*
X54361904Y-66935771D01*
X54361904Y-66935771D02*
X54314285Y-66745295D01*
X54314285Y-66745295D02*
X54266666Y-66650057D01*
X54266666Y-66650057D02*
X54219047Y-66602438D01*
X54219047Y-66602438D02*
X54123809Y-66554819D01*
X152409523Y-78007200D02*
X152266666Y-78054819D01*
X152266666Y-78054819D02*
X152028571Y-78054819D01*
X152028571Y-78054819D02*
X151933333Y-78007200D01*
X151933333Y-78007200D02*
X151885714Y-77959580D01*
X151885714Y-77959580D02*
X151838095Y-77864342D01*
X151838095Y-77864342D02*
X151838095Y-77769104D01*
X151838095Y-77769104D02*
X151885714Y-77673866D01*
X151885714Y-77673866D02*
X151933333Y-77626247D01*
X151933333Y-77626247D02*
X152028571Y-77578628D01*
X152028571Y-77578628D02*
X152219047Y-77531009D01*
X152219047Y-77531009D02*
X152314285Y-77483390D01*
X152314285Y-77483390D02*
X152361904Y-77435771D01*
X152361904Y-77435771D02*
X152409523Y-77340533D01*
X152409523Y-77340533D02*
X152409523Y-77245295D01*
X152409523Y-77245295D02*
X152361904Y-77150057D01*
X152361904Y-77150057D02*
X152314285Y-77102438D01*
X152314285Y-77102438D02*
X152219047Y-77054819D01*
X152219047Y-77054819D02*
X151980952Y-77054819D01*
X151980952Y-77054819D02*
X151838095Y-77102438D01*
X151504761Y-77054819D02*
X151266666Y-78054819D01*
X151266666Y-78054819D02*
X151076190Y-77340533D01*
X151076190Y-77340533D02*
X150885714Y-78054819D01*
X150885714Y-78054819D02*
X150647619Y-77054819D01*
X149742857Y-78054819D02*
X150314285Y-78054819D01*
X150028571Y-78054819D02*
X150028571Y-77054819D01*
X150028571Y-77054819D02*
X150123809Y-77197676D01*
X150123809Y-77197676D02*
X150219047Y-77292914D01*
X150219047Y-77292914D02*
X150314285Y-77340533D01*
X148838095Y-77054819D02*
X149314285Y-77054819D01*
X149314285Y-77054819D02*
X149361904Y-77531009D01*
X149361904Y-77531009D02*
X149314285Y-77483390D01*
X149314285Y-77483390D02*
X149219047Y-77435771D01*
X149219047Y-77435771D02*
X148980952Y-77435771D01*
X148980952Y-77435771D02*
X148885714Y-77483390D01*
X148885714Y-77483390D02*
X148838095Y-77531009D01*
X148838095Y-77531009D02*
X148790476Y-77626247D01*
X148790476Y-77626247D02*
X148790476Y-77864342D01*
X148790476Y-77864342D02*
X148838095Y-77959580D01*
X148838095Y-77959580D02*
X148885714Y-78007200D01*
X148885714Y-78007200D02*
X148980952Y-78054819D01*
X148980952Y-78054819D02*
X149219047Y-78054819D01*
X149219047Y-78054819D02*
X149314285Y-78007200D01*
X149314285Y-78007200D02*
X149361904Y-77959580D01*
X133409523Y-109507200D02*
X133266666Y-109554819D01*
X133266666Y-109554819D02*
X133028571Y-109554819D01*
X133028571Y-109554819D02*
X132933333Y-109507200D01*
X132933333Y-109507200D02*
X132885714Y-109459580D01*
X132885714Y-109459580D02*
X132838095Y-109364342D01*
X132838095Y-109364342D02*
X132838095Y-109269104D01*
X132838095Y-109269104D02*
X132885714Y-109173866D01*
X132885714Y-109173866D02*
X132933333Y-109126247D01*
X132933333Y-109126247D02*
X133028571Y-109078628D01*
X133028571Y-109078628D02*
X133219047Y-109031009D01*
X133219047Y-109031009D02*
X133314285Y-108983390D01*
X133314285Y-108983390D02*
X133361904Y-108935771D01*
X133361904Y-108935771D02*
X133409523Y-108840533D01*
X133409523Y-108840533D02*
X133409523Y-108745295D01*
X133409523Y-108745295D02*
X133361904Y-108650057D01*
X133361904Y-108650057D02*
X133314285Y-108602438D01*
X133314285Y-108602438D02*
X133219047Y-108554819D01*
X133219047Y-108554819D02*
X132980952Y-108554819D01*
X132980952Y-108554819D02*
X132838095Y-108602438D01*
X132504761Y-108554819D02*
X132266666Y-109554819D01*
X132266666Y-109554819D02*
X132076190Y-108840533D01*
X132076190Y-108840533D02*
X131885714Y-109554819D01*
X131885714Y-109554819D02*
X131647619Y-108554819D01*
X131361904Y-108554819D02*
X130742857Y-108554819D01*
X130742857Y-108554819D02*
X131076190Y-108935771D01*
X131076190Y-108935771D02*
X130933333Y-108935771D01*
X130933333Y-108935771D02*
X130838095Y-108983390D01*
X130838095Y-108983390D02*
X130790476Y-109031009D01*
X130790476Y-109031009D02*
X130742857Y-109126247D01*
X130742857Y-109126247D02*
X130742857Y-109364342D01*
X130742857Y-109364342D02*
X130790476Y-109459580D01*
X130790476Y-109459580D02*
X130838095Y-109507200D01*
X130838095Y-109507200D02*
X130933333Y-109554819D01*
X130933333Y-109554819D02*
X131219047Y-109554819D01*
X131219047Y-109554819D02*
X131314285Y-109507200D01*
X131314285Y-109507200D02*
X131361904Y-109459580D01*
X129885714Y-108888152D02*
X129885714Y-109554819D01*
X130123809Y-108507200D02*
X130361904Y-109221485D01*
X130361904Y-109221485D02*
X129742857Y-109221485D01*
X133409523Y-58507200D02*
X133266666Y-58554819D01*
X133266666Y-58554819D02*
X133028571Y-58554819D01*
X133028571Y-58554819D02*
X132933333Y-58507200D01*
X132933333Y-58507200D02*
X132885714Y-58459580D01*
X132885714Y-58459580D02*
X132838095Y-58364342D01*
X132838095Y-58364342D02*
X132838095Y-58269104D01*
X132838095Y-58269104D02*
X132885714Y-58173866D01*
X132885714Y-58173866D02*
X132933333Y-58126247D01*
X132933333Y-58126247D02*
X133028571Y-58078628D01*
X133028571Y-58078628D02*
X133219047Y-58031009D01*
X133219047Y-58031009D02*
X133314285Y-57983390D01*
X133314285Y-57983390D02*
X133361904Y-57935771D01*
X133361904Y-57935771D02*
X133409523Y-57840533D01*
X133409523Y-57840533D02*
X133409523Y-57745295D01*
X133409523Y-57745295D02*
X133361904Y-57650057D01*
X133361904Y-57650057D02*
X133314285Y-57602438D01*
X133314285Y-57602438D02*
X133219047Y-57554819D01*
X133219047Y-57554819D02*
X132980952Y-57554819D01*
X132980952Y-57554819D02*
X132838095Y-57602438D01*
X132504761Y-57554819D02*
X132266666Y-58554819D01*
X132266666Y-58554819D02*
X132076190Y-57840533D01*
X132076190Y-57840533D02*
X131885714Y-58554819D01*
X131885714Y-58554819D02*
X131647619Y-57554819D01*
X131076190Y-57554819D02*
X130980952Y-57554819D01*
X130980952Y-57554819D02*
X130885714Y-57602438D01*
X130885714Y-57602438D02*
X130838095Y-57650057D01*
X130838095Y-57650057D02*
X130790476Y-57745295D01*
X130790476Y-57745295D02*
X130742857Y-57935771D01*
X130742857Y-57935771D02*
X130742857Y-58173866D01*
X130742857Y-58173866D02*
X130790476Y-58364342D01*
X130790476Y-58364342D02*
X130838095Y-58459580D01*
X130838095Y-58459580D02*
X130885714Y-58507200D01*
X130885714Y-58507200D02*
X130980952Y-58554819D01*
X130980952Y-58554819D02*
X131076190Y-58554819D01*
X131076190Y-58554819D02*
X131171428Y-58507200D01*
X131171428Y-58507200D02*
X131219047Y-58459580D01*
X131219047Y-58459580D02*
X131266666Y-58364342D01*
X131266666Y-58364342D02*
X131314285Y-58173866D01*
X131314285Y-58173866D02*
X131314285Y-57935771D01*
X131314285Y-57935771D02*
X131266666Y-57745295D01*
X131266666Y-57745295D02*
X131219047Y-57650057D01*
X131219047Y-57650057D02*
X131171428Y-57602438D01*
X131171428Y-57602438D02*
X131076190Y-57554819D01*
X129885714Y-57888152D02*
X129885714Y-58554819D01*
X130123809Y-57507200D02*
X130361904Y-58221485D01*
X130361904Y-58221485D02*
X129742857Y-58221485D01*
X95409523Y-92507200D02*
X95266666Y-92554819D01*
X95266666Y-92554819D02*
X95028571Y-92554819D01*
X95028571Y-92554819D02*
X94933333Y-92507200D01*
X94933333Y-92507200D02*
X94885714Y-92459580D01*
X94885714Y-92459580D02*
X94838095Y-92364342D01*
X94838095Y-92364342D02*
X94838095Y-92269104D01*
X94838095Y-92269104D02*
X94885714Y-92173866D01*
X94885714Y-92173866D02*
X94933333Y-92126247D01*
X94933333Y-92126247D02*
X95028571Y-92078628D01*
X95028571Y-92078628D02*
X95219047Y-92031009D01*
X95219047Y-92031009D02*
X95314285Y-91983390D01*
X95314285Y-91983390D02*
X95361904Y-91935771D01*
X95361904Y-91935771D02*
X95409523Y-91840533D01*
X95409523Y-91840533D02*
X95409523Y-91745295D01*
X95409523Y-91745295D02*
X95361904Y-91650057D01*
X95361904Y-91650057D02*
X95314285Y-91602438D01*
X95314285Y-91602438D02*
X95219047Y-91554819D01*
X95219047Y-91554819D02*
X94980952Y-91554819D01*
X94980952Y-91554819D02*
X94838095Y-91602438D01*
X94504761Y-91554819D02*
X94266666Y-92554819D01*
X94266666Y-92554819D02*
X94076190Y-91840533D01*
X94076190Y-91840533D02*
X93885714Y-92554819D01*
X93885714Y-92554819D02*
X93647619Y-91554819D01*
X93314285Y-91650057D02*
X93266666Y-91602438D01*
X93266666Y-91602438D02*
X93171428Y-91554819D01*
X93171428Y-91554819D02*
X92933333Y-91554819D01*
X92933333Y-91554819D02*
X92838095Y-91602438D01*
X92838095Y-91602438D02*
X92790476Y-91650057D01*
X92790476Y-91650057D02*
X92742857Y-91745295D01*
X92742857Y-91745295D02*
X92742857Y-91840533D01*
X92742857Y-91840533D02*
X92790476Y-91983390D01*
X92790476Y-91983390D02*
X93361904Y-92554819D01*
X93361904Y-92554819D02*
X92742857Y-92554819D01*
X92361904Y-91650057D02*
X92314285Y-91602438D01*
X92314285Y-91602438D02*
X92219047Y-91554819D01*
X92219047Y-91554819D02*
X91980952Y-91554819D01*
X91980952Y-91554819D02*
X91885714Y-91602438D01*
X91885714Y-91602438D02*
X91838095Y-91650057D01*
X91838095Y-91650057D02*
X91790476Y-91745295D01*
X91790476Y-91745295D02*
X91790476Y-91840533D01*
X91790476Y-91840533D02*
X91838095Y-91983390D01*
X91838095Y-91983390D02*
X92409523Y-92554819D01*
X92409523Y-92554819D02*
X91790476Y-92554819D01*
X152409523Y-61007200D02*
X152266666Y-61054819D01*
X152266666Y-61054819D02*
X152028571Y-61054819D01*
X152028571Y-61054819D02*
X151933333Y-61007200D01*
X151933333Y-61007200D02*
X151885714Y-60959580D01*
X151885714Y-60959580D02*
X151838095Y-60864342D01*
X151838095Y-60864342D02*
X151838095Y-60769104D01*
X151838095Y-60769104D02*
X151885714Y-60673866D01*
X151885714Y-60673866D02*
X151933333Y-60626247D01*
X151933333Y-60626247D02*
X152028571Y-60578628D01*
X152028571Y-60578628D02*
X152219047Y-60531009D01*
X152219047Y-60531009D02*
X152314285Y-60483390D01*
X152314285Y-60483390D02*
X152361904Y-60435771D01*
X152361904Y-60435771D02*
X152409523Y-60340533D01*
X152409523Y-60340533D02*
X152409523Y-60245295D01*
X152409523Y-60245295D02*
X152361904Y-60150057D01*
X152361904Y-60150057D02*
X152314285Y-60102438D01*
X152314285Y-60102438D02*
X152219047Y-60054819D01*
X152219047Y-60054819D02*
X151980952Y-60054819D01*
X151980952Y-60054819D02*
X151838095Y-60102438D01*
X151504761Y-60054819D02*
X151266666Y-61054819D01*
X151266666Y-61054819D02*
X151076190Y-60340533D01*
X151076190Y-60340533D02*
X150885714Y-61054819D01*
X150885714Y-61054819D02*
X150647619Y-60054819D01*
X150076190Y-60054819D02*
X149980952Y-60054819D01*
X149980952Y-60054819D02*
X149885714Y-60102438D01*
X149885714Y-60102438D02*
X149838095Y-60150057D01*
X149838095Y-60150057D02*
X149790476Y-60245295D01*
X149790476Y-60245295D02*
X149742857Y-60435771D01*
X149742857Y-60435771D02*
X149742857Y-60673866D01*
X149742857Y-60673866D02*
X149790476Y-60864342D01*
X149790476Y-60864342D02*
X149838095Y-60959580D01*
X149838095Y-60959580D02*
X149885714Y-61007200D01*
X149885714Y-61007200D02*
X149980952Y-61054819D01*
X149980952Y-61054819D02*
X150076190Y-61054819D01*
X150076190Y-61054819D02*
X150171428Y-61007200D01*
X150171428Y-61007200D02*
X150219047Y-60959580D01*
X150219047Y-60959580D02*
X150266666Y-60864342D01*
X150266666Y-60864342D02*
X150314285Y-60673866D01*
X150314285Y-60673866D02*
X150314285Y-60435771D01*
X150314285Y-60435771D02*
X150266666Y-60245295D01*
X150266666Y-60245295D02*
X150219047Y-60150057D01*
X150219047Y-60150057D02*
X150171428Y-60102438D01*
X150171428Y-60102438D02*
X150076190Y-60054819D01*
X148838095Y-60054819D02*
X149314285Y-60054819D01*
X149314285Y-60054819D02*
X149361904Y-60531009D01*
X149361904Y-60531009D02*
X149314285Y-60483390D01*
X149314285Y-60483390D02*
X149219047Y-60435771D01*
X149219047Y-60435771D02*
X148980952Y-60435771D01*
X148980952Y-60435771D02*
X148885714Y-60483390D01*
X148885714Y-60483390D02*
X148838095Y-60531009D01*
X148838095Y-60531009D02*
X148790476Y-60626247D01*
X148790476Y-60626247D02*
X148790476Y-60864342D01*
X148790476Y-60864342D02*
X148838095Y-60959580D01*
X148838095Y-60959580D02*
X148885714Y-61007200D01*
X148885714Y-61007200D02*
X148980952Y-61054819D01*
X148980952Y-61054819D02*
X149219047Y-61054819D01*
X149219047Y-61054819D02*
X149314285Y-61007200D01*
X149314285Y-61007200D02*
X149361904Y-60959580D01*
X155006569Y-133981866D02*
X154856462Y-133969881D01*
X154856462Y-133969881D02*
X154637294Y-133876850D01*
X154637294Y-133876850D02*
X154568234Y-133795804D01*
X154568234Y-133795804D02*
X154543006Y-133733364D01*
X154543006Y-133733364D02*
X154536385Y-133627091D01*
X154536385Y-133627091D02*
X154573598Y-133539424D01*
X154573598Y-133539424D02*
X154654644Y-133470363D01*
X154654644Y-133470363D02*
X154717084Y-133445135D01*
X154717084Y-133445135D02*
X154823357Y-133438514D01*
X154823357Y-133438514D02*
X155017297Y-133469106D01*
X155017297Y-133469106D02*
X155123571Y-133462485D01*
X155123571Y-133462485D02*
X155186011Y-133437257D01*
X155186011Y-133437257D02*
X155267057Y-133368196D01*
X155267057Y-133368196D02*
X155304269Y-133280529D01*
X155304269Y-133280529D02*
X155297648Y-133174256D01*
X155297648Y-133174256D02*
X155272421Y-133111816D01*
X155272421Y-133111816D02*
X155203360Y-133030770D01*
X155203360Y-133030770D02*
X154984192Y-132937739D01*
X154984192Y-132937739D02*
X154834085Y-132925754D01*
X154545856Y-132751676D02*
X153935957Y-133579150D01*
X153935957Y-133579150D02*
X154039717Y-132847222D01*
X154039717Y-132847222D02*
X153585289Y-133430300D01*
X153585289Y-133430300D02*
X153756852Y-132416764D01*
X153493851Y-132305127D02*
X152924015Y-132063245D01*
X152924015Y-132063245D02*
X153082000Y-132544158D01*
X153082000Y-132544158D02*
X152950499Y-132488339D01*
X152950499Y-132488339D02*
X152844226Y-132494960D01*
X152844226Y-132494960D02*
X152781786Y-132520187D01*
X152781786Y-132520187D02*
X152700740Y-132589248D01*
X152700740Y-132589248D02*
X152607708Y-132808416D01*
X152607708Y-132808416D02*
X152614330Y-132914689D01*
X152614330Y-132914689D02*
X152639557Y-132977129D01*
X152639557Y-132977129D02*
X152708618Y-133058175D01*
X152708618Y-133058175D02*
X152971619Y-133169813D01*
X152971619Y-133169813D02*
X153077892Y-133163192D01*
X153077892Y-133163192D02*
X153140332Y-133137964D01*
X152135010Y-131728333D02*
X152310345Y-131802758D01*
X152310345Y-131802758D02*
X152379406Y-131883804D01*
X152379406Y-131883804D02*
X152404633Y-131946244D01*
X152404633Y-131946244D02*
X152436481Y-132114957D01*
X152436481Y-132114957D02*
X152405890Y-132308898D01*
X152405890Y-132308898D02*
X152257040Y-132659566D01*
X152257040Y-132659566D02*
X152175994Y-132728627D01*
X152175994Y-132728627D02*
X152113554Y-132753854D01*
X152113554Y-132753854D02*
X152007281Y-132760475D01*
X152007281Y-132760475D02*
X151831946Y-132686050D01*
X151831946Y-132686050D02*
X151762886Y-132605004D01*
X151762886Y-132605004D02*
X151737658Y-132542564D01*
X151737658Y-132542564D02*
X151731037Y-132436291D01*
X151731037Y-132436291D02*
X151824068Y-132217123D01*
X151824068Y-132217123D02*
X151905114Y-132148062D01*
X151905114Y-132148062D02*
X151967554Y-132122835D01*
X151967554Y-132122835D02*
X152073828Y-132116214D01*
X152073828Y-132116214D02*
X152249162Y-132190639D01*
X152249162Y-132190639D02*
X152318223Y-132271685D01*
X152318223Y-132271685D02*
X152343450Y-132334125D01*
X152343450Y-132334125D02*
X152350071Y-132440398D01*
X133409523Y-92507200D02*
X133266666Y-92554819D01*
X133266666Y-92554819D02*
X133028571Y-92554819D01*
X133028571Y-92554819D02*
X132933333Y-92507200D01*
X132933333Y-92507200D02*
X132885714Y-92459580D01*
X132885714Y-92459580D02*
X132838095Y-92364342D01*
X132838095Y-92364342D02*
X132838095Y-92269104D01*
X132838095Y-92269104D02*
X132885714Y-92173866D01*
X132885714Y-92173866D02*
X132933333Y-92126247D01*
X132933333Y-92126247D02*
X133028571Y-92078628D01*
X133028571Y-92078628D02*
X133219047Y-92031009D01*
X133219047Y-92031009D02*
X133314285Y-91983390D01*
X133314285Y-91983390D02*
X133361904Y-91935771D01*
X133361904Y-91935771D02*
X133409523Y-91840533D01*
X133409523Y-91840533D02*
X133409523Y-91745295D01*
X133409523Y-91745295D02*
X133361904Y-91650057D01*
X133361904Y-91650057D02*
X133314285Y-91602438D01*
X133314285Y-91602438D02*
X133219047Y-91554819D01*
X133219047Y-91554819D02*
X132980952Y-91554819D01*
X132980952Y-91554819D02*
X132838095Y-91602438D01*
X132504761Y-91554819D02*
X132266666Y-92554819D01*
X132266666Y-92554819D02*
X132076190Y-91840533D01*
X132076190Y-91840533D02*
X131885714Y-92554819D01*
X131885714Y-92554819D02*
X131647619Y-91554819D01*
X131314285Y-91650057D02*
X131266666Y-91602438D01*
X131266666Y-91602438D02*
X131171428Y-91554819D01*
X131171428Y-91554819D02*
X130933333Y-91554819D01*
X130933333Y-91554819D02*
X130838095Y-91602438D01*
X130838095Y-91602438D02*
X130790476Y-91650057D01*
X130790476Y-91650057D02*
X130742857Y-91745295D01*
X130742857Y-91745295D02*
X130742857Y-91840533D01*
X130742857Y-91840533D02*
X130790476Y-91983390D01*
X130790476Y-91983390D02*
X131361904Y-92554819D01*
X131361904Y-92554819D02*
X130742857Y-92554819D01*
X129885714Y-91888152D02*
X129885714Y-92554819D01*
X130123809Y-91507200D02*
X130361904Y-92221485D01*
X130361904Y-92221485D02*
X129742857Y-92221485D01*
X76409523Y-101507200D02*
X76266666Y-101554819D01*
X76266666Y-101554819D02*
X76028571Y-101554819D01*
X76028571Y-101554819D02*
X75933333Y-101507200D01*
X75933333Y-101507200D02*
X75885714Y-101459580D01*
X75885714Y-101459580D02*
X75838095Y-101364342D01*
X75838095Y-101364342D02*
X75838095Y-101269104D01*
X75838095Y-101269104D02*
X75885714Y-101173866D01*
X75885714Y-101173866D02*
X75933333Y-101126247D01*
X75933333Y-101126247D02*
X76028571Y-101078628D01*
X76028571Y-101078628D02*
X76219047Y-101031009D01*
X76219047Y-101031009D02*
X76314285Y-100983390D01*
X76314285Y-100983390D02*
X76361904Y-100935771D01*
X76361904Y-100935771D02*
X76409523Y-100840533D01*
X76409523Y-100840533D02*
X76409523Y-100745295D01*
X76409523Y-100745295D02*
X76361904Y-100650057D01*
X76361904Y-100650057D02*
X76314285Y-100602438D01*
X76314285Y-100602438D02*
X76219047Y-100554819D01*
X76219047Y-100554819D02*
X75980952Y-100554819D01*
X75980952Y-100554819D02*
X75838095Y-100602438D01*
X75504761Y-100554819D02*
X75266666Y-101554819D01*
X75266666Y-101554819D02*
X75076190Y-100840533D01*
X75076190Y-100840533D02*
X74885714Y-101554819D01*
X74885714Y-101554819D02*
X74647619Y-100554819D01*
X74314285Y-100650057D02*
X74266666Y-100602438D01*
X74266666Y-100602438D02*
X74171428Y-100554819D01*
X74171428Y-100554819D02*
X73933333Y-100554819D01*
X73933333Y-100554819D02*
X73838095Y-100602438D01*
X73838095Y-100602438D02*
X73790476Y-100650057D01*
X73790476Y-100650057D02*
X73742857Y-100745295D01*
X73742857Y-100745295D02*
X73742857Y-100840533D01*
X73742857Y-100840533D02*
X73790476Y-100983390D01*
X73790476Y-100983390D02*
X74361904Y-101554819D01*
X74361904Y-101554819D02*
X73742857Y-101554819D01*
X72790476Y-101554819D02*
X73361904Y-101554819D01*
X73076190Y-101554819D02*
X73076190Y-100554819D01*
X73076190Y-100554819D02*
X73171428Y-100697676D01*
X73171428Y-100697676D02*
X73266666Y-100792914D01*
X73266666Y-100792914D02*
X73361904Y-100840533D01*
X175763493Y-139157407D02*
X175615966Y-139127218D01*
X175615966Y-139127218D02*
X175409769Y-139008170D01*
X175409769Y-139008170D02*
X175351100Y-138919312D01*
X175351100Y-138919312D02*
X175333670Y-138854263D01*
X175333670Y-138854263D02*
X175340050Y-138747975D01*
X175340050Y-138747975D02*
X175387669Y-138665496D01*
X175387669Y-138665496D02*
X175476527Y-138606827D01*
X175476527Y-138606827D02*
X175541576Y-138589397D01*
X175541576Y-138589397D02*
X175647864Y-138595777D01*
X175647864Y-138595777D02*
X175836631Y-138649776D01*
X175836631Y-138649776D02*
X175942919Y-138656156D01*
X175942919Y-138656156D02*
X176007968Y-138638726D01*
X176007968Y-138638726D02*
X176096826Y-138580057D01*
X176096826Y-138580057D02*
X176144445Y-138497578D01*
X176144445Y-138497578D02*
X176150825Y-138391290D01*
X176150825Y-138391290D02*
X176133395Y-138326241D01*
X176133395Y-138326241D02*
X176074726Y-138237383D01*
X176074726Y-138237383D02*
X175868530Y-138118335D01*
X175868530Y-138118335D02*
X175721002Y-138088146D01*
X175456137Y-137880240D02*
X174749940Y-138627218D01*
X174749940Y-138627218D02*
X174942126Y-137913390D01*
X174942126Y-137913390D02*
X174420026Y-138436741D01*
X174420026Y-138436741D02*
X174713829Y-137451668D01*
X174466394Y-137308811D02*
X173930283Y-136999288D01*
X173930283Y-136999288D02*
X174028482Y-137495869D01*
X174028482Y-137495869D02*
X173904764Y-137424440D01*
X173904764Y-137424440D02*
X173798475Y-137418060D01*
X173798475Y-137418060D02*
X173733427Y-137435490D01*
X173733427Y-137435490D02*
X173644568Y-137494159D01*
X173644568Y-137494159D02*
X173525521Y-137700356D01*
X173525521Y-137700356D02*
X173519141Y-137806644D01*
X173519141Y-137806644D02*
X173536571Y-137871693D01*
X173536571Y-137871693D02*
X173595240Y-137960551D01*
X173595240Y-137960551D02*
X173842676Y-138103408D01*
X173842676Y-138103408D02*
X173948964Y-138109788D01*
X173948964Y-138109788D02*
X174014013Y-138092358D01*
X173641607Y-136832621D02*
X173064257Y-136499288D01*
X173064257Y-136499288D02*
X172935411Y-137579599D01*
X114409523Y-56007200D02*
X114266666Y-56054819D01*
X114266666Y-56054819D02*
X114028571Y-56054819D01*
X114028571Y-56054819D02*
X113933333Y-56007200D01*
X113933333Y-56007200D02*
X113885714Y-55959580D01*
X113885714Y-55959580D02*
X113838095Y-55864342D01*
X113838095Y-55864342D02*
X113838095Y-55769104D01*
X113838095Y-55769104D02*
X113885714Y-55673866D01*
X113885714Y-55673866D02*
X113933333Y-55626247D01*
X113933333Y-55626247D02*
X114028571Y-55578628D01*
X114028571Y-55578628D02*
X114219047Y-55531009D01*
X114219047Y-55531009D02*
X114314285Y-55483390D01*
X114314285Y-55483390D02*
X114361904Y-55435771D01*
X114361904Y-55435771D02*
X114409523Y-55340533D01*
X114409523Y-55340533D02*
X114409523Y-55245295D01*
X114409523Y-55245295D02*
X114361904Y-55150057D01*
X114361904Y-55150057D02*
X114314285Y-55102438D01*
X114314285Y-55102438D02*
X114219047Y-55054819D01*
X114219047Y-55054819D02*
X113980952Y-55054819D01*
X113980952Y-55054819D02*
X113838095Y-55102438D01*
X113504761Y-55054819D02*
X113266666Y-56054819D01*
X113266666Y-56054819D02*
X113076190Y-55340533D01*
X113076190Y-55340533D02*
X112885714Y-56054819D01*
X112885714Y-56054819D02*
X112647619Y-55054819D01*
X112076190Y-55054819D02*
X111980952Y-55054819D01*
X111980952Y-55054819D02*
X111885714Y-55102438D01*
X111885714Y-55102438D02*
X111838095Y-55150057D01*
X111838095Y-55150057D02*
X111790476Y-55245295D01*
X111790476Y-55245295D02*
X111742857Y-55435771D01*
X111742857Y-55435771D02*
X111742857Y-55673866D01*
X111742857Y-55673866D02*
X111790476Y-55864342D01*
X111790476Y-55864342D02*
X111838095Y-55959580D01*
X111838095Y-55959580D02*
X111885714Y-56007200D01*
X111885714Y-56007200D02*
X111980952Y-56054819D01*
X111980952Y-56054819D02*
X112076190Y-56054819D01*
X112076190Y-56054819D02*
X112171428Y-56007200D01*
X112171428Y-56007200D02*
X112219047Y-55959580D01*
X112219047Y-55959580D02*
X112266666Y-55864342D01*
X112266666Y-55864342D02*
X112314285Y-55673866D01*
X112314285Y-55673866D02*
X112314285Y-55435771D01*
X112314285Y-55435771D02*
X112266666Y-55245295D01*
X112266666Y-55245295D02*
X112219047Y-55150057D01*
X112219047Y-55150057D02*
X112171428Y-55102438D01*
X112171428Y-55102438D02*
X112076190Y-55054819D01*
X111409523Y-55054819D02*
X110790476Y-55054819D01*
X110790476Y-55054819D02*
X111123809Y-55435771D01*
X111123809Y-55435771D02*
X110980952Y-55435771D01*
X110980952Y-55435771D02*
X110885714Y-55483390D01*
X110885714Y-55483390D02*
X110838095Y-55531009D01*
X110838095Y-55531009D02*
X110790476Y-55626247D01*
X110790476Y-55626247D02*
X110790476Y-55864342D01*
X110790476Y-55864342D02*
X110838095Y-55959580D01*
X110838095Y-55959580D02*
X110885714Y-56007200D01*
X110885714Y-56007200D02*
X110980952Y-56054819D01*
X110980952Y-56054819D02*
X111266666Y-56054819D01*
X111266666Y-56054819D02*
X111361904Y-56007200D01*
X111361904Y-56007200D02*
X111409523Y-55959580D01*
X175240661Y-99126513D02*
X174735585Y-99631589D01*
X174735585Y-99631589D02*
X174668242Y-99766276D01*
X174668242Y-99766276D02*
X174668242Y-99900963D01*
X174668242Y-99900963D02*
X174735585Y-100035650D01*
X174735585Y-100035650D02*
X174802929Y-100102994D01*
X174297852Y-99732604D02*
X173759104Y-99193856D01*
X173321371Y-98621436D02*
X173658089Y-98958154D01*
X173658089Y-98958154D02*
X174365195Y-98251047D01*
X173456058Y-98015345D02*
X173220356Y-97779642D01*
X172748951Y-98049016D02*
X173085669Y-98385734D01*
X173085669Y-98385734D02*
X173792776Y-97678627D01*
X173792776Y-97678627D02*
X173456058Y-97341910D01*
X172580592Y-97139879D02*
X172816295Y-97375581D01*
X172445905Y-97745971D02*
X173153012Y-97038864D01*
X173153012Y-97038864D02*
X172816295Y-96702146D01*
X172647936Y-96533787D02*
X172243875Y-96129726D01*
X171738798Y-97038864D02*
X172445905Y-96331757D01*
X170930676Y-96230742D02*
X171334737Y-96634803D01*
X171132707Y-96432772D02*
X171839814Y-95725665D01*
X171839814Y-95725665D02*
X171806142Y-95894024D01*
X171806142Y-95894024D02*
X171806142Y-96028711D01*
X171806142Y-96028711D02*
X171839814Y-96129726D01*
X182309523Y-118307200D02*
X182166666Y-118354819D01*
X182166666Y-118354819D02*
X181928571Y-118354819D01*
X181928571Y-118354819D02*
X181833333Y-118307200D01*
X181833333Y-118307200D02*
X181785714Y-118259580D01*
X181785714Y-118259580D02*
X181738095Y-118164342D01*
X181738095Y-118164342D02*
X181738095Y-118069104D01*
X181738095Y-118069104D02*
X181785714Y-117973866D01*
X181785714Y-117973866D02*
X181833333Y-117926247D01*
X181833333Y-117926247D02*
X181928571Y-117878628D01*
X181928571Y-117878628D02*
X182119047Y-117831009D01*
X182119047Y-117831009D02*
X182214285Y-117783390D01*
X182214285Y-117783390D02*
X182261904Y-117735771D01*
X182261904Y-117735771D02*
X182309523Y-117640533D01*
X182309523Y-117640533D02*
X182309523Y-117545295D01*
X182309523Y-117545295D02*
X182261904Y-117450057D01*
X182261904Y-117450057D02*
X182214285Y-117402438D01*
X182214285Y-117402438D02*
X182119047Y-117354819D01*
X182119047Y-117354819D02*
X181880952Y-117354819D01*
X181880952Y-117354819D02*
X181738095Y-117402438D01*
X180738095Y-118354819D02*
X181071428Y-117878628D01*
X181309523Y-118354819D02*
X181309523Y-117354819D01*
X181309523Y-117354819D02*
X180928571Y-117354819D01*
X180928571Y-117354819D02*
X180833333Y-117402438D01*
X180833333Y-117402438D02*
X180785714Y-117450057D01*
X180785714Y-117450057D02*
X180738095Y-117545295D01*
X180738095Y-117545295D02*
X180738095Y-117688152D01*
X180738095Y-117688152D02*
X180785714Y-117783390D01*
X180785714Y-117783390D02*
X180833333Y-117831009D01*
X180833333Y-117831009D02*
X180928571Y-117878628D01*
X180928571Y-117878628D02*
X181309523Y-117878628D01*
X180547619Y-118450057D02*
X179785714Y-118450057D01*
X179071428Y-118354819D02*
X179547618Y-118354819D01*
X179547618Y-118354819D02*
X179547618Y-117354819D01*
X178738094Y-117831009D02*
X178404761Y-117831009D01*
X178261904Y-118354819D02*
X178738094Y-118354819D01*
X178738094Y-118354819D02*
X178738094Y-117354819D01*
X178738094Y-117354819D02*
X178261904Y-117354819D01*
X177499999Y-117831009D02*
X177833332Y-117831009D01*
X177833332Y-118354819D02*
X177833332Y-117354819D01*
X177833332Y-117354819D02*
X177357142Y-117354819D01*
X177119046Y-117354819D02*
X176547618Y-117354819D01*
X176833332Y-118354819D02*
X176833332Y-117354819D01*
X175690475Y-118354819D02*
X176261903Y-118354819D01*
X175976189Y-118354819D02*
X175976189Y-117354819D01*
X175976189Y-117354819D02*
X176071427Y-117497676D01*
X176071427Y-117497676D02*
X176166665Y-117592914D01*
X176166665Y-117592914D02*
X176261903Y-117640533D01*
X177218333Y-49989819D02*
X177218333Y-50704104D01*
X177218333Y-50704104D02*
X177265952Y-50846961D01*
X177265952Y-50846961D02*
X177361190Y-50942200D01*
X177361190Y-50942200D02*
X177504047Y-50989819D01*
X177504047Y-50989819D02*
X177599285Y-50989819D01*
X176742142Y-50989819D02*
X176742142Y-49989819D01*
X176742142Y-49989819D02*
X176361190Y-49989819D01*
X176361190Y-49989819D02*
X176265952Y-50037438D01*
X176265952Y-50037438D02*
X176218333Y-50085057D01*
X176218333Y-50085057D02*
X176170714Y-50180295D01*
X176170714Y-50180295D02*
X176170714Y-50323152D01*
X176170714Y-50323152D02*
X176218333Y-50418390D01*
X176218333Y-50418390D02*
X176265952Y-50466009D01*
X176265952Y-50466009D02*
X176361190Y-50513628D01*
X176361190Y-50513628D02*
X176742142Y-50513628D01*
X175218333Y-50989819D02*
X175789761Y-50989819D01*
X175504047Y-50989819D02*
X175504047Y-49989819D01*
X175504047Y-49989819D02*
X175599285Y-50132676D01*
X175599285Y-50132676D02*
X175694523Y-50227914D01*
X175694523Y-50227914D02*
X175789761Y-50275533D01*
X179393332Y-48214819D02*
X178774285Y-48214819D01*
X178774285Y-48214819D02*
X179107618Y-48595771D01*
X179107618Y-48595771D02*
X178964761Y-48595771D01*
X178964761Y-48595771D02*
X178869523Y-48643390D01*
X178869523Y-48643390D02*
X178821904Y-48691009D01*
X178821904Y-48691009D02*
X178774285Y-48786247D01*
X178774285Y-48786247D02*
X178774285Y-49024342D01*
X178774285Y-49024342D02*
X178821904Y-49119580D01*
X178821904Y-49119580D02*
X178869523Y-49167200D01*
X178869523Y-49167200D02*
X178964761Y-49214819D01*
X178964761Y-49214819D02*
X179250475Y-49214819D01*
X179250475Y-49214819D02*
X179345713Y-49167200D01*
X179345713Y-49167200D02*
X179393332Y-49119580D01*
X172024285Y-49214819D02*
X172595713Y-49214819D01*
X172309999Y-49214819D02*
X172309999Y-48214819D01*
X172309999Y-48214819D02*
X172405237Y-48357676D01*
X172405237Y-48357676D02*
X172500475Y-48452914D01*
X172500475Y-48452914D02*
X172595713Y-48500533D01*
X175826666Y-43564819D02*
X176159999Y-43088628D01*
X176398094Y-43564819D02*
X176398094Y-42564819D01*
X176398094Y-42564819D02*
X176017142Y-42564819D01*
X176017142Y-42564819D02*
X175921904Y-42612438D01*
X175921904Y-42612438D02*
X175874285Y-42660057D01*
X175874285Y-42660057D02*
X175826666Y-42755295D01*
X175826666Y-42755295D02*
X175826666Y-42898152D01*
X175826666Y-42898152D02*
X175874285Y-42993390D01*
X175874285Y-42993390D02*
X175921904Y-43041009D01*
X175921904Y-43041009D02*
X176017142Y-43088628D01*
X176017142Y-43088628D02*
X176398094Y-43088628D01*
X174874285Y-43564819D02*
X175445713Y-43564819D01*
X175159999Y-43564819D02*
X175159999Y-42564819D01*
X175159999Y-42564819D02*
X175255237Y-42707676D01*
X175255237Y-42707676D02*
X175350475Y-42802914D01*
X175350475Y-42802914D02*
X175445713Y-42850533D01*
X190538095Y-115454819D02*
X190871428Y-114978628D01*
X191109523Y-115454819D02*
X191109523Y-114454819D01*
X191109523Y-114454819D02*
X190728571Y-114454819D01*
X190728571Y-114454819D02*
X190633333Y-114502438D01*
X190633333Y-114502438D02*
X190585714Y-114550057D01*
X190585714Y-114550057D02*
X190538095Y-114645295D01*
X190538095Y-114645295D02*
X190538095Y-114788152D01*
X190538095Y-114788152D02*
X190585714Y-114883390D01*
X190585714Y-114883390D02*
X190633333Y-114931009D01*
X190633333Y-114931009D02*
X190728571Y-114978628D01*
X190728571Y-114978628D02*
X191109523Y-114978628D01*
X190109523Y-115454819D02*
X190109523Y-114454819D01*
X190109523Y-114454819D02*
X189538095Y-115454819D01*
X189538095Y-115454819D02*
X189538095Y-114454819D01*
X189300000Y-115550057D02*
X188538095Y-115550057D01*
X187823809Y-115454819D02*
X188299999Y-115454819D01*
X188299999Y-115454819D02*
X188299999Y-114454819D01*
X187490475Y-114931009D02*
X187157142Y-114931009D01*
X187014285Y-115454819D02*
X187490475Y-115454819D01*
X187490475Y-115454819D02*
X187490475Y-114454819D01*
X187490475Y-114454819D02*
X187014285Y-114454819D01*
X186252380Y-114931009D02*
X186585713Y-114931009D01*
X186585713Y-115454819D02*
X186585713Y-114454819D01*
X186585713Y-114454819D02*
X186109523Y-114454819D01*
X185871427Y-114454819D02*
X185299999Y-114454819D01*
X185585713Y-115454819D02*
X185585713Y-114454819D01*
X184442856Y-115454819D02*
X185014284Y-115454819D01*
X184728570Y-115454819D02*
X184728570Y-114454819D01*
X184728570Y-114454819D02*
X184823808Y-114597676D01*
X184823808Y-114597676D02*
X184919046Y-114692914D01*
X184919046Y-114692914D02*
X185014284Y-114740533D01*
X175826666Y-54864819D02*
X176159999Y-54388628D01*
X176398094Y-54864819D02*
X176398094Y-53864819D01*
X176398094Y-53864819D02*
X176017142Y-53864819D01*
X176017142Y-53864819D02*
X175921904Y-53912438D01*
X175921904Y-53912438D02*
X175874285Y-53960057D01*
X175874285Y-53960057D02*
X175826666Y-54055295D01*
X175826666Y-54055295D02*
X175826666Y-54198152D01*
X175826666Y-54198152D02*
X175874285Y-54293390D01*
X175874285Y-54293390D02*
X175921904Y-54341009D01*
X175921904Y-54341009D02*
X176017142Y-54388628D01*
X176017142Y-54388628D02*
X176398094Y-54388628D01*
X175445713Y-53960057D02*
X175398094Y-53912438D01*
X175398094Y-53912438D02*
X175302856Y-53864819D01*
X175302856Y-53864819D02*
X175064761Y-53864819D01*
X175064761Y-53864819D02*
X174969523Y-53912438D01*
X174969523Y-53912438D02*
X174921904Y-53960057D01*
X174921904Y-53960057D02*
X174874285Y-54055295D01*
X174874285Y-54055295D02*
X174874285Y-54150533D01*
X174874285Y-54150533D02*
X174921904Y-54293390D01*
X174921904Y-54293390D02*
X175493332Y-54864819D01*
X175493332Y-54864819D02*
X174874285Y-54864819D01*
%TO.C,SW13*%
X110000000Y-58500000D02*
X111000000Y-58500000D01*
X110000000Y-59500000D02*
X110000000Y-58500000D01*
X110000000Y-67000000D02*
X110000000Y-67500000D01*
X110000000Y-71100000D02*
X110000000Y-71700000D01*
X110000000Y-71700000D02*
X114500000Y-71700000D01*
X110000000Y-72500000D02*
X110000000Y-71500000D01*
X111000000Y-72500000D02*
X110000000Y-72500000D01*
X114500000Y-67000000D02*
X110000000Y-67000000D01*
X114500000Y-67700000D02*
X114500000Y-67000000D01*
X115000000Y-72200000D02*
X115000000Y-73200000D01*
X115500000Y-73700000D02*
X115000000Y-73200000D01*
X118500000Y-69200000D02*
X116000000Y-69200000D01*
X118500000Y-73700000D02*
X115500000Y-73700000D01*
X119000000Y-69700000D02*
X118500000Y-69200000D01*
X119000000Y-73200000D02*
X118500000Y-73700000D01*
X123000000Y-58500000D02*
X124000000Y-58500000D01*
X124000000Y-58500000D02*
X124000000Y-59500000D01*
X124000000Y-71500000D02*
X124000000Y-72500000D01*
X124000000Y-72500000D02*
X123000000Y-72500000D01*
X114500000Y-71700000D02*
G75*
G02*
X115000000Y-72200000I-1J-500001D01*
G01*
X116000000Y-69200000D02*
G75*
G02*
X114500000Y-67700000I1J1500001D01*
G01*
D11*
%TO.C,LED30*%
X62000000Y-108600000D02*
X63000000Y-108600000D01*
X63000000Y-107600000D02*
X62000000Y-108600000D01*
X63000000Y-108600000D02*
X63000000Y-107600000D01*
D10*
%TO.C,SW32*%
X91000000Y-95000000D02*
X92000000Y-95000000D01*
X91000000Y-96000000D02*
X91000000Y-95000000D01*
X91000000Y-103500000D02*
X91000000Y-104000000D01*
X91000000Y-107600000D02*
X91000000Y-108200000D01*
X91000000Y-108200000D02*
X95500000Y-108200000D01*
X91000000Y-109000000D02*
X91000000Y-108000000D01*
X92000000Y-109000000D02*
X91000000Y-109000000D01*
X95500000Y-103500000D02*
X91000000Y-103500000D01*
X95500000Y-104200000D02*
X95500000Y-103500000D01*
X96000000Y-108700000D02*
X96000000Y-109700000D01*
X96500000Y-110200000D02*
X96000000Y-109700000D01*
X99500000Y-105700000D02*
X97000000Y-105700000D01*
X99500000Y-110200000D02*
X96500000Y-110200000D01*
X100000000Y-106200000D02*
X99500000Y-105700000D01*
X100000000Y-109700000D02*
X99500000Y-110200000D01*
X104000000Y-95000000D02*
X105000000Y-95000000D01*
X105000000Y-95000000D02*
X105000000Y-96000000D01*
X105000000Y-108000000D02*
X105000000Y-109000000D01*
X105000000Y-109000000D02*
X104000000Y-109000000D01*
X95500000Y-108200000D02*
G75*
G02*
X96000000Y-108700000I-1J-500001D01*
G01*
X97000000Y-105700000D02*
G75*
G02*
X95500000Y-104200000I1J1500001D01*
G01*
D11*
%TO.C,LED37*%
X179201924Y-124090488D02*
X180567949Y-123724463D01*
X179701924Y-123224463D02*
X179201924Y-124090488D01*
X180567949Y-123724463D02*
X179701924Y-123224463D01*
D10*
%TO.C,SW33*%
X110000000Y-92500000D02*
X111000000Y-92500000D01*
X110000000Y-93500000D02*
X110000000Y-92500000D01*
X110000000Y-101000000D02*
X110000000Y-101500000D01*
X110000000Y-105100000D02*
X110000000Y-105700000D01*
X110000000Y-105700000D02*
X114500000Y-105700000D01*
X110000000Y-106500000D02*
X110000000Y-105500000D01*
X111000000Y-106500000D02*
X110000000Y-106500000D01*
X114500000Y-101000000D02*
X110000000Y-101000000D01*
X114500000Y-101700000D02*
X114500000Y-101000000D01*
X115000000Y-106200000D02*
X115000000Y-107200000D01*
X115500000Y-107700000D02*
X115000000Y-107200000D01*
X118500000Y-103200000D02*
X116000000Y-103200000D01*
X118500000Y-107700000D02*
X115500000Y-107700000D01*
X119000000Y-103700000D02*
X118500000Y-103200000D01*
X119000000Y-107200000D02*
X118500000Y-107700000D01*
X123000000Y-92500000D02*
X124000000Y-92500000D01*
X124000000Y-92500000D02*
X124000000Y-93500000D01*
X124000000Y-105500000D02*
X124000000Y-106500000D01*
X124000000Y-106500000D02*
X123000000Y-106500000D01*
X114500000Y-105700000D02*
G75*
G02*
X115000000Y-106200000I-1J-500001D01*
G01*
X116000000Y-103200000D02*
G75*
G02*
X114500000Y-101700000I1J1500001D01*
G01*
D11*
%TO.C,LED21*%
X76000000Y-87000000D02*
X76000000Y-88000000D01*
X76000000Y-88000000D02*
X77000000Y-87000000D01*
X77000000Y-87000000D02*
X76000000Y-87000000D01*
D10*
%TO.C,SW01*%
X72000000Y-53000000D02*
X73000000Y-53000000D01*
X72000000Y-54000000D02*
X72000000Y-53000000D01*
X72000000Y-61500000D02*
X72000000Y-62000000D01*
X72000000Y-65600000D02*
X72000000Y-66200000D01*
X72000000Y-66200000D02*
X76500000Y-66200000D01*
X72000000Y-67000000D02*
X72000000Y-66000000D01*
X73000000Y-67000000D02*
X72000000Y-67000000D01*
X76500000Y-61500000D02*
X72000000Y-61500000D01*
X76500000Y-62200000D02*
X76500000Y-61500000D01*
X77000000Y-66700000D02*
X77000000Y-67700000D01*
X77500000Y-68200000D02*
X77000000Y-67700000D01*
X80500000Y-63700000D02*
X78000000Y-63700000D01*
X80500000Y-68200000D02*
X77500000Y-68200000D01*
X81000000Y-64200000D02*
X80500000Y-63700000D01*
X81000000Y-67700000D02*
X80500000Y-68200000D01*
X85000000Y-53000000D02*
X86000000Y-53000000D01*
X86000000Y-53000000D02*
X86000000Y-54000000D01*
X86000000Y-66000000D02*
X86000000Y-67000000D01*
X86000000Y-67000000D02*
X85000000Y-67000000D01*
X76500000Y-66200000D02*
G75*
G02*
X77000000Y-66700000I-1J-500001D01*
G01*
X78000000Y-63700000D02*
G75*
G02*
X76500000Y-62200000I1J1500001D01*
G01*
D11*
%TO.C,LED31*%
X76000000Y-104000000D02*
X76000000Y-105000000D01*
X76000000Y-105000000D02*
X77000000Y-104000000D01*
X77000000Y-104000000D02*
X76000000Y-104000000D01*
%TO.C,LED14*%
X133000000Y-61000000D02*
X133000000Y-62000000D01*
X133000000Y-62000000D02*
X134000000Y-61000000D01*
X134000000Y-61000000D02*
X133000000Y-61000000D01*
%TO.C,LED11*%
X76000000Y-70000000D02*
X76000000Y-71000000D01*
X76000000Y-71000000D02*
X77000000Y-70000000D01*
X77000000Y-70000000D02*
X76000000Y-70000000D01*
D10*
%TO.C,SW35*%
X148000000Y-97500000D02*
X149000000Y-97500000D01*
X148000000Y-98500000D02*
X148000000Y-97500000D01*
X148000000Y-106000000D02*
X148000000Y-106500000D01*
X148000000Y-110100000D02*
X148000000Y-110700000D01*
X148000000Y-110700000D02*
X152500000Y-110700000D01*
X148000000Y-111500000D02*
X148000000Y-110500000D01*
X149000000Y-111500000D02*
X148000000Y-111500000D01*
X152500000Y-106000000D02*
X148000000Y-106000000D01*
X152500000Y-106700000D02*
X152500000Y-106000000D01*
X153000000Y-111200000D02*
X153000000Y-112200000D01*
X153500000Y-112700000D02*
X153000000Y-112200000D01*
X156500000Y-108200000D02*
X154000000Y-108200000D01*
X156500000Y-112700000D02*
X153500000Y-112700000D01*
X157000000Y-108700000D02*
X156500000Y-108200000D01*
X157000000Y-112200000D02*
X156500000Y-112700000D01*
X161000000Y-97500000D02*
X162000000Y-97500000D01*
X162000000Y-97500000D02*
X162000000Y-98500000D01*
X162000000Y-110500000D02*
X162000000Y-111500000D01*
X162000000Y-111500000D02*
X161000000Y-111500000D01*
X152500000Y-110700000D02*
G75*
G02*
X153000000Y-111200000I-1J-500001D01*
G01*
X154000000Y-108200000D02*
G75*
G02*
X152500000Y-106700000I1J1500001D01*
G01*
%TO.C,SW23*%
X110000000Y-75500000D02*
X111000000Y-75500000D01*
X110000000Y-76500000D02*
X110000000Y-75500000D01*
X110000000Y-84000000D02*
X110000000Y-84500000D01*
X110000000Y-88100000D02*
X110000000Y-88700000D01*
X110000000Y-88700000D02*
X114500000Y-88700000D01*
X110000000Y-89500000D02*
X110000000Y-88500000D01*
X111000000Y-89500000D02*
X110000000Y-89500000D01*
X114500000Y-84000000D02*
X110000000Y-84000000D01*
X114500000Y-84700000D02*
X114500000Y-84000000D01*
X115000000Y-89200000D02*
X115000000Y-90200000D01*
X115500000Y-90700000D02*
X115000000Y-90200000D01*
X118500000Y-86200000D02*
X116000000Y-86200000D01*
X118500000Y-90700000D02*
X115500000Y-90700000D01*
X119000000Y-86700000D02*
X118500000Y-86200000D01*
X119000000Y-90200000D02*
X118500000Y-90700000D01*
X123000000Y-75500000D02*
X124000000Y-75500000D01*
X124000000Y-75500000D02*
X124000000Y-76500000D01*
X124000000Y-88500000D02*
X124000000Y-89500000D01*
X124000000Y-89500000D02*
X123000000Y-89500000D01*
X114500000Y-88700000D02*
G75*
G02*
X115000000Y-89200000I-1J-500001D01*
G01*
X116000000Y-86200000D02*
G75*
G02*
X114500000Y-84700000I1J1500001D01*
G01*
%TO.C,SW14*%
X129000000Y-61000000D02*
X130000000Y-61000000D01*
X129000000Y-62000000D02*
X129000000Y-61000000D01*
X129000000Y-69500000D02*
X129000000Y-70000000D01*
X129000000Y-73600000D02*
X129000000Y-74200000D01*
X129000000Y-74200000D02*
X133500000Y-74200000D01*
X129000000Y-75000000D02*
X129000000Y-74000000D01*
X130000000Y-75000000D02*
X129000000Y-75000000D01*
X133500000Y-69500000D02*
X129000000Y-69500000D01*
X133500000Y-70200000D02*
X133500000Y-69500000D01*
X134000000Y-74700000D02*
X134000000Y-75700000D01*
X134500000Y-76200000D02*
X134000000Y-75700000D01*
X137500000Y-71700000D02*
X135000000Y-71700000D01*
X137500000Y-76200000D02*
X134500000Y-76200000D01*
X138000000Y-72200000D02*
X137500000Y-71700000D01*
X138000000Y-75700000D02*
X137500000Y-76200000D01*
X142000000Y-61000000D02*
X143000000Y-61000000D01*
X143000000Y-61000000D02*
X143000000Y-62000000D01*
X143000000Y-74000000D02*
X143000000Y-75000000D01*
X143000000Y-75000000D02*
X142000000Y-75000000D01*
X133500000Y-74200000D02*
G75*
G02*
X134000000Y-74700000I-1J-500001D01*
G01*
X135000000Y-71700000D02*
G75*
G02*
X133500000Y-70200000I1J1500001D01*
G01*
D11*
%TO.C,LED33*%
X119000000Y-97100000D02*
X120000000Y-97100000D01*
X120000000Y-96100000D02*
X119000000Y-97100000D01*
X120000000Y-97100000D02*
X120000000Y-96100000D01*
D10*
%TO.C,SW30*%
X53000000Y-104000000D02*
X54000000Y-104000000D01*
X53000000Y-105000000D02*
X53000000Y-104000000D01*
X53000000Y-112500000D02*
X53000000Y-113000000D01*
X53000000Y-116600000D02*
X53000000Y-117200000D01*
X53000000Y-117200000D02*
X57500000Y-117200000D01*
X53000000Y-118000000D02*
X53000000Y-117000000D01*
X54000000Y-118000000D02*
X53000000Y-118000000D01*
X57500000Y-112500000D02*
X53000000Y-112500000D01*
X57500000Y-113200000D02*
X57500000Y-112500000D01*
X58000000Y-117700000D02*
X58000000Y-118700000D01*
X58500000Y-119200000D02*
X58000000Y-118700000D01*
X61500000Y-114700000D02*
X59000000Y-114700000D01*
X61500000Y-119200000D02*
X58500000Y-119200000D01*
X62000000Y-115200000D02*
X61500000Y-114700000D01*
X62000000Y-118700000D02*
X61500000Y-119200000D01*
X66000000Y-104000000D02*
X67000000Y-104000000D01*
X67000000Y-104000000D02*
X67000000Y-105000000D01*
X67000000Y-117000000D02*
X67000000Y-118000000D01*
X67000000Y-118000000D02*
X66000000Y-118000000D01*
X57500000Y-117200000D02*
G75*
G02*
X58000000Y-117700000I-1J-500001D01*
G01*
X59000000Y-114700000D02*
G75*
G02*
X57500000Y-113200000I1J1500001D01*
G01*
%TO.C,SW20*%
X53000000Y-87000000D02*
X54000000Y-87000000D01*
X53000000Y-88000000D02*
X53000000Y-87000000D01*
X53000000Y-95500000D02*
X53000000Y-96000000D01*
X53000000Y-99600000D02*
X53000000Y-100200000D01*
X53000000Y-100200000D02*
X57500000Y-100200000D01*
X53000000Y-101000000D02*
X53000000Y-100000000D01*
X54000000Y-101000000D02*
X53000000Y-101000000D01*
X57500000Y-95500000D02*
X53000000Y-95500000D01*
X57500000Y-96200000D02*
X57500000Y-95500000D01*
X58000000Y-100700000D02*
X58000000Y-101700000D01*
X58500000Y-102200000D02*
X58000000Y-101700000D01*
X61500000Y-97700000D02*
X59000000Y-97700000D01*
X61500000Y-102200000D02*
X58500000Y-102200000D01*
X62000000Y-98200000D02*
X61500000Y-97700000D01*
X62000000Y-101700000D02*
X61500000Y-102200000D01*
X66000000Y-87000000D02*
X67000000Y-87000000D01*
X67000000Y-87000000D02*
X67000000Y-88000000D01*
X67000000Y-100000000D02*
X67000000Y-101000000D01*
X67000000Y-101000000D02*
X66000000Y-101000000D01*
X57500000Y-100200000D02*
G75*
G02*
X58000000Y-100700000I-1J-500001D01*
G01*
X59000000Y-97700000D02*
G75*
G02*
X57500000Y-96200000I1J1500001D01*
G01*
%TO.C,SW31*%
X72000000Y-104000000D02*
X73000000Y-104000000D01*
X72000000Y-105000000D02*
X72000000Y-104000000D01*
X72000000Y-112500000D02*
X72000000Y-113000000D01*
X72000000Y-116600000D02*
X72000000Y-117200000D01*
X72000000Y-117200000D02*
X76500000Y-117200000D01*
X72000000Y-118000000D02*
X72000000Y-117000000D01*
X73000000Y-118000000D02*
X72000000Y-118000000D01*
X76500000Y-112500000D02*
X72000000Y-112500000D01*
X76500000Y-113200000D02*
X76500000Y-112500000D01*
X77000000Y-117700000D02*
X77000000Y-118700000D01*
X77500000Y-119200000D02*
X77000000Y-118700000D01*
X80500000Y-114700000D02*
X78000000Y-114700000D01*
X80500000Y-119200000D02*
X77500000Y-119200000D01*
X81000000Y-115200000D02*
X80500000Y-114700000D01*
X81000000Y-118700000D02*
X80500000Y-119200000D01*
X85000000Y-104000000D02*
X86000000Y-104000000D01*
X86000000Y-104000000D02*
X86000000Y-105000000D01*
X86000000Y-117000000D02*
X86000000Y-118000000D01*
X86000000Y-118000000D02*
X85000000Y-118000000D01*
X76500000Y-117200000D02*
G75*
G02*
X77000000Y-117700000I-1J-500001D01*
G01*
X78000000Y-114700000D02*
G75*
G02*
X76500000Y-113200000I1J1500001D01*
G01*
%TO.C,SW02*%
X91000000Y-44000000D02*
X92000000Y-44000000D01*
X91000000Y-45000000D02*
X91000000Y-44000000D01*
X91000000Y-52500000D02*
X91000000Y-53000000D01*
X91000000Y-56600000D02*
X91000000Y-57200000D01*
X91000000Y-57200000D02*
X95500000Y-57200000D01*
X91000000Y-58000000D02*
X91000000Y-57000000D01*
X92000000Y-58000000D02*
X91000000Y-58000000D01*
X95500000Y-52500000D02*
X91000000Y-52500000D01*
X95500000Y-53200000D02*
X95500000Y-52500000D01*
X96000000Y-57700000D02*
X96000000Y-58700000D01*
X96500000Y-59200000D02*
X96000000Y-58700000D01*
X99500000Y-54700000D02*
X97000000Y-54700000D01*
X99500000Y-59200000D02*
X96500000Y-59200000D01*
X100000000Y-55200000D02*
X99500000Y-54700000D01*
X100000000Y-58700000D02*
X99500000Y-59200000D01*
X104000000Y-44000000D02*
X105000000Y-44000000D01*
X105000000Y-44000000D02*
X105000000Y-45000000D01*
X105000000Y-57000000D02*
X105000000Y-58000000D01*
X105000000Y-58000000D02*
X104000000Y-58000000D01*
X95500000Y-57200000D02*
G75*
G02*
X96000000Y-57700000I-1J-500001D01*
G01*
X97000000Y-54700000D02*
G75*
G02*
X95500000Y-53200000I1J1500001D01*
G01*
D11*
%TO.C,LED13*%
X119000000Y-63100000D02*
X120000000Y-63100000D01*
X120000000Y-62100000D02*
X119000000Y-63100000D01*
X120000000Y-63100000D02*
X120000000Y-62100000D01*
D10*
%TO.C,SW25*%
X148000000Y-80500000D02*
X149000000Y-80500000D01*
X148000000Y-81500000D02*
X148000000Y-80500000D01*
X148000000Y-89000000D02*
X148000000Y-89500000D01*
X148000000Y-93100000D02*
X148000000Y-93700000D01*
X148000000Y-93700000D02*
X152500000Y-93700000D01*
X148000000Y-94500000D02*
X148000000Y-93500000D01*
X149000000Y-94500000D02*
X148000000Y-94500000D01*
X152500000Y-89000000D02*
X148000000Y-89000000D01*
X152500000Y-89700000D02*
X152500000Y-89000000D01*
X153000000Y-94200000D02*
X153000000Y-95200000D01*
X153500000Y-95700000D02*
X153000000Y-95200000D01*
X156500000Y-91200000D02*
X154000000Y-91200000D01*
X156500000Y-95700000D02*
X153500000Y-95700000D01*
X157000000Y-91700000D02*
X156500000Y-91200000D01*
X157000000Y-95200000D02*
X156500000Y-95700000D01*
X161000000Y-80500000D02*
X162000000Y-80500000D01*
X162000000Y-80500000D02*
X162000000Y-81500000D01*
X162000000Y-93500000D02*
X162000000Y-94500000D01*
X162000000Y-94500000D02*
X161000000Y-94500000D01*
X152500000Y-93700000D02*
G75*
G02*
X153000000Y-94200000I-1J-500001D01*
G01*
X154000000Y-91200000D02*
G75*
G02*
X152500000Y-89700000I1J1500001D01*
G01*
%TO.C,SW10*%
X53000000Y-70000000D02*
X54000000Y-70000000D01*
X53000000Y-71000000D02*
X53000000Y-70000000D01*
X53000000Y-78500000D02*
X53000000Y-79000000D01*
X53000000Y-82600000D02*
X53000000Y-83200000D01*
X53000000Y-83200000D02*
X57500000Y-83200000D01*
X53000000Y-84000000D02*
X53000000Y-83000000D01*
X54000000Y-84000000D02*
X53000000Y-84000000D01*
X57500000Y-78500000D02*
X53000000Y-78500000D01*
X57500000Y-79200000D02*
X57500000Y-78500000D01*
X58000000Y-83700000D02*
X58000000Y-84700000D01*
X58500000Y-85200000D02*
X58000000Y-84700000D01*
X61500000Y-80700000D02*
X59000000Y-80700000D01*
X61500000Y-85200000D02*
X58500000Y-85200000D01*
X62000000Y-81200000D02*
X61500000Y-80700000D01*
X62000000Y-84700000D02*
X61500000Y-85200000D01*
X66000000Y-70000000D02*
X67000000Y-70000000D01*
X67000000Y-70000000D02*
X67000000Y-71000000D01*
X67000000Y-83000000D02*
X67000000Y-84000000D01*
X67000000Y-84000000D02*
X66000000Y-84000000D01*
X57500000Y-83200000D02*
G75*
G02*
X58000000Y-83700000I-1J-500001D01*
G01*
X59000000Y-80700000D02*
G75*
G02*
X57500000Y-79200000I1J1500001D01*
G01*
%TO.C,SW11*%
X72000000Y-70000000D02*
X73000000Y-70000000D01*
X72000000Y-71000000D02*
X72000000Y-70000000D01*
X72000000Y-78500000D02*
X72000000Y-79000000D01*
X72000000Y-82600000D02*
X72000000Y-83200000D01*
X72000000Y-83200000D02*
X76500000Y-83200000D01*
X72000000Y-84000000D02*
X72000000Y-83000000D01*
X73000000Y-84000000D02*
X72000000Y-84000000D01*
X76500000Y-78500000D02*
X72000000Y-78500000D01*
X76500000Y-79200000D02*
X76500000Y-78500000D01*
X77000000Y-83700000D02*
X77000000Y-84700000D01*
X77500000Y-85200000D02*
X77000000Y-84700000D01*
X80500000Y-80700000D02*
X78000000Y-80700000D01*
X80500000Y-85200000D02*
X77500000Y-85200000D01*
X81000000Y-81200000D02*
X80500000Y-80700000D01*
X81000000Y-84700000D02*
X80500000Y-85200000D01*
X85000000Y-70000000D02*
X86000000Y-70000000D01*
X86000000Y-70000000D02*
X86000000Y-71000000D01*
X86000000Y-83000000D02*
X86000000Y-84000000D01*
X86000000Y-84000000D02*
X85000000Y-84000000D01*
X76500000Y-83200000D02*
G75*
G02*
X77000000Y-83700000I-1J-500001D01*
G01*
X78000000Y-80700000D02*
G75*
G02*
X76500000Y-79200000I1J1500001D01*
G01*
%TO.C,SW12*%
X91000000Y-61000000D02*
X92000000Y-61000000D01*
X91000000Y-62000000D02*
X91000000Y-61000000D01*
X91000000Y-69500000D02*
X91000000Y-70000000D01*
X91000000Y-73600000D02*
X91000000Y-74200000D01*
X91000000Y-74200000D02*
X95500000Y-74200000D01*
X91000000Y-75000000D02*
X91000000Y-74000000D01*
X92000000Y-75000000D02*
X91000000Y-75000000D01*
X95500000Y-69500000D02*
X91000000Y-69500000D01*
X95500000Y-70200000D02*
X95500000Y-69500000D01*
X96000000Y-74700000D02*
X96000000Y-75700000D01*
X96500000Y-76200000D02*
X96000000Y-75700000D01*
X99500000Y-71700000D02*
X97000000Y-71700000D01*
X99500000Y-76200000D02*
X96500000Y-76200000D01*
X100000000Y-72200000D02*
X99500000Y-71700000D01*
X100000000Y-75700000D02*
X99500000Y-76200000D01*
X104000000Y-61000000D02*
X105000000Y-61000000D01*
X105000000Y-61000000D02*
X105000000Y-62000000D01*
X105000000Y-74000000D02*
X105000000Y-75000000D01*
X105000000Y-75000000D02*
X104000000Y-75000000D01*
X95500000Y-74200000D02*
G75*
G02*
X96000000Y-74700000I-1J-500001D01*
G01*
X97000000Y-71700000D02*
G75*
G02*
X95500000Y-70200000I1J1500001D01*
G01*
D11*
%TO.C,LED22*%
X95000000Y-78000000D02*
X95000000Y-79000000D01*
X95000000Y-79000000D02*
X96000000Y-78000000D01*
X96000000Y-78000000D02*
X95000000Y-78000000D01*
%TO.C,LED03*%
X119000000Y-46100000D02*
X120000000Y-46100000D01*
X120000000Y-45100000D02*
X119000000Y-46100000D01*
X120000000Y-46100000D02*
X120000000Y-45100000D01*
D10*
%TO.C,SW00*%
X53000000Y-53000000D02*
X54000000Y-53000000D01*
X53000000Y-54000000D02*
X53000000Y-53000000D01*
X53000000Y-61500000D02*
X53000000Y-62000000D01*
X53000000Y-65600000D02*
X53000000Y-66200000D01*
X53000000Y-66200000D02*
X57500000Y-66200000D01*
X53000000Y-67000000D02*
X53000000Y-66000000D01*
X54000000Y-67000000D02*
X53000000Y-67000000D01*
X57500000Y-61500000D02*
X53000000Y-61500000D01*
X57500000Y-62200000D02*
X57500000Y-61500000D01*
X58000000Y-66700000D02*
X58000000Y-67700000D01*
X58500000Y-68200000D02*
X58000000Y-67700000D01*
X61500000Y-63700000D02*
X59000000Y-63700000D01*
X61500000Y-68200000D02*
X58500000Y-68200000D01*
X62000000Y-64200000D02*
X61500000Y-63700000D01*
X62000000Y-67700000D02*
X61500000Y-68200000D01*
X66000000Y-53000000D02*
X67000000Y-53000000D01*
X67000000Y-53000000D02*
X67000000Y-54000000D01*
X67000000Y-66000000D02*
X67000000Y-67000000D01*
X67000000Y-67000000D02*
X66000000Y-67000000D01*
X57500000Y-66200000D02*
G75*
G02*
X58000000Y-66700000I-1J-500001D01*
G01*
X59000000Y-63700000D02*
G75*
G02*
X57500000Y-62200000I1J1500001D01*
G01*
D11*
%TO.C,LED35*%
X157000000Y-102100000D02*
X158000000Y-102100000D01*
X158000000Y-101100000D02*
X157000000Y-102100000D01*
X158000000Y-102100000D02*
X158000000Y-101100000D01*
%TO.C,LED25*%
X157000000Y-85100000D02*
X158000000Y-85100000D01*
X158000000Y-84100000D02*
X157000000Y-85100000D01*
X158000000Y-85100000D02*
X158000000Y-84100000D01*
%TO.C,LED20*%
X62000000Y-91600000D02*
X63000000Y-91600000D01*
X63000000Y-90600000D02*
X62000000Y-91600000D01*
X63000000Y-91600000D02*
X63000000Y-90600000D01*
D10*
%TO.C,SW15*%
X148000000Y-63500000D02*
X149000000Y-63500000D01*
X148000000Y-64500000D02*
X148000000Y-63500000D01*
X148000000Y-72000000D02*
X148000000Y-72500000D01*
X148000000Y-76100000D02*
X148000000Y-76700000D01*
X148000000Y-76700000D02*
X152500000Y-76700000D01*
X148000000Y-77500000D02*
X148000000Y-76500000D01*
X149000000Y-77500000D02*
X148000000Y-77500000D01*
X152500000Y-72000000D02*
X148000000Y-72000000D01*
X152500000Y-72700000D02*
X152500000Y-72000000D01*
X153000000Y-77200000D02*
X153000000Y-78200000D01*
X153500000Y-78700000D02*
X153000000Y-78200000D01*
X156500000Y-74200000D02*
X154000000Y-74200000D01*
X156500000Y-78700000D02*
X153500000Y-78700000D01*
X157000000Y-74700000D02*
X156500000Y-74200000D01*
X157000000Y-78200000D02*
X156500000Y-78700000D01*
X161000000Y-63500000D02*
X162000000Y-63500000D01*
X162000000Y-63500000D02*
X162000000Y-64500000D01*
X162000000Y-76500000D02*
X162000000Y-77500000D01*
X162000000Y-77500000D02*
X161000000Y-77500000D01*
X152500000Y-76700000D02*
G75*
G02*
X153000000Y-77200000I-1J-500001D01*
G01*
X154000000Y-74200000D02*
G75*
G02*
X152500000Y-72700000I1J1500001D01*
G01*
%TO.C,SW34*%
X129000000Y-95000000D02*
X130000000Y-95000000D01*
X129000000Y-96000000D02*
X129000000Y-95000000D01*
X129000000Y-103500000D02*
X129000000Y-104000000D01*
X129000000Y-107600000D02*
X129000000Y-108200000D01*
X129000000Y-108200000D02*
X133500000Y-108200000D01*
X129000000Y-109000000D02*
X129000000Y-108000000D01*
X130000000Y-109000000D02*
X129000000Y-109000000D01*
X133500000Y-103500000D02*
X129000000Y-103500000D01*
X133500000Y-104200000D02*
X133500000Y-103500000D01*
X134000000Y-108700000D02*
X134000000Y-109700000D01*
X134500000Y-110200000D02*
X134000000Y-109700000D01*
X137500000Y-105700000D02*
X135000000Y-105700000D01*
X137500000Y-110200000D02*
X134500000Y-110200000D01*
X138000000Y-106200000D02*
X137500000Y-105700000D01*
X138000000Y-109700000D02*
X137500000Y-110200000D01*
X142000000Y-95000000D02*
X143000000Y-95000000D01*
X143000000Y-95000000D02*
X143000000Y-96000000D01*
X143000000Y-108000000D02*
X143000000Y-109000000D01*
X143000000Y-109000000D02*
X142000000Y-109000000D01*
X133500000Y-108200000D02*
G75*
G02*
X134000000Y-108700000I-1J-500001D01*
G01*
X135000000Y-105700000D02*
G75*
G02*
X133500000Y-104200000I1J1500001D01*
G01*
D11*
%TO.C,LED34*%
X133000000Y-95000000D02*
X133000000Y-96000000D01*
X133000000Y-96000000D02*
X134000000Y-95000000D01*
X134000000Y-95000000D02*
X133000000Y-95000000D01*
%TO.C,LED36*%
X157596436Y-119140750D02*
X158907672Y-118610977D01*
X157987167Y-118220245D02*
X157596436Y-119140750D01*
X158907672Y-118610977D02*
X157987167Y-118220245D01*
D10*
%TO.C,SW04*%
X129000000Y-44000000D02*
X130000000Y-44000000D01*
X129000000Y-45000000D02*
X129000000Y-44000000D01*
X129000000Y-52500000D02*
X129000000Y-53000000D01*
X129000000Y-56600000D02*
X129000000Y-57200000D01*
X129000000Y-57200000D02*
X133500000Y-57200000D01*
X129000000Y-58000000D02*
X129000000Y-57000000D01*
X130000000Y-58000000D02*
X129000000Y-58000000D01*
X133500000Y-52500000D02*
X129000000Y-52500000D01*
X133500000Y-53200000D02*
X133500000Y-52500000D01*
X134000000Y-57700000D02*
X134000000Y-58700000D01*
X134500000Y-59200000D02*
X134000000Y-58700000D01*
X137500000Y-54700000D02*
X135000000Y-54700000D01*
X137500000Y-59200000D02*
X134500000Y-59200000D01*
X138000000Y-55200000D02*
X137500000Y-54700000D01*
X138000000Y-58700000D02*
X137500000Y-59200000D01*
X142000000Y-44000000D02*
X143000000Y-44000000D01*
X143000000Y-44000000D02*
X143000000Y-45000000D01*
X143000000Y-57000000D02*
X143000000Y-58000000D01*
X143000000Y-58000000D02*
X142000000Y-58000000D01*
X133500000Y-57200000D02*
G75*
G02*
X134000000Y-57700000I-1J-500001D01*
G01*
X135000000Y-54700000D02*
G75*
G02*
X133500000Y-53200000I1J1500001D01*
G01*
D11*
%TO.C,LED02*%
X95000000Y-44000000D02*
X95000000Y-45000000D01*
X95000000Y-45000000D02*
X96000000Y-44000000D01*
X96000000Y-44000000D02*
X95000000Y-44000000D01*
%TO.C,LED01*%
X76000000Y-53000000D02*
X76000000Y-54000000D01*
X76000000Y-54000000D02*
X77000000Y-53000000D01*
X77000000Y-53000000D02*
X76000000Y-53000000D01*
%TO.C,LED05*%
X157000000Y-51100000D02*
X158000000Y-51100000D01*
X158000000Y-50100000D02*
X157000000Y-51100000D01*
X158000000Y-51100000D02*
X158000000Y-50100000D01*
%TO.C,LED00*%
X62000000Y-57600000D02*
X63000000Y-57600000D01*
X63000000Y-56600000D02*
X62000000Y-57600000D01*
X63000000Y-57600000D02*
X63000000Y-56600000D01*
%TO.C,LED23*%
X119000000Y-80100000D02*
X120000000Y-80100000D01*
X120000000Y-79100000D02*
X119000000Y-80100000D01*
X120000000Y-80100000D02*
X120000000Y-79100000D01*
D10*
%TO.C,SW22*%
X91000000Y-78000000D02*
X92000000Y-78000000D01*
X91000000Y-79000000D02*
X91000000Y-78000000D01*
X91000000Y-86500000D02*
X91000000Y-87000000D01*
X91000000Y-90600000D02*
X91000000Y-91200000D01*
X91000000Y-91200000D02*
X95500000Y-91200000D01*
X91000000Y-92000000D02*
X91000000Y-91000000D01*
X92000000Y-92000000D02*
X91000000Y-92000000D01*
X95500000Y-86500000D02*
X91000000Y-86500000D01*
X95500000Y-87200000D02*
X95500000Y-86500000D01*
X96000000Y-91700000D02*
X96000000Y-92700000D01*
X96500000Y-93200000D02*
X96000000Y-92700000D01*
X99500000Y-88700000D02*
X97000000Y-88700000D01*
X99500000Y-93200000D02*
X96500000Y-93200000D01*
X100000000Y-89200000D02*
X99500000Y-88700000D01*
X100000000Y-92700000D02*
X99500000Y-93200000D01*
X104000000Y-78000000D02*
X105000000Y-78000000D01*
X105000000Y-78000000D02*
X105000000Y-79000000D01*
X105000000Y-91000000D02*
X105000000Y-92000000D01*
X105000000Y-92000000D02*
X104000000Y-92000000D01*
X95500000Y-91200000D02*
G75*
G02*
X96000000Y-91700000I-1J-500001D01*
G01*
X97000000Y-88700000D02*
G75*
G02*
X95500000Y-87200000I1J1500001D01*
G01*
D11*
%TO.C,LED24*%
X133000000Y-78000000D02*
X133000000Y-79000000D01*
X133000000Y-79000000D02*
X134000000Y-78000000D01*
X134000000Y-78000000D02*
X133000000Y-78000000D01*
%TO.C,LED04*%
X133000000Y-44000000D02*
X133000000Y-45000000D01*
X133000000Y-45000000D02*
X134000000Y-44000000D01*
X134000000Y-44000000D02*
X133000000Y-44000000D01*
D10*
%TO.C,SW05*%
X148000000Y-46500000D02*
X149000000Y-46500000D01*
X148000000Y-47500000D02*
X148000000Y-46500000D01*
X148000000Y-55000000D02*
X148000000Y-55500000D01*
X148000000Y-59100000D02*
X148000000Y-59700000D01*
X148000000Y-59700000D02*
X152500000Y-59700000D01*
X148000000Y-60500000D02*
X148000000Y-59500000D01*
X149000000Y-60500000D02*
X148000000Y-60500000D01*
X152500000Y-55000000D02*
X148000000Y-55000000D01*
X152500000Y-55700000D02*
X152500000Y-55000000D01*
X153000000Y-60200000D02*
X153000000Y-61200000D01*
X153500000Y-61700000D02*
X153000000Y-61200000D01*
X156500000Y-57200000D02*
X154000000Y-57200000D01*
X156500000Y-61700000D02*
X153500000Y-61700000D01*
X157000000Y-57700000D02*
X156500000Y-57200000D01*
X157000000Y-61200000D02*
X156500000Y-61700000D01*
X161000000Y-46500000D02*
X162000000Y-46500000D01*
X162000000Y-46500000D02*
X162000000Y-47500000D01*
X162000000Y-59500000D02*
X162000000Y-60500000D01*
X162000000Y-60500000D02*
X161000000Y-60500000D01*
X152500000Y-59700000D02*
G75*
G02*
X153000000Y-60200000I-1J-500001D01*
G01*
X154000000Y-57200000D02*
G75*
G02*
X152500000Y-55700000I1J1500001D01*
G01*
D11*
%TO.C,LED10*%
X62000000Y-74600000D02*
X63000000Y-74600000D01*
X63000000Y-73600000D02*
X62000000Y-74600000D01*
X63000000Y-74600000D02*
X63000000Y-73600000D01*
%TO.C,LED32*%
X95000000Y-95000000D02*
X95000000Y-96000000D01*
X95000000Y-96000000D02*
X96000000Y-95000000D01*
X96000000Y-95000000D02*
X95000000Y-95000000D01*
D10*
%TO.C,SW36*%
X148721348Y-129508416D02*
X149112079Y-128587911D01*
X149033933Y-128772012D02*
X153176205Y-130530302D01*
X149268372Y-128219709D02*
X149033933Y-128772012D01*
X149641853Y-129899147D02*
X148721348Y-129508416D01*
X150870369Y-124445639D02*
X150675004Y-124905892D01*
X153315247Y-132762043D02*
X153050361Y-132106425D01*
X153441092Y-131185920D02*
X153050361Y-132106425D01*
X153800853Y-117541853D02*
X154191584Y-116621348D01*
X154191584Y-116621348D02*
X155112089Y-117012079D01*
X154739129Y-126848283D02*
X155012641Y-126203929D01*
X155012641Y-126203929D02*
X150870369Y-124445639D01*
X156076762Y-133934236D02*
X153315247Y-132762043D01*
X156732380Y-133669350D02*
X156076762Y-133934236D01*
X157835052Y-129791965D02*
X155533790Y-128815137D01*
X158099939Y-130447583D02*
X157835052Y-129791965D01*
X161608416Y-134978652D02*
X160687911Y-134587921D01*
X161999147Y-134058147D02*
X161608416Y-134978652D01*
X166158147Y-121700853D02*
X167078652Y-122091584D01*
X167078652Y-122091584D02*
X166687921Y-123012089D01*
X153176205Y-130530302D02*
G75*
G02*
X153441092Y-131185920I-195366J-460253D01*
G01*
X155533790Y-128815137D02*
G75*
G02*
X154739129Y-126848283I586093J1380756D01*
G01*
D11*
%TO.C,LED12*%
X95000000Y-61000000D02*
X95000000Y-62000000D01*
X95000000Y-62000000D02*
X96000000Y-61000000D01*
X96000000Y-61000000D02*
X95000000Y-61000000D01*
%TO.C,LED15*%
X157000000Y-68100000D02*
X158000000Y-68100000D01*
X158000000Y-67100000D02*
X157000000Y-68100000D01*
X158000000Y-68100000D02*
X158000000Y-67100000D01*
D10*
%TO.C,SW24*%
X129000000Y-78000000D02*
X130000000Y-78000000D01*
X129000000Y-79000000D02*
X129000000Y-78000000D01*
X129000000Y-86500000D02*
X129000000Y-87000000D01*
X129000000Y-90600000D02*
X129000000Y-91200000D01*
X129000000Y-91200000D02*
X133500000Y-91200000D01*
X129000000Y-92000000D02*
X129000000Y-91000000D01*
X130000000Y-92000000D02*
X129000000Y-92000000D01*
X133500000Y-86500000D02*
X129000000Y-86500000D01*
X133500000Y-87200000D02*
X133500000Y-86500000D01*
X134000000Y-91700000D02*
X134000000Y-92700000D01*
X134500000Y-93200000D02*
X134000000Y-92700000D01*
X137500000Y-88700000D02*
X135000000Y-88700000D01*
X137500000Y-93200000D02*
X134500000Y-93200000D01*
X138000000Y-89200000D02*
X137500000Y-88700000D01*
X138000000Y-92700000D02*
X137500000Y-93200000D01*
X142000000Y-78000000D02*
X143000000Y-78000000D01*
X143000000Y-78000000D02*
X143000000Y-79000000D01*
X143000000Y-91000000D02*
X143000000Y-92000000D01*
X143000000Y-92000000D02*
X142000000Y-92000000D01*
X133500000Y-91200000D02*
G75*
G02*
X134000000Y-91700000I-1J-500001D01*
G01*
X135000000Y-88700000D02*
G75*
G02*
X133500000Y-87200000I1J1500001D01*
G01*
%TO.C,SW21*%
X72000000Y-87000000D02*
X73000000Y-87000000D01*
X72000000Y-88000000D02*
X72000000Y-87000000D01*
X72000000Y-95500000D02*
X72000000Y-96000000D01*
X72000000Y-99600000D02*
X72000000Y-100200000D01*
X72000000Y-100200000D02*
X76500000Y-100200000D01*
X72000000Y-101000000D02*
X72000000Y-100000000D01*
X73000000Y-101000000D02*
X72000000Y-101000000D01*
X76500000Y-95500000D02*
X72000000Y-95500000D01*
X76500000Y-96200000D02*
X76500000Y-95500000D01*
X77000000Y-100700000D02*
X77000000Y-101700000D01*
X77500000Y-102200000D02*
X77000000Y-101700000D01*
X80500000Y-97700000D02*
X78000000Y-97700000D01*
X80500000Y-102200000D02*
X77500000Y-102200000D01*
X81000000Y-98200000D02*
X80500000Y-97700000D01*
X81000000Y-101700000D02*
X80500000Y-102200000D01*
X85000000Y-87000000D02*
X86000000Y-87000000D01*
X86000000Y-87000000D02*
X86000000Y-88000000D01*
X86000000Y-100000000D02*
X86000000Y-101000000D01*
X86000000Y-101000000D02*
X85000000Y-101000000D01*
X76500000Y-100200000D02*
G75*
G02*
X77000000Y-100700000I-1J-500001D01*
G01*
X78000000Y-97700000D02*
G75*
G02*
X76500000Y-96200000I1J1500001D01*
G01*
%TO.C,SW37*%
X169237822Y-133362178D02*
X169737822Y-132496152D01*
X169637822Y-132669358D02*
X173534936Y-134919358D01*
X169937822Y-132149742D02*
X169637822Y-132669358D01*
X170103848Y-133862178D02*
X169237822Y-133362178D01*
X171987822Y-128599038D02*
X171737822Y-129032051D01*
X173400962Y-137151408D02*
X173217949Y-136468396D01*
X173717949Y-135602370D02*
X173217949Y-136468396D01*
X175534936Y-131455256D02*
X175884936Y-130849038D01*
X175737822Y-122103848D02*
X176237822Y-121237822D01*
X175884936Y-130849038D02*
X171987822Y-128599038D01*
X175999038Y-138651408D02*
X173400962Y-137151408D01*
X176237822Y-121237822D02*
X177103848Y-121737822D01*
X176682051Y-138468396D02*
X175999038Y-138651408D01*
X178249038Y-134754294D02*
X176083975Y-133504294D01*
X178432051Y-135437307D02*
X178249038Y-134754294D01*
X181362178Y-140362178D02*
X180496152Y-139862178D01*
X181862178Y-139496152D02*
X181362178Y-140362178D01*
X187496152Y-127737822D02*
X188362178Y-128237822D01*
X188362178Y-128237822D02*
X187862178Y-129103848D01*
X173534936Y-134919358D02*
G75*
G02*
X173717949Y-135602370I-250000J-433013D01*
G01*
X176083975Y-133504294D02*
G75*
G02*
X175534936Y-131455256I750002J1299039D01*
G01*
%TO.C,SW03*%
X110000000Y-41500000D02*
X111000000Y-41500000D01*
X110000000Y-42500000D02*
X110000000Y-41500000D01*
X110000000Y-50000000D02*
X110000000Y-50500000D01*
X110000000Y-54100000D02*
X110000000Y-54700000D01*
X110000000Y-54700000D02*
X114500000Y-54700000D01*
X110000000Y-55500000D02*
X110000000Y-54500000D01*
X111000000Y-55500000D02*
X110000000Y-55500000D01*
X114500000Y-50000000D02*
X110000000Y-50000000D01*
X114500000Y-50700000D02*
X114500000Y-50000000D01*
X115000000Y-55200000D02*
X115000000Y-56200000D01*
X115500000Y-56700000D02*
X115000000Y-56200000D01*
X118500000Y-52200000D02*
X116000000Y-52200000D01*
X118500000Y-56700000D02*
X115500000Y-56700000D01*
X119000000Y-52700000D02*
X118500000Y-52200000D01*
X119000000Y-56200000D02*
X118500000Y-56700000D01*
X123000000Y-41500000D02*
X124000000Y-41500000D01*
X124000000Y-41500000D02*
X124000000Y-42500000D01*
X124000000Y-54500000D02*
X124000000Y-55500000D01*
X124000000Y-55500000D02*
X123000000Y-55500000D01*
X114500000Y-54700000D02*
G75*
G02*
X115000000Y-55200000I-1J-500001D01*
G01*
X116000000Y-52200000D02*
G75*
G02*
X114500000Y-50700000I1J1500001D01*
G01*
D12*
%TO.C,J_LEFT1*%
X169795138Y-92627657D02*
X171067930Y-91354865D01*
X171067930Y-91354865D02*
X170484567Y-90771501D01*
X171425019Y-85333850D02*
X172209908Y-84548962D01*
X171767966Y-86440472D02*
X172149804Y-86058635D01*
X172149804Y-86058635D02*
X171425019Y-85333850D01*
X172209908Y-84548962D02*
X186451038Y-98790092D01*
X180228499Y-100515433D02*
X179645135Y-99932070D01*
X184941365Y-98850196D02*
X184559528Y-99232034D01*
X185666150Y-99574981D02*
X184941365Y-98850196D01*
X186451038Y-98790092D02*
X185666150Y-99574981D01*
%TO.C,SR_LEFT1*%
X177050000Y-106940000D02*
X179000000Y-106940000D01*
X177050000Y-117060000D02*
X179000000Y-117060000D01*
X180950000Y-106940000D02*
X179000000Y-106940000D01*
X180950000Y-117060000D02*
X179000000Y-117060000D01*
X176515000Y-117335000D02*
X176035000Y-117335000D01*
X176275000Y-117005000D01*
X176515000Y-117335000D01*
G36*
X176515000Y-117335000D02*
G01*
X176035000Y-117335000D01*
X176275000Y-117005000D01*
X176515000Y-117335000D01*
G37*
%TO.C,JP1*%
X172910000Y-47810000D02*
X178410000Y-47810000D01*
X172910000Y-49760000D02*
X172910000Y-47810000D01*
X178410000Y-47810000D02*
X178410000Y-49760000D01*
X178410000Y-49760000D02*
X172910000Y-49760000D01*
%TO.C,R1*%
X175432936Y-44025000D02*
X175887064Y-44025000D01*
X175432936Y-45495000D02*
X175887064Y-45495000D01*
%TO.C,RN_LEFT1*%
X187300000Y-109880000D02*
X188300000Y-109880000D01*
X187300000Y-114120000D02*
X188300000Y-114120000D01*
%TO.C,R2*%
X175887064Y-52025000D02*
X175432936Y-52025000D01*
X175887064Y-53495000D02*
X175432936Y-53495000D01*
%TD*%
M02*
