%TF.GenerationSoftware,KiCad,Pcbnew,8.0.8-8.0.8-0~ubuntu22.04.1*%
%TF.CreationDate,2025-02-16T14:39:09-06:00*%
%TF.ProjectId,choc_v1_socket_reversible,63686f63-5f76-4315-9f73-6f636b65745f,rev?*%
%TF.SameCoordinates,Original*%
%TF.FileFunction,Soldermask,Top*%
%TF.FilePolarity,Negative*%
%FSLAX46Y46*%
G04 Gerber Fmt 4.6, Leading zero omitted, Abs format (unit mm)*
G04 Created by KiCad (PCBNEW 8.0.8-8.0.8-0~ubuntu22.04.1) date 2025-02-16 14:39:09*
%MOMM*%
%LPD*%
G01*
G04 APERTURE LIST*
G04 Aperture macros list*
%AMRoundRect*
0 Rectangle with rounded corners*
0 $1 Rounding radius*
0 $2 $3 $4 $5 $6 $7 $8 $9 X,Y pos of 4 corners*
0 Add a 4 corners polygon primitive as box body*
4,1,4,$2,$3,$4,$5,$6,$7,$8,$9,$2,$3,0*
0 Add four circle primitives for the rounded corners*
1,1,$1+$1,$2,$3*
1,1,$1+$1,$4,$5*
1,1,$1+$1,$6,$7*
1,1,$1+$1,$8,$9*
0 Add four rect primitives between the rounded corners*
20,1,$1+$1,$2,$3,$4,$5,0*
20,1,$1+$1,$4,$5,$6,$7,0*
20,1,$1+$1,$6,$7,$8,$9,0*
20,1,$1+$1,$8,$9,$2,$3,0*%
%AMRotRect*
0 Rectangle, with rotation*
0 The origin of the aperture is its center*
0 $1 length*
0 $2 width*
0 $3 Rotation angle, in degrees counterclockwise*
0 Add horizontal line*
21,1,$1,$2,0,0,$3*%
%AMFreePoly0*
4,1,6,1.000000,0.000000,0.500000,-0.750000,-0.500000,-0.750000,-0.500000,0.750000,0.500000,0.750000,1.000000,0.000000,1.000000,0.000000,$1*%
%AMFreePoly1*
4,1,6,0.500000,-0.750000,-0.650000,-0.750000,-0.150000,0.000000,-0.650000,0.750000,0.500000,0.750000,0.500000,-0.750000,0.500000,-0.750000,$1*%
G04 Aperture macros list end*
%ADD10C,3.200000*%
%ADD11C,1.701800*%
%ADD12C,0.990600*%
%ADD13C,3.000000*%
%ADD14C,3.429000*%
%ADD15R,2.600000X2.600000*%
%ADD16RoundRect,0.150000X0.150000X-0.587500X0.150000X0.587500X-0.150000X0.587500X-0.150000X-0.587500X0*%
%ADD17RoundRect,0.082000X-0.818000X-0.328000X0.818000X-0.328000X0.818000X0.328000X-0.818000X0.328000X0*%
%ADD18RoundRect,0.082000X0.872409X-0.124944X-0.544409X0.693056X-0.872409X0.124944X0.544409X-0.693056X0*%
%ADD19RoundRect,0.082000X0.818000X0.328000X-0.818000X0.328000X-0.818000X-0.328000X0.818000X-0.328000X0*%
%ADD20RoundRect,0.150000X0.850000X0.150000X-0.850000X0.150000X-0.850000X-0.150000X0.850000X-0.150000X0*%
%ADD21RotRect,0.300000X1.300000X135.000000*%
%ADD22RotRect,2.000000X3.000000X135.000000*%
%ADD23R,0.800000X0.300000*%
%ADD24RoundRect,0.082000X0.881133X-0.017692X-0.624813X0.621544X-0.881133X0.017692X0.624813X-0.621544X0*%
%ADD25FreePoly0,90.000000*%
%ADD26FreePoly1,90.000000*%
%ADD27RotRect,2.600000X2.600000X337.000000*%
%ADD28R,1.600000X1.600000*%
%ADD29O,1.600000X1.600000*%
%ADD30RotRect,2.600000X2.600000X330.000000*%
G04 APERTURE END LIST*
D10*
%TO.C,REF\u002A\u002A*%
X156000000Y-43000000D03*
%TD*%
%TO.C,REF\u002A\u002A*%
X85000000Y-45000000D03*
%TD*%
%TO.C,REF\u002A\u002A*%
X145000000Y-118000000D03*
%TD*%
%TO.C,REF\u002A\u002A*%
X95000000Y-118000000D03*
%TD*%
D11*
%TO.C,SW13*%
X111500000Y-65500000D03*
D12*
X111780000Y-61300000D03*
D13*
X112000000Y-69250000D03*
D14*
X117000000Y-65500000D03*
D13*
X117000000Y-71450000D03*
X122000000Y-69250000D03*
D12*
X122220000Y-61300000D03*
D11*
X122500000Y-65500000D03*
D15*
X113725000Y-71450000D03*
X125275000Y-69250000D03*
%TD*%
D16*
%TO.C,D3031*%
X68550000Y-111937500D03*
X70450000Y-111937500D03*
X69500000Y-110062500D03*
%TD*%
%TO.C,D1415*%
X144550000Y-68937500D03*
X146450000Y-68937500D03*
X145500000Y-67062500D03*
%TD*%
D17*
%TO.C,LED30*%
X56700000Y-107090000D03*
X56700000Y-105510000D03*
X63300000Y-105510000D03*
X63300000Y-107090000D03*
%TD*%
D11*
%TO.C,SW32*%
X92500000Y-102000000D03*
D12*
X92780000Y-97800000D03*
D13*
X93000000Y-105750000D03*
D14*
X98000000Y-102000000D03*
D13*
X98000000Y-107950000D03*
X103000000Y-105750000D03*
D12*
X103220000Y-97800000D03*
D11*
X103500000Y-102000000D03*
D15*
X94725000Y-107950000D03*
X106275000Y-105750000D03*
%TD*%
D16*
%TO.C,D0203*%
X106550000Y-49437500D03*
X108450000Y-49437500D03*
X107500000Y-47562500D03*
%TD*%
%TO.C,D2425*%
X144550000Y-85937500D03*
X146450000Y-85937500D03*
X145500000Y-84062500D03*
%TD*%
D18*
%TO.C,LED37*%
X184402884Y-127682161D03*
X183612884Y-129050481D03*
X177897116Y-125750481D03*
X178687116Y-124382161D03*
%TD*%
D11*
%TO.C,SW33*%
X111500000Y-99500000D03*
D12*
X111780000Y-95300000D03*
D13*
X112000000Y-103250000D03*
D14*
X117000000Y-99500000D03*
D13*
X117000000Y-105450000D03*
X122000000Y-103250000D03*
D12*
X122220000Y-95300000D03*
D11*
X122500000Y-99500000D03*
D15*
X113725000Y-105450000D03*
X125275000Y-103250000D03*
%TD*%
D19*
%TO.C,LED21*%
X82300000Y-88510000D03*
X82300000Y-90090000D03*
X75700000Y-90090000D03*
X75700000Y-88510000D03*
%TD*%
D11*
%TO.C,SW01*%
X73500000Y-60000000D03*
D12*
X73780000Y-55800000D03*
D13*
X74000000Y-63750000D03*
D14*
X79000000Y-60000000D03*
D13*
X79000000Y-65950000D03*
X84000000Y-63750000D03*
D12*
X84220000Y-55800000D03*
D11*
X84500000Y-60000000D03*
D15*
X75725000Y-65950000D03*
X87275000Y-63750000D03*
%TD*%
D19*
%TO.C,LED31*%
X82300000Y-105510000D03*
X82300000Y-107090000D03*
X75700000Y-107090000D03*
X75700000Y-105510000D03*
%TD*%
%TO.C,LED14*%
X139300000Y-62510000D03*
X139300000Y-64090000D03*
X132700000Y-64090000D03*
X132700000Y-62510000D03*
%TD*%
%TO.C,LED11*%
X82300000Y-71510000D03*
X82300000Y-73090000D03*
X75700000Y-73090000D03*
X75700000Y-71510000D03*
%TD*%
D11*
%TO.C,SW35*%
X149500000Y-104500000D03*
D12*
X149780000Y-100300000D03*
D13*
X150000000Y-108250000D03*
D14*
X155000000Y-104500000D03*
D13*
X155000000Y-110450000D03*
X160000000Y-108250000D03*
D12*
X160220000Y-100300000D03*
D11*
X160500000Y-104500000D03*
D15*
X151725000Y-110450000D03*
X163275000Y-108250000D03*
%TD*%
D11*
%TO.C,SW23*%
X111500000Y-82500000D03*
D12*
X111780000Y-78300000D03*
D13*
X112000000Y-86250000D03*
D14*
X117000000Y-82500000D03*
D13*
X117000000Y-88450000D03*
X122000000Y-86250000D03*
D12*
X122220000Y-78300000D03*
D11*
X122500000Y-82500000D03*
D15*
X113725000Y-88450000D03*
X125275000Y-86250000D03*
%TD*%
D11*
%TO.C,SW14*%
X130500000Y-68000000D03*
D12*
X130780000Y-63800000D03*
D13*
X131000000Y-71750000D03*
D14*
X136000000Y-68000000D03*
D13*
X136000000Y-73950000D03*
X141000000Y-71750000D03*
D12*
X141220000Y-63800000D03*
D11*
X141500000Y-68000000D03*
D15*
X132725000Y-73950000D03*
X144275000Y-71750000D03*
%TD*%
D17*
%TO.C,LED33*%
X113700000Y-95590000D03*
X113700000Y-94010000D03*
X120300000Y-94010000D03*
X120300000Y-95590000D03*
%TD*%
D20*
%TO.C,SR_RIGHT1*%
X176500000Y-116445000D03*
X176500000Y-115175000D03*
X176500000Y-113905000D03*
X176500000Y-112635000D03*
X176500000Y-111365000D03*
X176500000Y-110095000D03*
X176500000Y-108825000D03*
X176500000Y-107555000D03*
X171500000Y-107555000D03*
X171500000Y-108825000D03*
X171500000Y-110095000D03*
X171500000Y-111365000D03*
X171500000Y-112635000D03*
X171500000Y-113905000D03*
X171500000Y-115175000D03*
X171500000Y-116445000D03*
%TD*%
D11*
%TO.C,SW30*%
X54500000Y-111000000D03*
D12*
X54780000Y-106800000D03*
D13*
X55000000Y-114750000D03*
D14*
X60000000Y-111000000D03*
D13*
X60000000Y-116950000D03*
X65000000Y-114750000D03*
D12*
X65220000Y-106800000D03*
D11*
X65500000Y-111000000D03*
D15*
X56725000Y-116950000D03*
X68275000Y-114750000D03*
%TD*%
D21*
%TO.C,J_RIGHT1*%
X178671728Y-100121728D03*
X178318175Y-99768174D03*
X177964621Y-99414621D03*
X177611068Y-99061068D03*
X177257515Y-98707514D03*
X176903961Y-98353961D03*
X176550408Y-98000407D03*
X176196854Y-97646854D03*
X175843301Y-97293301D03*
X175489748Y-96939747D03*
X175136194Y-96586194D03*
X174782641Y-96232641D03*
X174429087Y-95879087D03*
X174075534Y-95525534D03*
X173721981Y-95171980D03*
X173368427Y-94818427D03*
X173014874Y-94464874D03*
X172661321Y-94111320D03*
X172307767Y-93757767D03*
X171954214Y-93404213D03*
X171600660Y-93050660D03*
X171247107Y-92697107D03*
X170893554Y-92343553D03*
X170540000Y-91990000D03*
D22*
X181500155Y-99626753D03*
X171034975Y-89161573D03*
%TD*%
D11*
%TO.C,SW20*%
X54500000Y-94000000D03*
D12*
X54780000Y-89800000D03*
D13*
X55000000Y-97750000D03*
D14*
X60000000Y-94000000D03*
D13*
X60000000Y-99950000D03*
X65000000Y-97750000D03*
D12*
X65220000Y-89800000D03*
D11*
X65500000Y-94000000D03*
D15*
X56725000Y-99950000D03*
X68275000Y-97750000D03*
%TD*%
D16*
%TO.C,D1011*%
X68550000Y-77937500D03*
X70450000Y-77937500D03*
X69500000Y-76062500D03*
%TD*%
D11*
%TO.C,SW31*%
X73500000Y-111000000D03*
D12*
X73780000Y-106800000D03*
D13*
X74000000Y-114750000D03*
D14*
X79000000Y-111000000D03*
D13*
X79000000Y-116950000D03*
X84000000Y-114750000D03*
D12*
X84220000Y-106800000D03*
D11*
X84500000Y-111000000D03*
D15*
X75725000Y-116950000D03*
X87275000Y-114750000D03*
%TD*%
D11*
%TO.C,SW02*%
X92500000Y-51000000D03*
D12*
X92780000Y-46800000D03*
D13*
X93000000Y-54750000D03*
D14*
X98000000Y-51000000D03*
D13*
X98000000Y-56950000D03*
X103000000Y-54750000D03*
D12*
X103220000Y-46800000D03*
D11*
X103500000Y-51000000D03*
D15*
X94725000Y-56950000D03*
X106275000Y-54750000D03*
%TD*%
D23*
%TO.C,RN_RIGHT1*%
X186900000Y-113750000D03*
X186900000Y-113250000D03*
X186900000Y-112750000D03*
X186900000Y-112250000D03*
X186900000Y-111750000D03*
X186900000Y-111250000D03*
X186900000Y-110750000D03*
X186900000Y-110250000D03*
X185100000Y-110250000D03*
X185100000Y-110750000D03*
X185100000Y-111250000D03*
X185100000Y-111750000D03*
X185100000Y-112250000D03*
X185100000Y-112750000D03*
X185100000Y-113250000D03*
X185100000Y-113750000D03*
%TD*%
D17*
%TO.C,LED13*%
X113700000Y-61590000D03*
X113700000Y-60010000D03*
X120300000Y-60010000D03*
X120300000Y-61590000D03*
%TD*%
D16*
%TO.C,D2223*%
X106550000Y-83437500D03*
X108450000Y-83437500D03*
X107500000Y-81562500D03*
%TD*%
D11*
%TO.C,SW25*%
X149500000Y-87500000D03*
D12*
X149780000Y-83300000D03*
D13*
X150000000Y-91250000D03*
D14*
X155000000Y-87500000D03*
D13*
X155000000Y-93450000D03*
X160000000Y-91250000D03*
D12*
X160220000Y-83300000D03*
D11*
X160500000Y-87500000D03*
D15*
X151725000Y-93450000D03*
X163275000Y-91250000D03*
%TD*%
D16*
%TO.C,D3435*%
X144550000Y-102937500D03*
X146450000Y-102937500D03*
X145500000Y-101062500D03*
%TD*%
D11*
%TO.C,SW10*%
X54500000Y-77000000D03*
D12*
X54780000Y-72800000D03*
D13*
X55000000Y-80750000D03*
D14*
X60000000Y-77000000D03*
D13*
X60000000Y-82950000D03*
X65000000Y-80750000D03*
D12*
X65220000Y-72800000D03*
D11*
X65500000Y-77000000D03*
D15*
X56725000Y-82950000D03*
X68275000Y-80750000D03*
%TD*%
D11*
%TO.C,SW11*%
X73500000Y-77000000D03*
D12*
X73780000Y-72800000D03*
D13*
X74000000Y-80750000D03*
D14*
X79000000Y-77000000D03*
D13*
X79000000Y-82950000D03*
X84000000Y-80750000D03*
D12*
X84220000Y-72800000D03*
D11*
X84500000Y-77000000D03*
D15*
X75725000Y-82950000D03*
X87275000Y-80750000D03*
%TD*%
D11*
%TO.C,SW12*%
X92500000Y-68000000D03*
D12*
X92780000Y-63800000D03*
D13*
X93000000Y-71750000D03*
D14*
X98000000Y-68000000D03*
D13*
X98000000Y-73950000D03*
X103000000Y-71750000D03*
D12*
X103220000Y-63800000D03*
D11*
X103500000Y-68000000D03*
D15*
X94725000Y-73950000D03*
X106275000Y-71750000D03*
%TD*%
D19*
%TO.C,LED22*%
X101300000Y-79510000D03*
X101300000Y-81090000D03*
X94700000Y-81090000D03*
X94700000Y-79510000D03*
%TD*%
D17*
%TO.C,LED03*%
X113700000Y-44590000D03*
X113700000Y-43010000D03*
X120300000Y-43010000D03*
X120300000Y-44590000D03*
%TD*%
D11*
%TO.C,SW00*%
X54500000Y-60000000D03*
D12*
X54780000Y-55800000D03*
D13*
X55000000Y-63750000D03*
D14*
X60000000Y-60000000D03*
D13*
X60000000Y-65950000D03*
X65000000Y-63750000D03*
D12*
X65220000Y-55800000D03*
D11*
X65500000Y-60000000D03*
D15*
X56725000Y-65950000D03*
X68275000Y-63750000D03*
%TD*%
D17*
%TO.C,LED35*%
X151700000Y-100590000D03*
X151700000Y-99010000D03*
X158300000Y-99010000D03*
X158300000Y-100590000D03*
%TD*%
%TO.C,LED25*%
X151700000Y-83590000D03*
X151700000Y-82010000D03*
X158300000Y-82010000D03*
X158300000Y-83590000D03*
%TD*%
%TO.C,LED20*%
X56700000Y-90090000D03*
X56700000Y-88510000D03*
X63300000Y-88510000D03*
X63300000Y-90090000D03*
%TD*%
D16*
%TO.C,D3233*%
X106550000Y-100437500D03*
X108450000Y-100437500D03*
X107500000Y-98562500D03*
%TD*%
D11*
%TO.C,SW15*%
X149500000Y-70500000D03*
D12*
X149780000Y-66300000D03*
D13*
X150000000Y-74250000D03*
D14*
X155000000Y-70500000D03*
D13*
X155000000Y-76450000D03*
X160000000Y-74250000D03*
D12*
X160220000Y-66300000D03*
D11*
X160500000Y-70500000D03*
D15*
X151725000Y-76450000D03*
X163275000Y-74250000D03*
%TD*%
D11*
%TO.C,SW34*%
X130500000Y-102000000D03*
D12*
X130780000Y-97800000D03*
D13*
X131000000Y-105750000D03*
D14*
X136000000Y-102000000D03*
D13*
X136000000Y-107950000D03*
X141000000Y-105750000D03*
D12*
X141220000Y-97800000D03*
D11*
X141500000Y-102000000D03*
D15*
X132725000Y-107950000D03*
X144275000Y-105750000D03*
%TD*%
D19*
%TO.C,LED34*%
X139300000Y-96510000D03*
X139300000Y-98090000D03*
X132700000Y-98090000D03*
X132700000Y-96510000D03*
%TD*%
D24*
%TO.C,LED36*%
X163196344Y-122071814D03*
X162578988Y-123526212D03*
X156503656Y-120947386D03*
X157121012Y-119492988D03*
%TD*%
D25*
%TO.C,JP2*%
X178250000Y-122000000D03*
D26*
X178250000Y-120550000D03*
%TD*%
D11*
%TO.C,SW04*%
X130500000Y-51000000D03*
D12*
X130780000Y-46800000D03*
D13*
X131000000Y-54750000D03*
D14*
X136000000Y-51000000D03*
D13*
X136000000Y-56950000D03*
X141000000Y-54750000D03*
D12*
X141220000Y-46800000D03*
D11*
X141500000Y-51000000D03*
D15*
X132725000Y-56950000D03*
X144275000Y-54750000D03*
%TD*%
D19*
%TO.C,LED02*%
X101300000Y-45510000D03*
X101300000Y-47090000D03*
X94700000Y-47090000D03*
X94700000Y-45510000D03*
%TD*%
D16*
%TO.C,D1213*%
X106550000Y-66437500D03*
X108450000Y-66437500D03*
X107500000Y-64562500D03*
%TD*%
D19*
%TO.C,LED01*%
X82300000Y-54510000D03*
X82300000Y-56090000D03*
X75700000Y-56090000D03*
X75700000Y-54510000D03*
%TD*%
D17*
%TO.C,LED05*%
X151700000Y-49590000D03*
X151700000Y-48010000D03*
X158300000Y-48010000D03*
X158300000Y-49590000D03*
%TD*%
D16*
%TO.C,D0001*%
X68550000Y-60937500D03*
X70450000Y-60937500D03*
X69500000Y-59062500D03*
%TD*%
D17*
%TO.C,LED00*%
X56700000Y-56090000D03*
X56700000Y-54510000D03*
X63300000Y-54510000D03*
X63300000Y-56090000D03*
%TD*%
%TO.C,LED23*%
X113700000Y-78590000D03*
X113700000Y-77010000D03*
X120300000Y-77010000D03*
X120300000Y-78590000D03*
%TD*%
D11*
%TO.C,SW22*%
X92500000Y-85000000D03*
D12*
X92780000Y-80800000D03*
D13*
X93000000Y-88750000D03*
D14*
X98000000Y-85000000D03*
D13*
X98000000Y-90950000D03*
X103000000Y-88750000D03*
D12*
X103220000Y-80800000D03*
D11*
X103500000Y-85000000D03*
D15*
X94725000Y-90950000D03*
X106275000Y-88750000D03*
%TD*%
D19*
%TO.C,LED24*%
X139300000Y-79510000D03*
X139300000Y-81090000D03*
X132700000Y-81090000D03*
X132700000Y-79510000D03*
%TD*%
%TO.C,LED04*%
X139300000Y-45510000D03*
X139300000Y-47090000D03*
X132700000Y-47090000D03*
X132700000Y-45510000D03*
%TD*%
D11*
%TO.C,SW05*%
X149500000Y-53500000D03*
D12*
X149780000Y-49300000D03*
D13*
X150000000Y-57250000D03*
D14*
X155000000Y-53500000D03*
D13*
X155000000Y-59450000D03*
X160000000Y-57250000D03*
D12*
X160220000Y-49300000D03*
D11*
X160500000Y-53500000D03*
D15*
X151725000Y-59450000D03*
X163275000Y-57250000D03*
%TD*%
D17*
%TO.C,LED10*%
X56700000Y-73090000D03*
X56700000Y-71510000D03*
X63300000Y-71510000D03*
X63300000Y-73090000D03*
%TD*%
D19*
%TO.C,LED32*%
X101300000Y-96510000D03*
X101300000Y-98090000D03*
X94700000Y-98090000D03*
X94700000Y-96510000D03*
%TD*%
D11*
%TO.C,SW36*%
X152837223Y-123650979D03*
D12*
X154736035Y-119894263D03*
D13*
X151832234Y-127298238D03*
D14*
X157900000Y-125800000D03*
D13*
X155575150Y-131277004D03*
X161037283Y-131205549D03*
D12*
X164346106Y-123973496D03*
D11*
X162962777Y-127949021D03*
D27*
X152560495Y-129997359D03*
X164051936Y-132485193D03*
%TD*%
D19*
%TO.C,LED12*%
X101300000Y-62510000D03*
X101300000Y-64090000D03*
X94700000Y-64090000D03*
X94700000Y-62510000D03*
%TD*%
D17*
%TO.C,LED15*%
X151700000Y-66590000D03*
X151700000Y-65010000D03*
X158300000Y-65010000D03*
X158300000Y-66590000D03*
%TD*%
D11*
%TO.C,SW24*%
X130500000Y-85000000D03*
D12*
X130780000Y-80800000D03*
D13*
X131000000Y-88750000D03*
D14*
X136000000Y-85000000D03*
D13*
X136000000Y-90950000D03*
X141000000Y-88750000D03*
D12*
X141220000Y-80800000D03*
D11*
X141500000Y-85000000D03*
D15*
X132725000Y-90950000D03*
X144275000Y-88750000D03*
%TD*%
D11*
%TO.C,SW21*%
X73500000Y-94000000D03*
D12*
X73780000Y-89800000D03*
D13*
X74000000Y-97750000D03*
D14*
X79000000Y-94000000D03*
D13*
X79000000Y-99950000D03*
X84000000Y-97750000D03*
D12*
X84220000Y-89800000D03*
D11*
X84500000Y-94000000D03*
D15*
X75725000Y-99950000D03*
X87275000Y-97750000D03*
%TD*%
D28*
%TO.C,U1*%
X168060000Y-42760000D03*
D29*
X168060000Y-45300000D03*
X168060000Y-47840000D03*
X168060000Y-50380000D03*
X168060000Y-52920000D03*
X168060000Y-55460000D03*
X168060000Y-58000000D03*
X168060000Y-60540000D03*
X168060000Y-63080000D03*
X168060000Y-65620000D03*
X168060000Y-68160000D03*
X168060000Y-70700000D03*
X183300000Y-70700000D03*
X183300000Y-68160000D03*
X183300000Y-65620000D03*
X183300000Y-63080000D03*
X183300000Y-60540000D03*
X183300000Y-58000000D03*
X183300000Y-55460000D03*
X183300000Y-52920000D03*
X183300000Y-50380000D03*
X183300000Y-47840000D03*
X183300000Y-45300000D03*
X183300000Y-42760000D03*
%TD*%
D16*
%TO.C,D3637*%
X167400000Y-126737500D03*
X169300000Y-126737500D03*
X168350000Y-124862500D03*
%TD*%
D11*
%TO.C,SW37*%
X174036860Y-128050000D03*
D12*
X176379347Y-124552693D03*
D13*
X172594873Y-131547595D03*
D14*
X178800000Y-130800000D03*
D13*
X175825000Y-135952851D03*
X181255127Y-136547595D03*
D12*
X185420653Y-129772693D03*
D11*
X183563140Y-133550000D03*
D30*
X172988767Y-134315351D03*
X184091360Y-138185095D03*
%TD*%
D16*
%TO.C,D2021*%
X68550000Y-94937500D03*
X70450000Y-94937500D03*
X69500000Y-93062500D03*
%TD*%
%TO.C,D0405*%
X144550000Y-51937500D03*
X146450000Y-51937500D03*
X145500000Y-50062500D03*
%TD*%
D11*
%TO.C,SW03*%
X111500000Y-48500000D03*
D12*
X111780000Y-44300000D03*
D13*
X112000000Y-52250000D03*
D14*
X117000000Y-48500000D03*
D13*
X117000000Y-54450000D03*
X122000000Y-52250000D03*
D12*
X122220000Y-44300000D03*
D11*
X122500000Y-48500000D03*
D15*
X113725000Y-54450000D03*
X125275000Y-52250000D03*
%TD*%
M02*
