M48
; DRILL file {KiCad 8.0.8-8.0.8-0~ubuntu22.04.1} date 2025-02-14T18:00:21-0600
; FORMAT={-:-/ absolute / inch / decimal}
; #@! TF.CreationDate,2025-02-14T18:00:21-06:00
; #@! TF.GenerationSoftware,Kicad,Pcbnew,8.0.8-8.0.8-0~ubuntu22.04.1
; #@! TF.FileFunction,Plated,1,2,PTH
FMAT,2
INCH
; #@! TA.AperFunction,Plated,PTH,ViaDrill
T1C0.0118
; #@! TA.AperFunction,Plated,PTH,ComponentDrill
T2C0.0118
; #@! TA.AperFunction,Plated,PTH,ComponentDrill
T3C0.0315
%
G90
G05
T1
X2.2323Y-2.1772
X2.2323Y-2.8465
X2.2323Y-3.5157
X2.2323Y-4.185
X2.2756Y-2.5197
X2.2756Y-3.189
X2.2756Y-3.8583
X2.2756Y-4.5276
X2.4449Y-2.7598
X2.4449Y-3.4291
X2.4449Y-4.0984
X2.4488Y-4.6831
X2.4803Y-2.1772
X2.4803Y-2.8465
X2.4803Y-3.5157
X2.4803Y-4.185
X2.5039Y-2.1772
X2.5039Y-2.8465
X2.5039Y-3.5157
X2.5039Y-4.185
X2.9685Y-2.1772
X2.9685Y-2.8465
X2.9685Y-3.5157
X2.9685Y-4.185
X2.9813Y-4.6909
X2.9921Y-2.1772
X2.9921Y-2.8465
X2.9921Y-3.5157
X2.9921Y-4.185
X3.0236Y-2.5197
X3.0236Y-3.189
X3.0236Y-3.8583
X3.0236Y-4.5276
X3.1929Y-2.7598
X3.1929Y-3.4291
X3.1929Y-4.0984
X3.2402Y-2.1772
X3.2402Y-2.8465
X3.2402Y-3.5157
X3.2402Y-4.185
X3.3091Y-2.6969
X3.4331Y-2.4409
X3.4331Y-3.1102
X3.4331Y-3.7795
X3.4331Y-4.4488
X3.7165Y-1.8228
X3.7165Y-2.4921
X3.7165Y-3.1614
X3.7165Y-3.8307
X3.7293Y-4.3366
X3.7402Y-1.8228
X3.7402Y-2.4921
X3.7402Y-3.1614
X3.7402Y-3.8307
X3.7717Y-2.1654
X3.7717Y-2.8346
X3.7717Y-3.5039
X3.7717Y-4.1732
X3.9409Y-2.4055
X3.9409Y-3.0748
X3.9409Y-3.7441
X3.9882Y-1.8228
X3.9882Y-2.4921
X3.9882Y-3.1614
X3.9882Y-3.8307
X4.3996Y-1.7933
X4.4764Y-1.7244
X4.4764Y-2.3937
X4.4764Y-3.063
X4.4764Y-3.7323
X4.4774Y-4.2756
X4.5197Y-2.0669
X4.5197Y-2.7362
X4.5197Y-3.4055
X4.5197Y-4.0748
X4.689Y-2.3071
X4.689Y-2.9764
X4.689Y-3.6457
X4.7244Y-1.7244
X4.7244Y-2.3937
X4.7244Y-3.063
X4.7244Y-3.7323
X4.748Y-1.7244
X4.748Y-2.3937
X4.748Y-3.063
X4.748Y-3.7323
X4.9291Y-1.9882
X4.9291Y-2.6575
X4.9291Y-3.3268
X4.9291Y-3.9961
X5.2126Y-1.8228
X5.2126Y-2.4921
X5.2126Y-3.1614
X5.2126Y-3.8307
X5.2254Y-4.3839
X5.2362Y-1.8228
X5.2362Y-2.4921
X5.2362Y-3.1614
X5.2362Y-3.8307
X5.2677Y-2.1654
X5.2677Y-2.8346
X5.2677Y-3.5039
X5.2677Y-4.1732
X5.437Y-2.4055
X5.437Y-3.0748
X5.437Y-3.7441
X5.4843Y-1.8228
X5.4843Y-2.4921
X5.4843Y-3.1614
X5.4843Y-3.8307
X5.7402Y-4.4272
X5.8799Y-3.8976
X5.9232Y-2.002
X5.9724Y-1.9213
X5.9724Y-2.5906
X5.9724Y-3.2598
X5.9724Y-3.9291
X5.9734Y-4.437
X6.0157Y-2.2638
X6.0157Y-2.9331
X6.0157Y-3.6024
X6.0157Y-4.2717
X6.1358Y-4.6594
X6.1761Y-5.1015
X6.185Y-2.5039
X6.185Y-3.1732
X6.185Y-3.8425
X6.1859Y-4.8186
X6.2205Y-1.9213
X6.2205Y-2.5906
X6.2205Y-3.2598
X6.2205Y-3.9291
X6.2441Y-1.9213
X6.2441Y-2.5906
X6.2441Y-3.2598
X6.2441Y-3.9291
X6.378Y-4.0039
X6.4252Y-2.185
X6.4252Y-2.8543
X6.4252Y-3.5236
X6.4252Y-4.1929
X6.4862Y-3.7244
X6.498Y-4.8535
X6.5069Y-3.3602
X6.5748Y-2.0472
X6.6811Y-4.3344
X6.6811Y-4.3839
X6.6811Y-4.4311
X6.6811Y-4.4705
X6.6811Y-4.5844
X6.7889Y-3.5742
X6.8167Y-3.602
X6.8307Y-4.5591
X6.8446Y-3.6298
X6.8543Y-4.1929
X6.8724Y-3.6577
X6.8805Y-4.4344
X6.8819Y-4.4844
X6.8819Y-4.5344
X6.8819Y-4.5844
X6.8976Y-5.2009
X6.9003Y-3.6855
X6.9173Y-4.9508
X6.9281Y-3.7134
X6.9559Y-3.7412
X6.9646Y-4.1496
X6.9723Y-4.8825
X6.9838Y-3.769
X7.0116Y-3.7969
X7.0276Y-4.3844
X7.0395Y-3.8247
X7.065Y-1.9232
X7.0728Y-4.3344
X7.0807Y-4.2844
X7.2411Y-5.3612
X7.2874Y-4.5844
X7.3228Y-4.3602
X7.3228Y-4.3996
X7.3228Y-4.439
X7.3228Y-4.4783
X7.3248Y-5.0807
X7.3937Y-4.3406
X7.3937Y-4.3799
X7.3937Y-4.4193
X7.3937Y-4.4587
T2
X2.6988Y-2.3991
X2.6988Y-3.0684
X2.6988Y-3.7377
X2.6988Y-4.407
X2.7362Y-2.3253
X2.7362Y-2.9946
X2.7362Y-3.6639
X2.7362Y-4.3332
X2.7736Y-2.3991
X2.7736Y-3.0684
X2.7736Y-3.7377
X2.7736Y-4.407
X4.1949Y-1.9464
X4.1949Y-2.6156
X4.1949Y-3.2849
X4.1949Y-3.9542
X4.2323Y-1.8725
X4.2323Y-2.5418
X4.2323Y-3.2111
X4.2323Y-3.8804
X4.2697Y-1.9464
X4.2697Y-2.6156
X4.2697Y-3.2849
X4.2697Y-3.9542
X5.6909Y-2.0448
X5.6909Y-2.7141
X5.6909Y-3.3834
X5.6909Y-4.0527
X5.7283Y-1.971
X5.7283Y-2.6403
X5.7283Y-3.3095
X5.7283Y-3.9788
X5.7657Y-2.0448
X5.7657Y-2.7141
X5.7657Y-3.3834
X5.7657Y-4.0527
X6.5906Y-4.9897
X6.628Y-4.9158
X6.6654Y-4.9897
T3
X6.6165Y-1.6835
X6.6165Y-1.7835
X6.6165Y-1.8835
X6.6165Y-1.9835
X6.6165Y-2.0835
X6.6165Y-2.1835
X6.6165Y-2.2835
X6.6165Y-2.3835
X6.6165Y-2.4835
X6.6165Y-2.5835
X6.6165Y-2.6835
X6.6165Y-2.7835
X7.2165Y-1.6835
X7.2165Y-1.7835
X7.2165Y-1.8835
X7.2165Y-1.9835
X7.2165Y-2.0835
X7.2165Y-2.1835
X7.2165Y-2.2835
X7.2165Y-2.3835
X7.2165Y-2.4835
X7.2165Y-2.5835
X7.2165Y-2.6835
X7.2165Y-2.7835
M30
