%TF.GenerationSoftware,KiCad,Pcbnew,8.0.8-8.0.8-0~ubuntu22.04.1*%
%TF.CreationDate,2025-02-14T18:00:16-06:00*%
%TF.ProjectId,choc_v1_socket_reversible,63686f63-5f76-4315-9f73-6f636b65745f,rev?*%
%TF.SameCoordinates,Original*%
%TF.FileFunction,Profile,NP*%
%FSLAX46Y46*%
G04 Gerber Fmt 4.6, Leading zero omitted, Abs format (unit mm)*
G04 Created by KiCad (PCBNEW 8.0.8-8.0.8-0~ubuntu22.04.1) date 2025-02-14 18:00:16*
%MOMM*%
%LPD*%
G01*
G04 APERTURE LIST*
%TA.AperFunction,Profile*%
%ADD10C,0.100000*%
%TD*%
%TA.AperFunction,Profile*%
%ADD11C,0.050000*%
%TD*%
G04 APERTURE END LIST*
D10*
X185800000Y-38500000D02*
X58000000Y-38500000D01*
X187433409Y-138215354D02*
X192677612Y-129389046D01*
X185800000Y-38500000D02*
G75*
G02*
X193800000Y-46500000I0J-8000000D01*
G01*
X193800000Y-125302672D02*
X193800000Y-46500000D01*
X187433409Y-138215354D02*
G75*
G02*
X179271520Y-142025228I-6877609J4086354D01*
G01*
X193800000Y-125302672D02*
G75*
G02*
X192677624Y-129389053I-8000000J-28D01*
G01*
X56715725Y-122092272D02*
G75*
G02*
X49999970Y-114196030I1284275J7896272D01*
G01*
X193800000Y-38500000D02*
X193800000Y-38500000D01*
X50000000Y-46500000D02*
G75*
G02*
X58000000Y-38500000I8000000J0D01*
G01*
X50000000Y-46500000D02*
X50000000Y-114196030D01*
X56715725Y-122092272D02*
X179271521Y-142025223D01*
%TO.C,LED30*%
D11*
X61700000Y-107800000D02*
X58300000Y-107800000D01*
X58300000Y-104800000D01*
X61700000Y-104800000D01*
X61700000Y-107800000D01*
%TO.C,LED37*%
X183372243Y-126267283D02*
X181872243Y-128865359D01*
X178927757Y-127165359D01*
X180427757Y-124567283D01*
X183372243Y-126267283D01*
%TO.C,LED21*%
X77300000Y-87800000D02*
X80700000Y-87800000D01*
X80700000Y-90800000D01*
X77300000Y-90800000D01*
X77300000Y-87800000D01*
%TO.C,LED31*%
X77300000Y-104800000D02*
X80700000Y-104800000D01*
X80700000Y-107800000D01*
X77300000Y-107800000D01*
X77300000Y-104800000D01*
%TO.C,LED14*%
X134300000Y-61800000D02*
X137700000Y-61800000D01*
X137700000Y-64800000D01*
X134300000Y-64800000D01*
X134300000Y-61800000D01*
%TO.C,LED11*%
X77300000Y-70800000D02*
X80700000Y-70800000D01*
X80700000Y-73800000D01*
X77300000Y-73800000D01*
X77300000Y-70800000D01*
%TO.C,LED33*%
X118700000Y-96300000D02*
X115300000Y-96300000D01*
X115300000Y-93300000D01*
X118700000Y-93300000D01*
X118700000Y-96300000D01*
%TO.C,LED13*%
X118700000Y-62300000D02*
X115300000Y-62300000D01*
X115300000Y-59300000D01*
X118700000Y-59300000D01*
X118700000Y-62300000D01*
%TO.C,LED22*%
X96300000Y-78800000D02*
X99700000Y-78800000D01*
X99700000Y-81800000D01*
X96300000Y-81800000D01*
X96300000Y-78800000D01*
%TO.C,LED03*%
X118700000Y-45300000D02*
X115300000Y-45300000D01*
X115300000Y-42300000D01*
X118700000Y-42300000D01*
X118700000Y-45300000D01*
%TO.C,LED35*%
X156700000Y-101300000D02*
X153300000Y-101300000D01*
X153300000Y-98300000D01*
X156700000Y-98300000D01*
X156700000Y-101300000D01*
%TO.C,LED25*%
X156700000Y-84300000D02*
X153300000Y-84300000D01*
X153300000Y-81300000D01*
X156700000Y-81300000D01*
X156700000Y-84300000D01*
%TO.C,LED20*%
X61700000Y-90800000D02*
X58300000Y-90800000D01*
X58300000Y-87800000D01*
X61700000Y-87800000D01*
X61700000Y-90800000D01*
%TO.C,LED34*%
X134300000Y-95800000D02*
X137700000Y-95800000D01*
X137700000Y-98800000D01*
X134300000Y-98800000D01*
X134300000Y-95800000D01*
%TO.C,LED36*%
X162000955Y-120793086D02*
X160828762Y-123554600D01*
X157699045Y-122226114D01*
X158871238Y-119464600D01*
X162000955Y-120793086D01*
%TO.C,LED02*%
X96300000Y-44800000D02*
X99700000Y-44800000D01*
X99700000Y-47800000D01*
X96300000Y-47800000D01*
X96300000Y-44800000D01*
%TO.C,LED01*%
X77300000Y-53800000D02*
X80700000Y-53800000D01*
X80700000Y-56800000D01*
X77300000Y-56800000D01*
X77300000Y-53800000D01*
%TO.C,LED05*%
X156700000Y-50300000D02*
X153300000Y-50300000D01*
X153300000Y-47300000D01*
X156700000Y-47300000D01*
X156700000Y-50300000D01*
%TO.C,LED00*%
X61700000Y-56800000D02*
X58300000Y-56800000D01*
X58300000Y-53800000D01*
X61700000Y-53800000D01*
X61700000Y-56800000D01*
%TO.C,LED23*%
X118700000Y-79300000D02*
X115300000Y-79300000D01*
X115300000Y-76300000D01*
X118700000Y-76300000D01*
X118700000Y-79300000D01*
%TO.C,LED24*%
X134300000Y-78800000D02*
X137700000Y-78800000D01*
X137700000Y-81800000D01*
X134300000Y-81800000D01*
X134300000Y-78800000D01*
%TO.C,LED04*%
X134300000Y-44800000D02*
X137700000Y-44800000D01*
X137700000Y-47800000D01*
X134300000Y-47800000D01*
X134300000Y-44800000D01*
%TO.C,LED10*%
X61700000Y-73800000D02*
X58300000Y-73800000D01*
X58300000Y-70800000D01*
X61700000Y-70800000D01*
X61700000Y-73800000D01*
%TO.C,LED32*%
X96300000Y-95800000D02*
X99700000Y-95800000D01*
X99700000Y-98800000D01*
X96300000Y-98800000D01*
X96300000Y-95800000D01*
%TO.C,LED12*%
X96300000Y-61800000D02*
X99700000Y-61800000D01*
X99700000Y-64800000D01*
X96300000Y-64800000D01*
X96300000Y-61800000D01*
%TO.C,LED15*%
X156700000Y-67300000D02*
X153300000Y-67300000D01*
X153300000Y-64300000D01*
X156700000Y-64300000D01*
X156700000Y-67300000D01*
%TD*%
M02*
