M48
; DRILL file {KiCad 8.0.8-8.0.8-0~ubuntu22.04.1} date 2025-01-26T06:24:12-0600
; FORMAT={-:-/ absolute / inch / decimal}
; #@! TF.CreationDate,2025-01-26T06:24:12-06:00
; #@! TF.GenerationSoftware,Kicad,Pcbnew,8.0.8-8.0.8-0~ubuntu22.04.1
; #@! TF.FileFunction,NonPlated,1,2,NPTH
FMAT,2
INCH
; #@! TA.AperFunction,NonPlated,NPTH,ComponentDrill
T1C0.0670
; #@! TA.AperFunction,NonPlated,NPTH,ComponentDrill
T2C0.1570
%
G90
G05
T1
X2.1622Y-2.3622
X2.1622Y-3.1122
X2.1622Y-3.8622
X2.1622Y-4.6122
X2.5622Y-2.3622
X2.5622Y-3.1122
X2.5622Y-3.8622
X2.5622Y-4.6122
X2.9122Y-2.3622
X2.9122Y-3.1122
X2.9122Y-3.8622
X2.9122Y-4.6122
X3.3122Y-2.3622
X3.3122Y-3.1122
X3.3122Y-3.8622
X3.3122Y-4.6122
X3.6622Y-2.0079
X3.6622Y-2.7579
X3.6622Y-3.5079
X3.6622Y-4.2579
X4.0622Y-2.0079
X4.0622Y-2.7579
X4.0622Y-3.5079
X4.0622Y-4.2579
X4.4122Y-1.9094
X4.4122Y-2.6594
X4.4122Y-3.4094
X4.4122Y-4.1594
X4.8122Y-1.9094
X4.8122Y-2.6594
X4.8122Y-3.4094
X4.8122Y-4.1594
X5.1622Y-2.0079
X5.1622Y-2.7579
X5.1622Y-3.5079
X5.1622Y-4.2579
X5.5622Y-2.0079
X5.5622Y-2.7579
X5.5622Y-3.5079
X5.5622Y-4.2579
X5.9122Y-2.1063
X5.9122Y-2.8563
X5.9122Y-3.6063
X5.9122Y-4.3563
X6.0423Y-5.1167
X6.3122Y-2.1063
X6.3122Y-2.8563
X6.3122Y-3.6063
X6.3122Y-4.3563
X6.4105Y-5.273
X6.9492Y-5.5649
X7.1492Y-5.2185
T2
X2.3622Y-2.3622
X2.3622Y-3.1122
X2.3622Y-3.8622
X2.3622Y-4.6122
X3.1122Y-2.3622
X3.1122Y-3.1122
X3.1122Y-3.8622
X3.1122Y-4.6122
X3.8622Y-2.0079
X3.8622Y-2.7579
X3.8622Y-3.5079
X3.8622Y-4.2579
X4.6122Y-1.9094
X4.6122Y-2.6594
X4.6122Y-3.4094
X4.6122Y-4.1594
X5.3622Y-2.0079
X5.3622Y-2.7579
X5.3622Y-3.5079
X5.3622Y-4.2579
X6.1122Y-2.1063
X6.1122Y-2.8563
X6.1122Y-3.6063
X6.1122Y-4.3563
X6.2264Y-5.1949
X7.0492Y-5.3917
M30
