%TF.GenerationSoftware,KiCad,Pcbnew,8.0.8-8.0.8-0~ubuntu22.04.1*%
%TF.CreationDate,2025-01-26T06:24:24-06:00*%
%TF.ProjectId,kbd,6b62642e-6b69-4636-9164-5f7063625858,rev?*%
%TF.SameCoordinates,Original*%
%TF.FileFunction,Soldermask,Top*%
%TF.FilePolarity,Negative*%
%FSLAX46Y46*%
G04 Gerber Fmt 4.6, Leading zero omitted, Abs format (unit mm)*
G04 Created by KiCad (PCBNEW 8.0.8-8.0.8-0~ubuntu22.04.1) date 2025-01-26 06:24:24*
%MOMM*%
%LPD*%
G01*
G04 APERTURE LIST*
G04 Aperture macros list*
%AMRoundRect*
0 Rectangle with rounded corners*
0 $1 Rounding radius*
0 $2 $3 $4 $5 $6 $7 $8 $9 X,Y pos of 4 corners*
0 Add a 4 corners polygon primitive as box body*
4,1,4,$2,$3,$4,$5,$6,$7,$8,$9,$2,$3,0*
0 Add four circle primitives for the rounded corners*
1,1,$1+$1,$2,$3*
1,1,$1+$1,$4,$5*
1,1,$1+$1,$6,$7*
1,1,$1+$1,$8,$9*
0 Add four rect primitives between the rounded corners*
20,1,$1+$1,$2,$3,$4,$5,0*
20,1,$1+$1,$4,$5,$6,$7,0*
20,1,$1+$1,$6,$7,$8,$9,0*
20,1,$1+$1,$8,$9,$2,$3,0*%
G04 Aperture macros list end*
%ADD10RoundRect,0.082000X0.818000X0.328000X-0.818000X0.328000X-0.818000X-0.328000X0.818000X-0.328000X0*%
%ADD11RoundRect,0.082000X-0.818000X-0.328000X0.818000X-0.328000X0.818000X0.328000X-0.818000X0.328000X0*%
%ADD12C,1.701800*%
%ADD13C,3.987800*%
%ADD14C,2.286000*%
%ADD15RoundRect,0.150000X-0.150000X0.850000X-0.150000X-0.850000X0.150000X-0.850000X0.150000X0.850000X0*%
%ADD16R,2.000000X0.610000*%
%ADD17R,3.600000X2.680000*%
%ADD18R,1.600000X1.600000*%
%ADD19O,1.600000X1.600000*%
%ADD20RoundRect,0.082000X0.124944X0.872409X-0.693056X-0.544409X-0.124944X-0.872409X0.693056X0.544409X0*%
%ADD21R,0.300000X0.800000*%
%ADD22RoundRect,0.082000X0.881133X-0.017692X-0.624813X0.621544X-0.881133X0.017692X0.624813X-0.621544X0*%
%ADD23RoundRect,0.150000X-0.150000X0.587500X-0.150000X-0.587500X0.150000X-0.587500X0.150000X0.587500X0*%
G04 APERTURE END LIST*
D10*
%TO.C,LED35*%
X158150000Y-115160000D03*
X158150000Y-116740000D03*
X152350000Y-116740000D03*
X152350000Y-115160000D03*
%TD*%
D11*
%TO.C,LED01*%
X76150000Y-66090000D03*
X76150000Y-64510000D03*
X81950000Y-64510000D03*
X81950000Y-66090000D03*
%TD*%
D12*
%TO.C,SW04*%
X131120000Y-51000000D03*
D13*
X136200000Y-51000000D03*
D12*
X141280000Y-51000000D03*
D14*
X133660000Y-45920000D03*
X138740000Y-45920000D03*
X132390000Y-48460000D03*
X140010000Y-48460000D03*
%TD*%
D11*
%TO.C,LED04*%
X133300000Y-57090000D03*
X133300000Y-55510000D03*
X139100000Y-55510000D03*
X139100000Y-57090000D03*
%TD*%
D10*
%TO.C,LED30*%
X62900000Y-121660000D03*
X62900000Y-123240000D03*
X57100000Y-123240000D03*
X57100000Y-121660000D03*
%TD*%
D11*
%TO.C,LED20*%
X57100000Y-104189999D03*
X57100000Y-102609999D03*
X62900000Y-102609999D03*
X62900000Y-104189999D03*
%TD*%
D12*
%TO.C,SW05*%
X150170000Y-53500000D03*
D13*
X155250000Y-53500000D03*
D12*
X160330000Y-53500000D03*
D14*
X152710000Y-48420000D03*
X157790000Y-48420000D03*
X151440000Y-50960000D03*
X159060000Y-50960000D03*
%TD*%
D15*
%TO.C,U4*%
X129445000Y-124500000D03*
X128175000Y-124500000D03*
X126905000Y-124500000D03*
X125635000Y-124500000D03*
X124365000Y-124500000D03*
X123095000Y-124500000D03*
X121825000Y-124500000D03*
X120555000Y-124500000D03*
X120555000Y-129500000D03*
X121825000Y-129500000D03*
X123095000Y-129500000D03*
X124365000Y-129500000D03*
X125635000Y-129500000D03*
X126905000Y-129500000D03*
X128175000Y-129500000D03*
X129445000Y-129500000D03*
%TD*%
D12*
%TO.C,SW13*%
X112070000Y-67550000D03*
D13*
X117150000Y-67550000D03*
D12*
X122230000Y-67550000D03*
D14*
X114610000Y-62470000D03*
X119690000Y-62470000D03*
X113340000Y-65010000D03*
X120960000Y-65010000D03*
%TD*%
D12*
%TO.C,SW33*%
X112070000Y-105650000D03*
D13*
X117150000Y-105650000D03*
D12*
X122230000Y-105650000D03*
D14*
X114610000Y-100570000D03*
X119690000Y-100570000D03*
X113340000Y-103110000D03*
X120960000Y-103110000D03*
%TD*%
D16*
%TO.C,J2*%
X183700000Y-120500000D03*
X183700000Y-119500000D03*
X183700000Y-118500000D03*
X183700000Y-117500000D03*
X183700000Y-116500000D03*
X183700000Y-115500000D03*
X183700000Y-114500000D03*
X183700000Y-113500000D03*
X183700000Y-112500000D03*
X183700000Y-111500000D03*
X183700000Y-110500000D03*
X183700000Y-109500000D03*
D17*
X186500000Y-123490000D03*
X186500000Y-106510000D03*
%TD*%
D12*
%TO.C,SW37*%
X176510000Y-141349409D03*
D13*
X179050000Y-136950000D03*
D12*
X181590000Y-132550591D03*
D14*
X173380591Y-136609705D03*
X175920591Y-132210295D03*
X174945295Y-138979557D03*
X178755295Y-132380443D03*
%TD*%
D12*
%TO.C,SW15*%
X150170000Y-72550000D03*
D13*
X155250000Y-72550000D03*
D12*
X160330000Y-72550000D03*
D14*
X152710000Y-67470000D03*
X157790000Y-67470000D03*
X151440000Y-70010000D03*
X159060000Y-70010000D03*
%TD*%
D10*
%TO.C,LED13*%
X120050000Y-72060000D03*
X120050000Y-73640000D03*
X114250000Y-73640000D03*
X114250000Y-72060000D03*
%TD*%
D12*
%TO.C,SW14*%
X131120000Y-70050000D03*
D13*
X136200000Y-70050000D03*
D12*
X141280000Y-70050000D03*
D14*
X133660000Y-64970000D03*
X138740000Y-64970000D03*
X132390000Y-67510000D03*
X140010000Y-67510000D03*
%TD*%
D12*
%TO.C,SW31*%
X73970000Y-117150000D03*
D13*
X79050000Y-117150000D03*
D12*
X84130000Y-117150000D03*
D14*
X76510000Y-112070000D03*
X81590000Y-112070000D03*
X75240000Y-114610000D03*
X82860000Y-114610000D03*
%TD*%
D12*
%TO.C,SW03*%
X112070000Y-48500000D03*
D13*
X117150000Y-48500000D03*
D12*
X122230000Y-48500000D03*
D14*
X114610000Y-43420000D03*
X119690000Y-43420000D03*
X113340000Y-45960000D03*
X120960000Y-45960000D03*
%TD*%
D18*
%TO.C,U1*%
X175375000Y-45280000D03*
D19*
X175375000Y-47820000D03*
X175375000Y-50360000D03*
X175375000Y-52900000D03*
X175375000Y-55440000D03*
X175375000Y-57980000D03*
X175375000Y-60520000D03*
X175375000Y-63060000D03*
X175375000Y-65600000D03*
X175375000Y-68140000D03*
X175375000Y-70680000D03*
X175375000Y-73220000D03*
X190615000Y-73220000D03*
X190615000Y-70680000D03*
X190615000Y-68140000D03*
X190615000Y-65600000D03*
X190615000Y-63060000D03*
X190615000Y-60520000D03*
X190615000Y-57980000D03*
X190615000Y-55440000D03*
X190615000Y-52900000D03*
X190615000Y-50360000D03*
X190615000Y-47820000D03*
X190615000Y-45280000D03*
%TD*%
D10*
%TO.C,LED32*%
X101000000Y-112660000D03*
X101000000Y-114240000D03*
X95200000Y-114240000D03*
X95200000Y-112660000D03*
%TD*%
D11*
%TO.C,LED21*%
X76150000Y-104189999D03*
X76150000Y-102609999D03*
X81950000Y-102609999D03*
X81950000Y-104189999D03*
%TD*%
D12*
%TO.C,SW24*%
X131120000Y-89100000D03*
D13*
X136200000Y-89100000D03*
D12*
X141280000Y-89100000D03*
D14*
X133660000Y-84020000D03*
X138740000Y-84020000D03*
X132390000Y-86560000D03*
X140010000Y-86560000D03*
%TD*%
D20*
%TO.C,LED37*%
X184405840Y-136683526D03*
X185774160Y-137473526D03*
X182874160Y-142496474D03*
X181505840Y-141706474D03*
%TD*%
D12*
%TO.C,SW21*%
X73970000Y-98100000D03*
D13*
X79050000Y-98100000D03*
D12*
X84130000Y-98100000D03*
D14*
X76510000Y-93020000D03*
X81590000Y-93020000D03*
X75240000Y-95560000D03*
X82860000Y-95560000D03*
%TD*%
D11*
%TO.C,LED23*%
X114250000Y-92689999D03*
X114250000Y-91109999D03*
X120050000Y-91109999D03*
X120050000Y-92689999D03*
%TD*%
D21*
%TO.C,RN1*%
X127200000Y-134200000D03*
X126700000Y-134200000D03*
X126200000Y-134200000D03*
X125700000Y-134200000D03*
X125200000Y-134200000D03*
X124700000Y-134200000D03*
X124200000Y-134200000D03*
X123700000Y-134200000D03*
X123700000Y-136000000D03*
X124200000Y-136000000D03*
X124700000Y-136000000D03*
X125200000Y-136000000D03*
X125700000Y-136000000D03*
X126200000Y-136000000D03*
X126700000Y-136000000D03*
X127200000Y-136000000D03*
%TD*%
D12*
%TO.C,SW34*%
X131120000Y-108150000D03*
D13*
X136200000Y-108150000D03*
D12*
X141280000Y-108150000D03*
D14*
X133660000Y-103070000D03*
X138740000Y-103070000D03*
X132390000Y-105610000D03*
X140010000Y-105610000D03*
%TD*%
D10*
%TO.C,LED31*%
X81950000Y-121660000D03*
X81950000Y-123240000D03*
X76150000Y-123240000D03*
X76150000Y-121660000D03*
%TD*%
D12*
%TO.C,SW11*%
X73970000Y-79050000D03*
D13*
X79050000Y-79050000D03*
D12*
X84130000Y-79050000D03*
D14*
X76510000Y-73970000D03*
X81590000Y-73970000D03*
X75240000Y-76510000D03*
X82860000Y-76510000D03*
%TD*%
D11*
%TO.C,LED24*%
X133300000Y-95189999D03*
X133300000Y-93609999D03*
X139100000Y-93609999D03*
X139100000Y-95189999D03*
%TD*%
%TO.C,LED25*%
X152350000Y-97689999D03*
X152350000Y-96109999D03*
X158150000Y-96109999D03*
X158150000Y-97689999D03*
%TD*%
%TO.C,LED03*%
X114250000Y-54590000D03*
X114250000Y-53010000D03*
X120050000Y-53010000D03*
X120050000Y-54590000D03*
%TD*%
D10*
%TO.C,LED33*%
X120050000Y-110160000D03*
X120050000Y-111740000D03*
X114250000Y-111740000D03*
X114250000Y-110160000D03*
%TD*%
D22*
%TO.C,LED36*%
X159048142Y-137243667D03*
X158430786Y-138698065D03*
X153091858Y-136431825D03*
X153709214Y-134977427D03*
%TD*%
D12*
%TO.C,SW30*%
X54920000Y-117150000D03*
D13*
X60000000Y-117150000D03*
D12*
X65080000Y-117150000D03*
D14*
X57460000Y-112070000D03*
X62540000Y-112070000D03*
X56190000Y-114610000D03*
X63810000Y-114610000D03*
%TD*%
D12*
%TO.C,SW00*%
X54920000Y-60000000D03*
D13*
X60000000Y-60000000D03*
D12*
X65080000Y-60000000D03*
D14*
X57460000Y-54920000D03*
X62540000Y-54920000D03*
X56190000Y-57460000D03*
X63810000Y-57460000D03*
%TD*%
D12*
%TO.C,SW35*%
X150170000Y-110650000D03*
D13*
X155250000Y-110650000D03*
D12*
X160330000Y-110650000D03*
D14*
X152710000Y-105570000D03*
X157790000Y-105570000D03*
X151440000Y-108110000D03*
X159060000Y-108110000D03*
%TD*%
D10*
%TO.C,LED14*%
X139100000Y-74560000D03*
X139100000Y-76140000D03*
X133300000Y-76140000D03*
X133300000Y-74560000D03*
%TD*%
D11*
%TO.C,LED22*%
X95200000Y-95189999D03*
X95200000Y-93609999D03*
X101000000Y-93609999D03*
X101000000Y-95189999D03*
%TD*%
D10*
%TO.C,LED10*%
X62900000Y-83560000D03*
X62900000Y-85140000D03*
X57100000Y-85140000D03*
X57100000Y-83560000D03*
%TD*%
D12*
%TO.C,SW23*%
X112070000Y-86600000D03*
D13*
X117150000Y-86600000D03*
D12*
X122230000Y-86600000D03*
D14*
X114610000Y-81520000D03*
X119690000Y-81520000D03*
X113340000Y-84060000D03*
X120960000Y-84060000D03*
%TD*%
D12*
%TO.C,SW20*%
X54920000Y-98100000D03*
D13*
X60000000Y-98100000D03*
D12*
X65080000Y-98100000D03*
D14*
X57460000Y-93020000D03*
X62540000Y-93020000D03*
X56190000Y-95560000D03*
X63810000Y-95560000D03*
%TD*%
D12*
%TO.C,SW12*%
X93020000Y-70050000D03*
D13*
X98100000Y-70050000D03*
D12*
X103180000Y-70050000D03*
D14*
X95560000Y-64970000D03*
X100640000Y-64970000D03*
X94290000Y-67510000D03*
X101910000Y-67510000D03*
%TD*%
D10*
%TO.C,LED12*%
X101000000Y-74560000D03*
X101000000Y-76140000D03*
X95200000Y-76140000D03*
X95200000Y-74560000D03*
%TD*%
D11*
%TO.C,LED02*%
X95200000Y-57090000D03*
X95200000Y-55510000D03*
X101000000Y-55510000D03*
X101000000Y-57090000D03*
%TD*%
D12*
%TO.C,SW02*%
X93020000Y-51000000D03*
D13*
X98100000Y-51000000D03*
D12*
X103180000Y-51000000D03*
D14*
X95560000Y-45920000D03*
X100640000Y-45920000D03*
X94290000Y-48460000D03*
X101910000Y-48460000D03*
%TD*%
D10*
%TO.C,LED34*%
X139100000Y-112660000D03*
X139100000Y-114240000D03*
X133300000Y-114240000D03*
X133300000Y-112660000D03*
%TD*%
D11*
%TO.C,LED00*%
X57100000Y-66090000D03*
X57100000Y-64510000D03*
X62900000Y-64510000D03*
X62900000Y-66090000D03*
%TD*%
D10*
%TO.C,LED15*%
X158150000Y-77060000D03*
X158150000Y-78640000D03*
X152350000Y-78640000D03*
X152350000Y-77060000D03*
%TD*%
%TO.C,LED11*%
X81950000Y-83560000D03*
X81950000Y-85140000D03*
X76150000Y-85140000D03*
X76150000Y-83560000D03*
%TD*%
D12*
%TO.C,SW01*%
X73970000Y-60000000D03*
D13*
X79050000Y-60000000D03*
D12*
X84130000Y-60000000D03*
D14*
X76510000Y-54920000D03*
X81590000Y-54920000D03*
X75240000Y-57460000D03*
X82860000Y-57460000D03*
%TD*%
D12*
%TO.C,SW25*%
X150170000Y-91600000D03*
D13*
X155250000Y-91600000D03*
D12*
X160330000Y-91600000D03*
D14*
X152710000Y-86520000D03*
X157790000Y-86520000D03*
X151440000Y-89060000D03*
X159060000Y-89060000D03*
%TD*%
D11*
%TO.C,LED05*%
X152350000Y-59590000D03*
X152350000Y-58010000D03*
X158150000Y-58010000D03*
X158150000Y-59590000D03*
%TD*%
D12*
%TO.C,SW10*%
X54920000Y-79050000D03*
D13*
X60000000Y-79050000D03*
D12*
X65080000Y-79050000D03*
D14*
X57460000Y-73970000D03*
X62540000Y-73970000D03*
X56190000Y-76510000D03*
X63810000Y-76510000D03*
%TD*%
D12*
%TO.C,SW36*%
X153473835Y-129965086D03*
D13*
X158150000Y-131950000D03*
D12*
X162826165Y-133934914D03*
D14*
X157796832Y-126281378D03*
X162472996Y-128266292D03*
X155635334Y-128123232D03*
X162649581Y-131100603D03*
%TD*%
D12*
%TO.C,SW22*%
X93020000Y-89100000D03*
D13*
X98100000Y-89100000D03*
D12*
X103180000Y-89100000D03*
D14*
X95560000Y-84020000D03*
X100640000Y-84020000D03*
X94290000Y-86560000D03*
X101910000Y-86560000D03*
%TD*%
D12*
%TO.C,SW32*%
X93020000Y-108150000D03*
D13*
X98100000Y-108150000D03*
D12*
X103180000Y-108150000D03*
D14*
X95560000Y-103070000D03*
X100640000Y-103070000D03*
X94290000Y-105610000D03*
X101910000Y-105610000D03*
%TD*%
D23*
%TO.C,D2425*%
X144775000Y-87912500D03*
X146675000Y-87912500D03*
X145725000Y-89787500D03*
%TD*%
%TO.C,D0001*%
X68575000Y-57562500D03*
X70475000Y-57562500D03*
X69525000Y-59437500D03*
%TD*%
%TO.C,D3435*%
X144775000Y-106962500D03*
X146675000Y-106962500D03*
X145725000Y-108837500D03*
%TD*%
%TO.C,D0405*%
X144775000Y-49812500D03*
X146675000Y-49812500D03*
X145725000Y-51687500D03*
%TD*%
%TO.C,D1415*%
X144775000Y-68862500D03*
X146675000Y-68862500D03*
X145725000Y-70737500D03*
%TD*%
%TO.C,D3031*%
X68575000Y-114712500D03*
X70475000Y-114712500D03*
X69525000Y-116587500D03*
%TD*%
%TO.C,D3233*%
X106675000Y-104462500D03*
X108575000Y-104462500D03*
X107625000Y-106337500D03*
%TD*%
%TO.C,D1011*%
X68575000Y-76612500D03*
X70475000Y-76612500D03*
X69525000Y-78487500D03*
%TD*%
%TO.C,D0203*%
X106675000Y-47312500D03*
X108575000Y-47312500D03*
X107625000Y-49187500D03*
%TD*%
%TO.C,D3637*%
X167650000Y-132012500D03*
X169550000Y-132012500D03*
X168600000Y-133887500D03*
%TD*%
%TO.C,D1213*%
X106675000Y-66362500D03*
X108575000Y-66362500D03*
X107625000Y-68237500D03*
%TD*%
%TO.C,D2223*%
X106675000Y-85412500D03*
X108575000Y-85412500D03*
X107625000Y-87287500D03*
%TD*%
%TO.C,D2021*%
X68575000Y-95662500D03*
X70475000Y-95662500D03*
X69525000Y-97537500D03*
%TD*%
M02*
