%TF.GenerationSoftware,KiCad,Pcbnew,8.0.8-8.0.8-0~ubuntu22.04.1*%
%TF.CreationDate,2025-01-26T06:24:24-06:00*%
%TF.ProjectId,kbd,6b62642e-6b69-4636-9164-5f7063625858,rev?*%
%TF.SameCoordinates,Original*%
%TF.FileFunction,Paste,Bot*%
%TF.FilePolarity,Positive*%
%FSLAX46Y46*%
G04 Gerber Fmt 4.6, Leading zero omitted, Abs format (unit mm)*
G04 Created by KiCad (PCBNEW 8.0.8-8.0.8-0~ubuntu22.04.1) date 2025-01-26 06:24:24*
%MOMM*%
%LPD*%
G01*
G04 APERTURE LIST*
G04 Aperture macros list*
%AMRoundRect*
0 Rectangle with rounded corners*
0 $1 Rounding radius*
0 $2 $3 $4 $5 $6 $7 $8 $9 X,Y pos of 4 corners*
0 Add a 4 corners polygon primitive as box body*
4,1,4,$2,$3,$4,$5,$6,$7,$8,$9,$2,$3,0*
0 Add four circle primitives for the rounded corners*
1,1,$1+$1,$2,$3*
1,1,$1+$1,$4,$5*
1,1,$1+$1,$6,$7*
1,1,$1+$1,$8,$9*
0 Add four rect primitives between the rounded corners*
20,1,$1+$1,$2,$3,$4,$5,0*
20,1,$1+$1,$4,$5,$6,$7,0*
20,1,$1+$1,$6,$7,$8,$9,0*
20,1,$1+$1,$8,$9,$2,$3,0*%
G04 Aperture macros list end*
%ADD10RoundRect,0.082000X-0.818000X-0.328000X0.818000X-0.328000X0.818000X0.328000X-0.818000X0.328000X0*%
%ADD11RoundRect,0.082000X0.818000X0.328000X-0.818000X0.328000X-0.818000X-0.328000X0.818000X-0.328000X0*%
%ADD12RoundRect,0.082000X-0.124944X-0.872409X0.693056X0.544409X0.124944X0.872409X-0.693056X-0.544409X0*%
%ADD13RoundRect,0.082000X-0.881133X0.017692X0.624813X-0.621544X0.881133X-0.017692X-0.624813X0.621544X0*%
%ADD14R,2.000000X0.610000*%
%ADD15R,3.600000X2.680000*%
%ADD16RoundRect,0.150000X0.150000X-0.850000X0.150000X0.850000X-0.150000X0.850000X-0.150000X-0.850000X0*%
%ADD17RoundRect,0.250000X0.262500X0.450000X-0.262500X0.450000X-0.262500X-0.450000X0.262500X-0.450000X0*%
%ADD18R,0.300000X0.800000*%
%ADD19RoundRect,0.250000X-0.262500X-0.450000X0.262500X-0.450000X0.262500X0.450000X-0.262500X0.450000X0*%
G04 APERTURE END LIST*
D10*
%TO.C,LED35*%
X158150000Y-116740000D03*
X158150000Y-115160000D03*
X152350000Y-115160000D03*
X152350000Y-116740000D03*
%TD*%
D11*
%TO.C,LED01*%
X76150000Y-64510000D03*
X76150000Y-66090000D03*
X81950000Y-66090000D03*
X81950000Y-64510000D03*
%TD*%
%TO.C,LED04*%
X133300000Y-55510000D03*
X133300000Y-57090000D03*
X139100000Y-57090000D03*
X139100000Y-55510000D03*
%TD*%
D10*
%TO.C,LED30*%
X62900000Y-123240000D03*
X62900000Y-121660000D03*
X57100000Y-121660000D03*
X57100000Y-123240000D03*
%TD*%
D11*
%TO.C,LED20*%
X57100000Y-102609999D03*
X57100000Y-104189999D03*
X62900000Y-104189999D03*
X62900000Y-102609999D03*
%TD*%
D10*
%TO.C,LED13*%
X120050000Y-73640000D03*
X120050000Y-72060000D03*
X114250000Y-72060000D03*
X114250000Y-73640000D03*
%TD*%
%TO.C,LED32*%
X101000000Y-114240000D03*
X101000000Y-112660000D03*
X95200000Y-112660000D03*
X95200000Y-114240000D03*
%TD*%
D11*
%TO.C,LED21*%
X76150000Y-102609999D03*
X76150000Y-104189999D03*
X81950000Y-104189999D03*
X81950000Y-102609999D03*
%TD*%
D12*
%TO.C,LED37*%
X185774160Y-137473526D03*
X184405840Y-136683526D03*
X181505840Y-141706474D03*
X182874160Y-142496474D03*
%TD*%
D11*
%TO.C,LED23*%
X114250000Y-91109999D03*
X114250000Y-92689999D03*
X120050000Y-92689999D03*
X120050000Y-91109999D03*
%TD*%
D10*
%TO.C,LED31*%
X81950000Y-123240000D03*
X81950000Y-121660000D03*
X76150000Y-121660000D03*
X76150000Y-123240000D03*
%TD*%
D11*
%TO.C,LED24*%
X133300000Y-93609999D03*
X133300000Y-95189999D03*
X139100000Y-95189999D03*
X139100000Y-93609999D03*
%TD*%
%TO.C,LED25*%
X152350000Y-96109999D03*
X152350000Y-97689999D03*
X158150000Y-97689999D03*
X158150000Y-96109999D03*
%TD*%
%TO.C,LED03*%
X114250000Y-53010000D03*
X114250000Y-54590000D03*
X120050000Y-54590000D03*
X120050000Y-53010000D03*
%TD*%
D10*
%TO.C,LED33*%
X120050000Y-111740000D03*
X120050000Y-110160000D03*
X114250000Y-110160000D03*
X114250000Y-111740000D03*
%TD*%
D13*
%TO.C,LED36*%
X158430786Y-138698065D03*
X159048142Y-137243667D03*
X153709214Y-134977427D03*
X153091858Y-136431825D03*
%TD*%
D10*
%TO.C,LED14*%
X139100000Y-76140000D03*
X139100000Y-74560000D03*
X133300000Y-74560000D03*
X133300000Y-76140000D03*
%TD*%
D11*
%TO.C,LED22*%
X95200000Y-93609999D03*
X95200000Y-95189999D03*
X101000000Y-95189999D03*
X101000000Y-93609999D03*
%TD*%
D10*
%TO.C,LED10*%
X62900000Y-85140000D03*
X62900000Y-83560000D03*
X57100000Y-83560000D03*
X57100000Y-85140000D03*
%TD*%
%TO.C,LED12*%
X101000000Y-76140000D03*
X101000000Y-74560000D03*
X95200000Y-74560000D03*
X95200000Y-76140000D03*
%TD*%
D11*
%TO.C,LED02*%
X95200000Y-55510000D03*
X95200000Y-57090000D03*
X101000000Y-57090000D03*
X101000000Y-55510000D03*
%TD*%
D10*
%TO.C,LED34*%
X139100000Y-114240000D03*
X139100000Y-112660000D03*
X133300000Y-112660000D03*
X133300000Y-114240000D03*
%TD*%
D11*
%TO.C,LED00*%
X57100000Y-64510000D03*
X57100000Y-66090000D03*
X62900000Y-66090000D03*
X62900000Y-64510000D03*
%TD*%
D10*
%TO.C,LED15*%
X158150000Y-78640000D03*
X158150000Y-77060000D03*
X152350000Y-77060000D03*
X152350000Y-78640000D03*
%TD*%
%TO.C,LED11*%
X81950000Y-85140000D03*
X81950000Y-83560000D03*
X76150000Y-83560000D03*
X76150000Y-85140000D03*
%TD*%
D11*
%TO.C,LED05*%
X152350000Y-58010000D03*
X152350000Y-59590000D03*
X158150000Y-59590000D03*
X158150000Y-58010000D03*
%TD*%
D14*
%TO.C,J1*%
X183700000Y-109500000D03*
X183700000Y-110500000D03*
X183700000Y-111500000D03*
X183700000Y-112500000D03*
X183700000Y-113500000D03*
X183700000Y-114500000D03*
X183700000Y-115500000D03*
X183700000Y-116500000D03*
X183700000Y-117500000D03*
X183700000Y-118500000D03*
X183700000Y-119500000D03*
X183700000Y-120500000D03*
D15*
X186500000Y-106510000D03*
X186500000Y-123490000D03*
%TD*%
D16*
%TO.C,U2*%
X129445000Y-124500000D03*
X128175000Y-124500000D03*
X126905000Y-124500000D03*
X125635000Y-124500000D03*
X124365000Y-124500000D03*
X123095000Y-124500000D03*
X121825000Y-124500000D03*
X120555000Y-124500000D03*
X120555000Y-119500000D03*
X121825000Y-119500000D03*
X123095000Y-119500000D03*
X124365000Y-119500000D03*
X125635000Y-119500000D03*
X126905000Y-119500000D03*
X128175000Y-119500000D03*
X129445000Y-119500000D03*
%TD*%
D17*
%TO.C,R1*%
X184572500Y-52255000D03*
X182747500Y-52255000D03*
%TD*%
D18*
%TO.C,RN2*%
X127200000Y-134200000D03*
X126700000Y-134200000D03*
X126200000Y-134200000D03*
X125700000Y-134200000D03*
X125200000Y-134200000D03*
X124700000Y-134200000D03*
X124200000Y-134200000D03*
X123700000Y-134200000D03*
X123700000Y-132400000D03*
X124200000Y-132400000D03*
X124700000Y-132400000D03*
X125200000Y-132400000D03*
X125700000Y-132400000D03*
X126200000Y-132400000D03*
X126700000Y-132400000D03*
X127200000Y-132400000D03*
%TD*%
D19*
%TO.C,R2*%
X182747500Y-61100000D03*
X184572500Y-61100000D03*
%TD*%
M02*
