M48
; DRILL file {KiCad 8.0.8-8.0.8-0~ubuntu22.04.1} date 2025-02-03T17:59:18-0600
; FORMAT={-:-/ absolute / inch / decimal}
; #@! TF.CreationDate,2025-02-03T17:59:18-06:00
; #@! TF.GenerationSoftware,Kicad,Pcbnew,8.0.8-8.0.8-0~ubuntu22.04.1
; #@! TF.FileFunction,Plated,1,2,PTH
FMAT,2
INCH
; #@! TA.AperFunction,Plated,PTH,ViaDrill
T1C0.0118
; #@! TA.AperFunction,Plated,PTH,ComponentDrill
T2C0.0118
; #@! TA.AperFunction,Plated,PTH,ComponentDrill
T3C0.0315
; #@! TA.AperFunction,Plated,PTH,ComponentDrill
T4C0.0590
%
G90
G05
T1
X2.1772Y-3.3543
X2.2283Y-2.5709
X2.2283Y-3.3209
X2.2283Y-4.0709
X2.2283Y-4.8209
X2.2677Y-2.5709
X2.2677Y-3.3209
X2.2677Y-4.0709
X2.2677Y-4.8209
X2.4567Y-2.5709
X2.4567Y-3.3209
X2.4567Y-4.0709
X2.4567Y-4.8209
X2.4961Y-2.5709
X2.4961Y-3.3209
X2.4961Y-4.0709
X2.4961Y-4.8209
X2.5862Y-4.9193
X2.9783Y-2.5709
X2.9783Y-3.3209
X2.9783Y-4.0709
X2.9783Y-4.8209
X3.0177Y-2.5709
X3.0177Y-3.3209
X3.0177Y-4.0709
X3.0177Y-4.8209
X3.2067Y-2.5709
X3.2067Y-3.3209
X3.2067Y-4.0709
X3.2067Y-4.8209
X3.2461Y-2.5709
X3.2461Y-3.3209
X3.2461Y-4.0709
X3.2461Y-4.8209
X3.6496Y-4.6339
X3.7283Y-2.2165
X3.7283Y-2.9665
X3.7283Y-3.7165
X3.7283Y-4.4665
X3.7677Y-2.2165
X3.7677Y-2.9665
X3.7677Y-3.7165
X3.7677Y-4.4665
X3.9567Y-2.2165
X3.9567Y-2.9665
X3.9567Y-3.7165
X3.9567Y-4.4665
X3.9961Y-2.2165
X3.9961Y-2.9665
X3.9961Y-3.7165
X3.9961Y-4.4665
X4.0559Y-4.6063
X4.4783Y-2.1181
X4.4783Y-2.8681
X4.4783Y-3.6181
X4.4783Y-4.3681
X4.5177Y-2.1181
X4.5177Y-2.8681
X4.5177Y-3.6181
X4.5177Y-4.3681
X4.7067Y-2.1181
X4.7067Y-2.8681
X4.7067Y-3.6181
X4.7067Y-4.3681
X4.7461Y-2.1181
X4.7461Y-2.8681
X4.7461Y-3.6181
X4.7461Y-4.3681
X4.9724Y-4.5236
X5.2283Y-2.2165
X5.2283Y-2.9665
X5.2283Y-3.7165
X5.2283Y-4.4665
X5.2677Y-2.2165
X5.2677Y-2.9665
X5.2677Y-3.7165
X5.2677Y-4.4665
X5.2992Y-4.811
X5.4106Y-4.7047
X5.4567Y-2.2165
X5.4567Y-2.9665
X5.4567Y-3.7165
X5.4567Y-4.4665
X5.4606Y-4.7047
X5.4606Y-4.9016
X5.4844Y-5.3169
X5.4961Y-2.2165
X5.4961Y-2.9665
X5.4961Y-3.7165
X5.4961Y-4.4665
X5.5041Y-5.2539
X5.5106Y-4.7047
X5.5106Y-4.9016
X5.5238Y-5.3169
X5.5435Y-5.2535
X5.5606Y-4.7047
X5.5606Y-4.9016
X5.5632Y-5.3169
X5.5833Y-5.2535
X5.6026Y-5.3169
X5.6106Y-4.7047
X5.6106Y-4.9016
X5.6222Y-5.2524
X5.6606Y-4.9016
X5.6695Y-5.1713
X5.7106Y-4.7047
X5.7106Y-4.9016
X5.7106Y-5.2126
X5.7372Y-4.6496
X5.8346Y-4.8386
X5.9613Y-5.3014
X5.9626Y-4.6791
X5.9783Y-2.315
X5.9783Y-3.065
X5.9783Y-3.815
X5.9783Y-4.565
X5.9909Y-5.3122
X6.0177Y-2.315
X6.0177Y-3.065
X6.0177Y-3.815
X6.0177Y-4.565
X6.2067Y-2.315
X6.2067Y-3.065
X6.2067Y-3.815
X6.2067Y-4.565
X6.2461Y-2.315
X6.2461Y-3.065
X6.2461Y-3.815
X6.2461Y-4.565
X6.2756Y-4.6791
X6.3154Y-5.4567
X6.3559Y-5.4583
X6.4508Y-2.0591
X6.624Y-4.7913
X6.7008Y-4.6457
X6.7402Y-4.9094
X6.7597Y-3.7288
X6.7657Y-5.4882
X6.7873Y-3.7563
X6.8012Y-5.4843
X6.8148Y-3.7839
X6.8268Y-4.8661
X6.8424Y-3.8114
X6.8719Y-3.841
X6.8975Y-3.8666
X6.925Y-3.8941
X6.9546Y-3.9236
X6.9821Y-3.9512
X7.0097Y-3.9788
X7.0266Y-1.8691
X7.0373Y-4.0063
X7.1043Y-5.0768
X7.1063Y-5.6496
T2
X2.6998Y-2.2662
X2.6998Y-3.0162
X2.6998Y-3.7662
X2.6998Y-4.5162
X2.7372Y-2.3401
X2.7372Y-3.0901
X2.7372Y-3.8401
X2.7372Y-4.5901
X2.7746Y-2.2662
X2.7746Y-3.0162
X2.7746Y-3.7662
X2.7746Y-4.5162
X4.1998Y-1.8627
X4.1998Y-2.6127
X4.1998Y-3.3627
X4.1998Y-4.1127
X4.2372Y-1.9365
X4.2372Y-2.6865
X4.2372Y-3.4365
X4.2372Y-4.1865
X4.2746Y-1.8627
X4.2746Y-2.6127
X4.2746Y-3.3627
X4.2746Y-4.1127
X5.6998Y-1.9611
X5.6998Y-2.7111
X5.6998Y-3.4611
X5.6998Y-4.2111
X5.7372Y-2.0349
X5.7372Y-2.7849
X5.7372Y-3.5349
X5.7372Y-4.2849
X5.7746Y-1.9611
X5.7746Y-2.7111
X5.7746Y-3.4611
X5.7746Y-4.2111
X6.6004Y-5.1973
X6.6378Y-5.2712
X6.6752Y-5.1973
T3
X6.5699Y-1.6939
X6.5699Y-1.7939
X6.5699Y-1.8939
X6.5699Y-1.9939
X6.5699Y-2.0939
X6.5699Y-2.1939
X6.5699Y-2.2939
X6.5699Y-2.3939
X6.5699Y-2.4939
X6.5699Y-2.5939
X6.5699Y-2.6939
X6.5699Y-2.7939
X7.1699Y-1.6939
X7.1699Y-1.7939
X7.1699Y-1.8939
X7.1699Y-1.9939
X7.1699Y-2.0939
X7.1699Y-2.1939
X7.1699Y-2.2939
X7.1699Y-2.3939
X7.1699Y-2.4939
X7.1699Y-2.5939
X7.1699Y-2.6939
X7.1699Y-2.7939
T4
X2.2122Y-2.2622
X2.2122Y-3.0122
X2.2122Y-3.7622
X2.2122Y-4.5122
X2.2622Y-2.1622
X2.2622Y-2.9122
X2.2622Y-3.6622
X2.2622Y-4.4122
X2.4622Y-2.1622
X2.4622Y-2.9122
X2.4622Y-3.6622
X2.4622Y-4.4122
X2.5122Y-2.2622
X2.5122Y-3.0122
X2.5122Y-3.7622
X2.5122Y-4.5122
X2.9622Y-2.2622
X2.9622Y-3.0122
X2.9622Y-3.7622
X2.9622Y-4.5122
X3.0122Y-2.1622
X3.0122Y-2.9122
X3.0122Y-3.6622
X3.0122Y-4.4122
X3.2122Y-2.1622
X3.2122Y-2.9122
X3.2122Y-3.6622
X3.2122Y-4.4122
X3.2622Y-2.2622
X3.2622Y-3.0122
X3.2622Y-3.7622
X3.2622Y-4.5122
X3.7122Y-1.9079
X3.7122Y-2.6579
X3.7122Y-3.4079
X3.7122Y-4.1579
X3.7622Y-1.8079
X3.7622Y-2.5579
X3.7622Y-3.3079
X3.7622Y-4.0579
X3.9622Y-1.8079
X3.9622Y-2.5579
X3.9622Y-3.3079
X3.9622Y-4.0579
X4.0122Y-1.9079
X4.0122Y-2.6579
X4.0122Y-3.4079
X4.0122Y-4.1579
X4.4622Y-1.8094
X4.4622Y-2.5594
X4.4622Y-3.3094
X4.4622Y-4.0594
X4.5122Y-1.7094
X4.5122Y-2.4594
X4.5122Y-3.2094
X4.5122Y-3.9594
X4.7122Y-1.7094
X4.7122Y-2.4594
X4.7122Y-3.2094
X4.7122Y-3.9594
X4.7622Y-1.8094
X4.7622Y-2.5594
X4.7622Y-3.3094
X4.7622Y-4.0594
X5.2122Y-1.9079
X5.2122Y-2.6579
X5.2122Y-3.4079
X5.2122Y-4.1579
X5.2622Y-1.8079
X5.2622Y-2.5579
X5.2622Y-3.3079
X5.2622Y-4.0579
X5.4622Y-1.8079
X5.4622Y-2.5579
X5.4622Y-3.3079
X5.4622Y-4.0579
X5.5122Y-1.9079
X5.5122Y-2.6579
X5.5122Y-3.4079
X5.5122Y-4.1579
X5.9622Y-2.0063
X5.9622Y-2.7563
X5.9622Y-3.5063
X5.9622Y-4.2563
X6.0122Y-1.9063
X6.0122Y-2.6563
X6.0122Y-3.4063
X6.0122Y-4.1563
X6.1274Y-5.0442
X6.2122Y-1.9063
X6.2122Y-2.6563
X6.2122Y-3.4063
X6.2122Y-4.1563
X6.2125Y-4.9717
X6.2622Y-2.0063
X6.2622Y-2.7563
X6.2622Y-3.5063
X6.2622Y-4.2563
X6.3966Y-5.0499
X6.4035Y-5.1614
X6.9693Y-5.2301
X7.0626Y-5.1685
X7.2291Y-5.3801
X7.2358Y-5.2685
M30
