%TF.GenerationSoftware,KiCad,Pcbnew,8.0.8-8.0.8-0~ubuntu22.04.1*%
%TF.CreationDate,2025-02-03T17:59:22-06:00*%
%TF.ProjectId,kbd,6b62642e-6b69-4636-9164-5f7063625858,rev?*%
%TF.SameCoordinates,Original*%
%TF.FileFunction,Profile,NP*%
%FSLAX46Y46*%
G04 Gerber Fmt 4.6, Leading zero omitted, Abs format (unit mm)*
G04 Created by KiCad (PCBNEW 8.0.8-8.0.8-0~ubuntu22.04.1) date 2025-02-03 17:59:22*
%MOMM*%
%LPD*%
G01*
G04 APERTURE LIST*
%TA.AperFunction,Profile*%
%ADD10C,0.050000*%
%TD*%
G04 APERTURE END LIST*
D10*
X126600000Y-41500000D02*
X165900000Y-41500000D01*
X188700000Y-41500000D01*
X188700000Y-134300000D01*
X181500000Y-146400000D01*
X88600000Y-126000000D01*
X53000000Y-126000000D01*
X53000000Y-50400000D01*
X88500000Y-50500000D01*
X88500000Y-41400000D01*
X107700000Y-41400000D01*
X107700000Y-39000000D01*
X126600000Y-39000000D01*
X126600000Y-41500000D01*
X165800000Y-72550000D02*
X183200000Y-72550000D01*
X183200000Y-80550000D01*
X165800000Y-80550000D01*
X165800000Y-72550000D01*
%TO.C,LED35*%
X153550000Y-114450000D02*
X156950000Y-114450000D01*
X156950000Y-117450000D01*
X153550000Y-117450000D01*
X153550000Y-114450000D01*
%TO.C,LED01*%
X80750000Y-66800000D02*
X77350000Y-66800000D01*
X77350000Y-63800000D01*
X80750000Y-63800000D01*
X80750000Y-66800000D01*
%TO.C,LED04*%
X137900000Y-57800000D02*
X134500000Y-57800000D01*
X134500000Y-54800000D01*
X137900000Y-54800000D01*
X137900000Y-57800000D01*
%TO.C,LED30*%
X58300000Y-120950000D02*
X61700000Y-120950000D01*
X61700000Y-123950000D01*
X58300000Y-123950000D01*
X58300000Y-120950000D01*
%TO.C,LED20*%
X61700000Y-104899999D02*
X58300000Y-104899999D01*
X58300000Y-101899999D01*
X61700000Y-101899999D01*
X61700000Y-104899999D01*
%TO.C,LED13*%
X115450000Y-71350000D02*
X118850000Y-71350000D01*
X118850000Y-74350000D01*
X115450000Y-74350000D01*
X115450000Y-71350000D01*
%TO.C,LED32*%
X96400000Y-111950000D02*
X99800000Y-111950000D01*
X99800000Y-114950000D01*
X96400000Y-114950000D01*
X96400000Y-111950000D01*
%TO.C,LED21*%
X80750000Y-104899999D02*
X77350000Y-104899999D01*
X77350000Y-101899999D01*
X80750000Y-101899999D01*
X80750000Y-104899999D01*
%TO.C,LED37*%
X178622243Y-141100962D02*
X177122243Y-143699038D01*
X174177757Y-141999038D01*
X175677757Y-139400962D01*
X178622243Y-141100962D01*
%TO.C,LED23*%
X118850000Y-93399999D02*
X115450000Y-93399999D01*
X115450000Y-90399999D01*
X118850000Y-90399999D01*
X118850000Y-93399999D01*
%TO.C,LED31*%
X77350000Y-120950000D02*
X80750000Y-120950000D01*
X80750000Y-123950000D01*
X77350000Y-123950000D01*
X77350000Y-120950000D01*
%TO.C,LED24*%
X137900000Y-95899999D02*
X134500000Y-95899999D01*
X134500000Y-92899999D01*
X137900000Y-92899999D01*
X137900000Y-95899999D01*
%TO.C,LED25*%
X156950000Y-98399999D02*
X153550000Y-98399999D01*
X153550000Y-95399999D01*
X156950000Y-95399999D01*
X156950000Y-98399999D01*
%TO.C,LED03*%
X118850000Y-55300000D02*
X115450000Y-55300000D01*
X115450000Y-52300000D01*
X118850000Y-52300000D01*
X118850000Y-55300000D01*
%TO.C,LED33*%
X115450000Y-109450000D02*
X118850000Y-109450000D01*
X118850000Y-112450000D01*
X115450000Y-112450000D01*
X115450000Y-109450000D01*
%TO.C,LED36*%
X158220955Y-136121232D02*
X157048762Y-138882746D01*
X153919045Y-137554260D01*
X155091238Y-134792746D01*
X158220955Y-136121232D01*
%TO.C,LED14*%
X134500000Y-73850000D02*
X137900000Y-73850000D01*
X137900000Y-76850000D01*
X134500000Y-76850000D01*
X134500000Y-73850000D01*
%TO.C,LED22*%
X99800000Y-95899999D02*
X96400000Y-95899999D01*
X96400000Y-92899999D01*
X99800000Y-92899999D01*
X99800000Y-95899999D01*
%TO.C,LED10*%
X58300000Y-82850000D02*
X61700000Y-82850000D01*
X61700000Y-85850000D01*
X58300000Y-85850000D01*
X58300000Y-82850000D01*
%TO.C,LED12*%
X96400000Y-73850000D02*
X99800000Y-73850000D01*
X99800000Y-76850000D01*
X96400000Y-76850000D01*
X96400000Y-73850000D01*
%TO.C,LED02*%
X99800000Y-57800000D02*
X96400000Y-57800000D01*
X96400000Y-54800000D01*
X99800000Y-54800000D01*
X99800000Y-57800000D01*
%TO.C,LED34*%
X134500000Y-111950000D02*
X137900000Y-111950000D01*
X137900000Y-114950000D01*
X134500000Y-114950000D01*
X134500000Y-111950000D01*
%TO.C,LED00*%
X61700000Y-66800000D02*
X58300000Y-66800000D01*
X58300000Y-63800000D01*
X61700000Y-63800000D01*
X61700000Y-66800000D01*
%TO.C,LED15*%
X153550000Y-76350000D02*
X156950000Y-76350000D01*
X156950000Y-79350000D01*
X153550000Y-79350000D01*
X153550000Y-76350000D01*
%TO.C,LED11*%
X77350000Y-82850000D02*
X80750000Y-82850000D01*
X80750000Y-85850000D01*
X77350000Y-85850000D01*
X77350000Y-82850000D01*
%TO.C,LED05*%
X156950000Y-60300000D02*
X153550000Y-60300000D01*
X153550000Y-57300000D01*
X156950000Y-57300000D01*
X156950000Y-60300000D01*
%TD*%
M02*
